<?xml version="1.0" encoding="UTF-8"?>
<svg xmlns="http://www.w3.org/2000/svg" viewBox="0 0 786.96 1194.48">
  <defs>
    <style>
      .cls-1 {
        fill: #46782f;
      }

      .cls-2 {
        fill: #7b4c2d;
      }

      .cls-3 {
        fill: #559833;
      }

      .cls-4 {
        fill: #5c9631;
      }

      .cls-5 {
        fill: #69b439;
      }

      .cls-6 {
        fill: #69b438;
      }

      .cls-7 {
        fill: #513013;
      }
    </style>
  </defs>
  <g>
    <g>
      <path class="cls-4" d="M331.71,366.79c8.88,9.79,13.05,23.03,13.01,36.2.51,36.68-31.14,63.97-64.45,73.27-43.89,13.59-100.73.23-124.64-40.57-1.34-2.08-3.39-2.63-5.73-2.41-59.45,5.34-123.17-35.08-138.1-93.83-2.84-16.6,12.2-27.92,25.72-33.89,10.76-4.93,22.68-9.15,30.3-17.88.93-1.14,1.85-2.58,1.09-3.99-14.63-14.54-10.71-33.06-1.76-49.84,5.37-9.97,10.39-20.6,18.58-28.46,1.91-1.83,3.97-3.51,5.76-5.47,3.72-4.02,6.15-8.93,8.46-13.88,26.56-62.09,96.66-101.98,163.57-93.85,3.05.52,4.51-.74,4.81-3.57,5.66-39.04,43.05-62.16,77.37-74.44,45.59-20.15,95.1-18.26,141.2,1.85,42.03,17.15,77.14,48.92,91.84,92.6,1.15,3.63,2.23,2.6,3.75.38,12.01-16.13,35.22-16.04,53.53-14.34,42.38,3.97,86.58,16.86,110.61,54.48,13.53,20.16,19.35,45.43,14.83,69.39-3.53,18.99-12.7,37.53-27.75,49.92-2.18,1.91-7.28,2.8-3.45,6.13,37.88,35.45,58.78,86.97,8.68,121.59-18.6,12.25-41.11,15.93-62.98,16.73-36.15,1.33-76.58-3.18-102.76-30.7-4.16-4.36-7.76-9.24-10.69-14.47-1.47-2.84-3.66-2.87-6.24-1.62-56.3,24.23-123.63,14.57-172.97-20.66-1.48-.34-3,.59-4.19,1.54-12.71,10.24-29.03,15.85-45.33,15.79-1.82.04-2.97,2.18-2.13,3.82l.06.12Z"/>
      <ellipse class="cls-1" cx="650.78" cy="341.06" rx="70.9" ry="103.2" transform="translate(224.43 939.44) rotate(-82.19)"/>
      <ellipse class="cls-1" cx="644.55" cy="199.22" rx="70.9" ry="103.2" transform="translate(297.44 777.7) rotate(-76.21)"/>
      <ellipse class="cls-1" cx="407.7" cy="138.31" rx="97.8" ry="142.36" transform="translate(215.26 523.43) rotate(-82.19)"/>
      <ellipse class="cls-1" cx="237.8" cy="245.24" rx="87.66" ry="127.6" transform="translate(-37.48 447.5) rotate(-82.19)"/>
      <ellipse class="cls-1" cx="114.63" cy="369.93" rx="71.22" ry="103.68" transform="translate(-267.45 433.21) rotate(-82.19)"/>
      <ellipse class="cls-6" cx="653.3" cy="325.47" rx="70.9" ry="103.2" transform="translate(242.06 928.47) rotate(-82.19)"/>
      <ellipse class="cls-6" cx="647.07" cy="183.63" rx="70.9" ry="103.2" transform="translate(314.5 768.27) rotate(-76.21)"/>
      <ellipse class="cls-6" cx="415.23" cy="119.72" rx="97.8" ry="142.36" transform="translate(240.18 514.82) rotate(-82.19)"/>
      <ellipse class="cls-6" cx="245.33" cy="226.64" rx="87.66" ry="127.6" transform="translate(-12.56 438.89) rotate(-82.19)"/>
      <ellipse class="cls-6" cx="103.18" cy="351.34" rx="71.22" ry="103.68" transform="translate(-258.92 405.81) rotate(-82.19)"/>
      <path class="cls-7" d="M393.34,220.6h0c9.74,0,17.67,7.85,17.76,17.59l9.1,925.55c.05,5.36-2.3,10.49-6.46,13.88-12.06,9.84-40.66,26.31-84.25,9.93-7.25-2.72-11.81-9.94-11.33-17.66l57.44-932.61c.58-9.37,8.34-16.67,17.73-16.67Z"/>
      <path class="cls-7" d="M412.93,424.55s79.69-10.24,151.18-72.54l10.21,13.28s-48.4,62.37-161.05,93.99l-.34-34.73Z"/>
      <path class="cls-7" d="M187.26,391.84s78.68,87.64,172.11,109.18l-2.4,38.91s-116.6-42.87-181.96-134.29l12.26-13.81Z"/>
      <path class="cls-3" d="M399.88,201.19s-22.88,8.12-30.36-44.5c0,0,36.46,15.66,30.36,44.5Z"/>
      <path class="cls-3" d="M425.75,179.11s-13.74-20.02,35.18-40.8c0,0-5.74,39.26-35.18,40.8Z"/>
      <path class="cls-3" d="M646.52,383.22s-22.88,8.12-30.36-44.5c0,0,36.46,15.66,30.36,44.5Z"/>
      <path class="cls-3" d="M672.39,361.14s-13.74-20.02,35.18-40.8c0,0-5.74,39.26-35.18,40.8Z"/>
      <path class="cls-3" d="M144.65,401.14s22.88,8.12,30.36-44.5c0,0-36.46,15.66-30.36,44.5Z"/>
      <path class="cls-3" d="M267.87,289.74s22.88,8.12,30.36-44.5c0,0-36.46,15.66-30.36,44.5Z"/>
      <path class="cls-3" d="M645.24,240.24s22.88,8.12,30.36-44.5c0,0-36.46,15.66-30.36,44.5Z"/>
      <path class="cls-3" d="M118.78,379.06s13.74-20.02-35.18-40.8c0,0,5.74,39.26,35.18,40.8Z"/>
      <path class="cls-5" d="M588.97,84.43s-13.74-20.02,35.18-40.8c0,0-5.74,39.26-35.18,40.8Z"/>
      <path class="cls-5" d="M751.78,288.11s-13.74-20.02,35.18-40.8c0,0-5.74,39.26-35.18,40.8Z"/>
      <path class="cls-5" d="M487.83,301.32s-3.63-24,49.45-21.37c0,0-22.29,32.83-49.45,21.37Z"/>
      <path class="cls-5" d="M477.16,289.93s-24.15,2.48-18.97-50.42c0,0,31.72,23.84,18.97,50.42Z"/>
      <path class="cls-5" d="M273.17,413.15s-3.63-24,49.45-21.37c0,0-22.29,32.83-49.45,21.37Z"/>
      <path class="cls-5" d="M262.5,401.76s-24.15,2.48-18.97-50.42c0,0,31.72,23.84,18.97,50.42Z"/>
      <path class="cls-5" d="M234.78,89.23s-24.15,2.48-18.97-50.42c0,0,31.72,23.84,18.97,50.42Z"/>
      <path class="cls-2" d="M379.51,633.76c-2.69-.14-4.02,9.08-4.07,15.39,2.7,108.12-1.65,217.06-17.85,324.2-2.67,18.76-5.56,37.52-7.88,56.32-2.58,23.61-6.22,50.66-.91,73.41,1.53,7.82,7.6,19.87,14.31,19.49,12.44,0,19.87-23.09,21.92-34.85,9.12-54.56-1.77-110.24-4.1-165.02-3.98-66.48,0-133.13,9.27-199.02,2.98-23.67,4.75-47.22-.96-70.36-2.63-9.58-4.96-18.3-9.68-19.57h-.04Z"/>
    </g>
  </g>
</svg>