<?xml version="1.0" encoding="UTF-8"?>
<svg id="Capa_2" data-name="Capa 2" xmlns="http://www.w3.org/2000/svg" viewBox="0 0 700.82 1008.16">
  <defs>
    <style>
      .cls-1 {
        fill: #599632;
      }

      .cls-2 {
        fill: #497a2f;
      }

      .cls-3 {
        fill: #7b4c2d;
      }

      .cls-4 {
        fill: #559833;
      }

      .cls-5 {
        fill: #69b439;
      }

      .cls-6 {
        fill: #503014;
      }
    </style>
  </defs>
  <g id="Capa_1-2" data-name="Capa 1">
    <g>
      <path class="cls-5" d="M665.64,444.61s-13.74-20.02,35.18-40.8c0,0-5.74,39.26-35.18,40.8Z"/>
      <g>
        <g>
          <path class="cls-1" d="M498.78,638.1c-20.09,74.8-123.06,115.83-193.43,96.32-54.88-15.22-95.59-71.04-93.31-127.94-23.86,11.12-52.41,10.15-76.19-1.14-23.77-11.29-42.66-31.5-55.05-54.72-17.81-33.38-22.25-68.17,1.86-97.33l3.2-2.44c-12.2-2.02-27.17-13.88-37.36-20.89C16.37,407.88-2.67,368.07.3,329.2c3.01-39.38,28.51-76.28,64.36-92.91,1.14-.53,2.49-.49,3.54.2,2.82,1.86-2.51,3.86-1.72,1.74-7.98-32.01-15.67-71.08-1-100.63,9.86-19.87,28.46-33.88,47.41-45.42,28.86-17.58,63.46-31.53,95.9-22.07,11.51,3.35,21.41-7.92,29.7-16.57,13.81-14.4,31.6-24.22,49.08-33.83,49.12-26.97,113.65-22.91,159,10.02,12.69,9.21,23.92,20.47,32.85,33.36,12.61,18.2,20.52,39.62,22.76,61.64,3.46-.09,4.52,5.41,3.83,8.81,31.08-10.06,64.83-15.44,96.4-7.02,11.4,3.04,22.25,7.82,33.05,12.57,27.44,12.08,48.68,37.4,55.81,66.52,10.2,41.68-8.3,86.16-37.17,117.91l-2.23-5.31c15.74,15.48,27.1,43.09,23.06,64.8s-19.38,40.98-39.63,49.78c11.7,13.82,22.98,28.98,28.79,46.13,14.09,41.61-5.37,88.33-35.29,117.92-15.99,15.82-35.76,25.74-57.39,31.52-6.95,1.86-72.18,8.11-72.62,9.75Z"/>
          <ellipse class="cls-2" cx="557.95" cy="534.33" rx="102.64" ry="79.91" transform="translate(-211.79 468.66) rotate(-38.88)"/>
          <ellipse class="cls-2" cx="124.14" cy="346.73" rx="74.86" ry="91.29" transform="translate(-238.51 410.89) rotate(-80.33)"/>
          <ellipse class="cls-2" cx="537.56" cy="258.65" rx="129.95" ry="101.18" transform="translate(-12.62 28.07) rotate(-2.96)"/>
          <ellipse class="cls-2" cx="347.05" cy="164.65" rx="122.28" ry="95.2" transform="translate(-8.03 18.12) rotate(-2.96)"/>
          <ellipse class="cls-5" cx="544.67" cy="245" rx="127.6" ry="99.35" transform="translate(-37.22 110.46) rotate(-11.2)"/>
          <ellipse class="cls-5" cx="352.29" cy="144.42" rx="127.6" ry="99.35" transform="translate(-21.34 71.18) rotate(-11.2)"/>
          <ellipse class="cls-2" cx="178.84" cy="509.6" rx="90.11" ry="70.16" transform="translate(-95.58 44.44) rotate(-11.2)"/>
          <circle class="cls-2" cx="322.52" cy="633.52" r="93.2"/>
          <circle class="cls-2" cx="195.23" cy="245" r="65.02"/>
          <ellipse class="cls-5" cx="557.95" cy="522.79" rx="102.64" ry="79.91" transform="translate(-204.55 466.1) rotate(-38.88)"/>
          <circle class="cls-5" cx="170.93" cy="199.04" r="90.11"/>
          <ellipse class="cls-5" cx="115.13" cy="338.3" rx="70.16" ry="90.11" transform="translate(-241.92 352.99) rotate(-73.56)"/>
          <ellipse class="cls-5" cx="170.93" cy="498.28" rx="90.11" ry="70.16" transform="translate(-93.53 42.69) rotate(-11.2)"/>
          <circle class="cls-5" cx="326.16" cy="623.89" r="90.11"/>
          <path class="cls-6" d="M314.58,258.88s75.57,193.02,79.66,385.02c1.25,58.82-8.98,117.41-25.32,173.76-16.02,55.26-39.79,108.11-53.39,164.09-.56,2.31-1.11,4.73-.48,7.04,2.48,9.05,32.02,14.54,39.95,16.32,16.25,3.65,33.32,4.47,49.49-.1,28.46-8.06,34.76-25.26,36.86-53.89,6.5-88.36,24.45-173.99,16.6-263.04-5.14-57.21-17.12-113.63-31.26-169.22-20.93-82.62-49.61-163.12-82.79-241.57-2.54-6.01-4.81-13.22-8.9-18.42h-20.43Z"/>
          <path class="cls-6" d="M542.83,353.35h19.4s-13.65,158.66-117.38,245.29l-10.08-46.69s87.63-93.91,108.05-198.59Z"/>
          <path class="cls-6" d="M180.28,404.92l14.17-13.14s70.31,60.09,172.07,42.75l8.69,41.47s-119.87,11.66-194.93-71.07Z"/>
        </g>
        <path class="cls-3" d="M387.68,443.62c16.05,60.96,16.51,126.55,16.74,189.48.62,55.24,2.07,110.95-9.78,165.15-7.73,37.83-21.69,74.04-33.99,110.53-4.24,13.29-15.29,49.28,3.71,49.4,25.3-9.82,34.99-48.77,41.75-73.81,30.87-125.23,21.95-324.33-18.27-447.77-4.08-10.79-1.3,2.07-.19,6.88l.03.14Z"/>
        <path class="cls-3" d="M262.07,435.22c10.12,6.74,22.06,10.93,33.53,14.91,10.04,3.57,20.12,7.32,30.75,8.55,7.39.96,14.87.67,22.3.71,2.69.06,9.95.29,8.78,3.77-3.38,4-11.09,3.34-16.08,3-24.78-2.2-60.56-16.28-80.57-31.35-1.71-1.42.46-.11,1.27.4h.02Z"/>
        <path class="cls-3" d="M543.25,397.52c-1.56.5-3.42,6.65-4.35,9.24-5.42,15.56-12.15,30.76-18.78,45.87-15.11,30.16-33.31,58.84-52.97,86.22-2.69,4.27-12.06,15.1-8.63,19.26,3.83,1.81,10.39-4.82,13.31-7.93,16.11-17.73,29.74-37.83,38.32-60.15,2.25-5.79,4.26-11.67,6.38-17.5,5.28-14.68,11.51-28.97,18.12-43.12,3.76-8.34,8.01-16.9,9.16-26.02.44-3.59.21-5.9-.53-5.86h-.04Z"/>
        <path class="cls-4" d="M528.69,329.41s-22.88,8.12-30.36-44.5c0,0,36.46,15.66,30.36,44.5Z"/>
        <path class="cls-4" d="M554.56,307.33s-13.74-20.02,35.18-40.8c0,0-5.74,39.26-35.18,40.8Z"/>
        <path class="cls-5" d="M448.21,468.71s-22.88,8.12-30.36-44.5c0,0,36.46,15.66,30.36,44.5Z"/>
        <path class="cls-5" d="M474.08,446.63s-13.74-20.02,35.18-40.8c0,0-5.74,39.26-35.18,40.8Z"/>
        <path class="cls-5" d="M517.61,110.49s-13.74-20.02,35.18-40.8c0,0-5.74,39.26-35.18,40.8Z"/>
        <path class="cls-5" d="M230.97,53.84s-23.65-5.47-1.63-53.84c0,0,22.3,32.82,1.63,53.84Z"/>
        <path class="cls-5" d="M47.46,227.8s-21.81,10.67-35.23-40.75c0,0,38.01,11.4,35.23,40.75Z"/>
        <path class="cls-5" d="M63.12,465.79s-13.54,20.15-50.89-17.65c0,0,38.61-9.14,50.89,17.65Z"/>
        <path class="cls-5" d="M204.22,625.58s11.98,21.11-38.53,37.65c0,0,9.07-38.63,38.53-37.65Z"/>
        <path class="cls-5" d="M262.4,392.74s-22.88,8.12-30.36-44.5c0,0,36.46,15.66,30.36,44.5Z"/>
        <path class="cls-5" d="M288.27,370.66s-13.74-20.02,35.18-40.8c0,0-5.74,39.26-35.18,40.8Z"/>
        <path class="cls-4" d="M321.12,696.4s-22.88,8.12-30.36-44.5c0,0,36.46,15.66,30.36,44.5Z"/>
        <path class="cls-4" d="M346.99,674.32s-13.74-20.02,35.18-40.8c0,0-5.74,39.26-35.18,40.8Z"/>
        <path class="cls-4" d="M354.43,230.25s22.88,8.12,30.36-44.5c0,0-36.46,15.66-30.36,44.5Z"/>
        <path class="cls-4" d="M328.56,208.17s13.74-20.02-35.18-40.8c0,0,5.74,39.26,35.18,40.8Z"/>
        <path class="cls-4" d="M186.27,267.02s22.88,8.12,30.36-44.5c0,0-36.46,15.66-30.36,44.5Z"/>
        <path class="cls-4" d="M160.4,244.94s13.74-20.02-35.18-40.8c0,0,5.74,39.26,35.18,40.8Z"/>
        <path class="cls-4" d="M536.08,594.13s-13.74-20.02,35.18-40.8c0,0-5.74,39.26-35.18,40.8Z"/>
        <path class="cls-4" d="M138.99,394.14s-13.74-20.02,35.18-40.8c0,0-5.74,39.26-35.18,40.8Z"/>
        <path class="cls-4" d="M218.4,529.99s-13.74-20.02,35.18-40.8c0,0-5.74,39.26-35.18,40.8Z"/>
      </g>
    </g>
  </g>
</svg>