<?xml version="1.0" encoding="UTF-8"?>
<svg xmlns="http://www.w3.org/2000/svg" viewBox="0 0 900.81 947.73">
  <defs>
    <style>
      .cls-1 {
        fill: #599632;
      }

      .cls-2 {
        fill: #6ab53b;
      }

      .cls-3 {
        fill: #7b4c2d;
      }

      .cls-4 {
        fill: #45792f;
      }

      .cls-5 {
        fill: #533115;
      }

      .cls-6 {
        fill: #559833;
      }
    </style>
  </defs>
  <g>
    <g>
      <path class="cls-2" d="M852.27,353.14s-4.6-23.84,48.54-23.36c0,0-20.94,33.71-48.54,23.36Z"/>
      <g>
        <path class="cls-1" d="M613.38,720.15c37.47,9.47,77.33,12.4,114.68,2.45,37.35-9.95,71.93-33.88,89.45-68.34,17.52-34.45,15.41-79.48-9.54-109.01,29.89-2.31,55.97-25.15,66.53-53.2,10.57-28.05,7.05-60.11-4.99-87.56-12.04-27.45-32-50.76-54.06-71.05,14.66,13.47,42.74-58.03,45.58-67,23.03-72.8,21.16-158.01-44-207.62-24.62-18.74-53.85-30.69-83.77-38.55-20.26-5.33-41.08-8.88-62.03-9.1-53.2-.55-104.3,20.31-151.28,45.26,3.18-.6,6.35-1.2,9.53-1.8-16.3,5.18-36.34-6.08-51.69-13.63C415.61,10.46,342.48-1.74,276.05,17.95c-66.42,19.69-123.9,74.51-136.78,142.58-.17.9-48.28,14.12-52.88,15.74C48.91,189.48.12,219.69,0,265.13c-.06,23.55,16.11,43.63,31.5,61.45C7.78,338.84.81,369.62,1.71,396.32c2.09,61.98,33.67,122.33,83.41,159.38,6.58,4.9,10.4,12.46,11.04,20.64,3.04,38.96,29.36,74.73,65.12,90.04,32.6,13.94,72.07,10.47,101.73-8.95,24.35,52.3,79.63,89.98,135.79,103.19,56.16,13.21,118.06-.69,163.17-36.64,7.72-6.15,15.15-13.01,24.31-16.67,9.16-3.66,20.29,5.73,27.1,12.86Z"/>
        <ellipse class="cls-4" cx="679.04" cy="207.41" rx="177.71" ry="132.83" transform="translate(-.28 .9) rotate(-.08)"/>
        <ellipse class="cls-4" cx="340.54" cy="132.85" rx="152.52" ry="114.01" transform="translate(-.18 .45) rotate(-.08)"/>
        <ellipse class="cls-4" cx="144.68" cy="264.07" rx="79.2" ry="67.09" transform="translate(-.35 .19) rotate(-.08)"/>
        <ellipse class="cls-4" cx="119.25" cy="436.21" rx="79.63" ry="105.56" transform="translate(-322.78 531.64) rotate(-86.89)"/>
        <ellipse class="cls-4" cx="210.46" cy="598.81" rx="79.63" ry="105.56" transform="translate(-398.88 776.5) rotate(-86.89)"/>
        <ellipse class="cls-2" cx="340.52" cy="118.94" rx="139.95" ry="104.61" transform="translate(-.16 .45) rotate(-.08)"/>
        <ellipse class="cls-2" cx="119.71" cy="253.7" rx="98.7" ry="73.77" transform="translate(-.34 .16) rotate(-.08)"/>
        <ellipse class="cls-2" cx="109.41" cy="417.15" rx="109.21" ry="89.66" transform="translate(-.55 .15) rotate(-.08)"/>
        <ellipse class="cls-2" cx="218.85" cy="586.37" rx="97.08" ry="79.7" transform="translate(-.78 .29) rotate(-.08)"/>
        <ellipse class="cls-4" cx="755.31" cy="460.29" rx="114.72" ry="98.8" transform="translate(-.61 1) rotate(-.08)"/>
        <ellipse class="cls-4" cx="579.3" cy="515.2" rx="90.49" ry="77.33" transform="translate(-.68 .77) rotate(-.08)"/>
        <ellipse class="cls-2" cx="679" cy="179.18" rx="177.71" ry="132.83" transform="translate(-.24 .9) rotate(-.08)"/>
        <ellipse class="cls-2" cx="741.69" cy="438.96" rx="114.72" ry="98.8" transform="translate(-.58 .99) rotate(-.08)"/>
        <ellipse class="cls-2" cx="565.68" cy="493.87" rx="90.49" ry="77.33" transform="translate(-.66 .75) rotate(-.08)"/>
        <path class="cls-5" d="M335.7,249.2s35.42-.05,35.42-.05c-1.99,69.42-6.1,138.8-6.39,208.21-.16,38.95,13.6,81.38,40.69,110,28.41,30.02,74.07,38.43,110.17,55.89,96.44,46.65,147.29,147.98,152.86,252.35.57,10.74,5.2,44.35-1.98,52.83,0,0-30.95,36.57-121.75,9.02.6-23.81,1.21-47.62,1.81-71.43.97-38.47,8.81-83.47-3.93-120.36-7.16-20.73-23.39-34.8-42.7-44.42-17.97-8.95-37.69-13.09-56.12-20.72-40.08-16.6-73.44-41.47-89.08-83.13-17.4-46.34-21.87-96.61-21.15-145.75.99-67.48,2.23-134.96,2.14-202.44Z"/>
        <path class="cls-5" d="M724.33,559.13l42.36-.06s-43.58,71.49-191.79,113.88c0,0-27.22-21.36-44.95-37.21-18.09-16.17,144.41-4.21,194.38-76.62Z"/>
        <path class="cls-5" d="M354.65,366.13s91,25.39,181.83-78.7l7.23,4.32s-69.15,119.46-186.13,104.21l-2.93-29.84Z"/>
        <path class="cls-5" d="M221.12,275.54s48.15,47.54,119.66,41.35l.04,32.66s-80.15-2.66-130.78-59.05l11.08-14.96Z"/>
        <path class="cls-6" d="M152.63,484.7s-22.15-9.93,8.79-53.15c0,0,15.55,36.51-8.79,53.15Z"/>
        <path class="cls-6" d="M114.97,479.49s-22.88,8.12-30.36-44.5c0,0,36.46,15.66,30.36,44.5Z"/>
        <path class="cls-6" d="M233.74,653.12s-22.88,8.12-30.36-44.5c0,0,36.46,15.66,30.36,44.5Z"/>
        <path class="cls-6" d="M693.96,296.96s-22.88,8.12-30.36-44.5c0,0,36.46,15.66,30.36,44.5Z"/>
        <path class="cls-6" d="M719.83,274.88s-13.74-20.02,35.18-40.8c0,0-5.74,39.26-35.18,40.8Z"/>
        <path class="cls-6" d="M372.15,199.96s-13.74-20.02,35.18-40.8c0,0-5.74,39.26-35.18,40.8Z"/>
        <path class="cls-6" d="M749.92,526.33s-13.74-20.02,35.18-40.8c0,0-5.74,39.26-35.18,40.8Z"/>
        <path class="cls-6" d="M581.13,559.32s-13.74-20.02,35.18-40.8c0,0-5.74,39.26-35.18,40.8Z"/>
        <path class="cls-6" d="M130.88,308.35s-13.74-20.02,35.18-40.8c0,0-5.74,39.26-35.18,40.8Z"/>
        <path class="cls-2" d="M413.96,340.59s-13.74-20.02,35.18-40.8c0,0-5.74,39.26-35.18,40.8Z"/>
        <path class="cls-2" d="M391.02,478.19s-13.74-20.02,35.18-40.8c0,0-5.74,39.26-35.18,40.8Z"/>
        <path class="cls-2" d="M314.77,476.78s-20.15,13.54-40.44-35.58c0,0,39.2,6.14,40.44,35.58Z"/>
        <path class="cls-2" d="M305.81,397.73s-20.15,13.54-40.44-35.58c0,0,39.2,6.14,40.44,35.58Z"/>
        <path class="cls-2" d="M534.09,615.35s-20.15,13.54-40.44-35.58c0,0,39.2,6.14,40.44,35.58Z"/>
        <path class="cls-2" d="M513.47,292.12s-20.15,13.54-40.44-35.58c0,0,39.2,6.14,40.44,35.58Z"/>
        <path class="cls-2" d="M513.13,35.58s-20.15,13.54-40.44-35.58c0,0,39.2,6.14,40.44,35.58Z"/>
        <path class="cls-2" d="M119.93,150.11s-20.15,13.54-40.44-35.58c0,0,39.2,6.14,40.44,35.58Z"/>
        <path class="cls-3" d="M348.05,268.32c-.15-.39-.3-.78-.45-1.17-10.33,19.83-4.84,43.72-1.8,65.87,5.25,38.23,2.39,77.03,1.37,115.6-1.45,55.02,2,117.42,39.05,161.54,21.1,25.13,51.09,41.17,81.71,52.96,30.62,11.79,62.58,19.95,92.81,32.73.09-12.38-10.46-22.18-21.2-28.35-36.71-21.08-80.85-21.01-115.63-46.58-64.12-47.15-71.35-138.56-74.81-211.96-1.16-24.68-.81-49.41,1.06-74.04,1.67-21.98,5.86-45.36-2.11-66.6Z"/>
      </g>
    </g>
  </g>
</svg>