<?xml version="1.0" encoding="UTF-8"?>
<svg xmlns="http://www.w3.org/2000/svg" viewBox="0 0 735.55 1069.58">
  <defs>
    <style>
      .cls-1 {
        fill: #532f13;
      }

      .cls-2 {
        fill: #7b4c2d;
        opacity: .68;
      }

      .cls-3 {
        fill: #68b43b;
      }

      .cls-4 {
        fill: #4b7a2e;
      }

      .cls-5 {
        fill: #5a9532;
      }

      .cls-6 {
        fill: #559833;
      }

      .cls-7 {
        fill: #69b439;
      }
    </style>
  </defs>
  <g>
    <g>
      <g>
        <path class="cls-5" d="M436.4,729.38c37.46,16.26,80.37.63,118.12-14.94,53.55-22.09,79.07-94.47,51.22-145.27,12.1,12.83,33.43,4.46,48.38-4.91,29.26-18.33,59-39.54,73.41-70.92,20.72-45.13-.32-104.88-44.73-127.07,14.06-31.92,12.53-70.28-4.02-100.98-16.55-30.7-47.76-53.06-82.15-58.86,7.32-32.19-3.45-67.88-27.36-90.64s-60.08-31.77-91.87-22.87c2.97-13.95-8.1-26.73-18.98-35.95-46.52-39.41-110.39-62.88-169.43-47.65-59.04,15.24-106.68,76.87-93.63,136.42-3.27-14.78-35.3-10.64-45.15-8.42-33.89,7.62-60.42,33.54-76.19,63.59-8.16,15.55-13.76,32.55-16.24,49.94-.65,4.59-4.22,44.83,2.36,45.12-20.02-.87-37.02,15.23-46.59,32.84-14.9,27.42-17.69,61.15-7.49,90.65,10.2,29.5,33.23,54.3,61.89,66.66-18.04,16.89-28.74,39.98-38.94,62.49-12.74,28.11-25.64,59.48-16.41,88.93,8.91,28.44,37.13,47.4,66.25,53.79,26.55,5.82,52.44,1.99,79.07-.28,31.39-2.69,24.97,7.03,40.53,30.97,25.11,38.62,74.16,62.03,119.41,62.74,45.13.71,90.12-20.31,118.54-55.37Z"/>
        <ellipse class="cls-4" cx="591.27" cy="485.85" rx="93.52" ry="69.99"/>
        <ellipse class="cls-4" cx="560.81" cy="338.63" rx="93.52" ry="69.99"/>
        <ellipse class="cls-4" cx="328.59" cy="149.86" rx="131.96" ry="98.75" transform="translate(-25.62 79.38) rotate(-13.26)"/>
        <ellipse class="cls-4" cx="153.22" cy="441.42" rx="112.41" ry="84.12" transform="translate(-66.66 29.13) rotate(-8.93)"/>
        <ellipse class="cls-4" cx="168.02" cy="612.27" rx="122.2" ry="90.55" transform="translate(-135.98 54.88) rotate(-13.26)"/>
        <ellipse class="cls-4" cx="410.93" cy="242.57" rx="164.57" ry="92.09" transform="translate(-58.44 156.55) rotate(-20.17)"/>
        <ellipse class="cls-3" cx="598.63" cy="468.39" rx="93.52" ry="69.99"/>
        <ellipse class="cls-3" cx="573.1" cy="323.37" rx="93.52" ry="69.99"/>
        <ellipse class="cls-3" cx="332.2" cy="122.34" rx="131.96" ry="98.75" transform="translate(-19.21 79.48) rotate(-13.26)"/>
        <ellipse class="cls-3" cx="156.83" cy="413.91" rx="112.41" ry="84.12" transform="translate(-62.34 29.36) rotate(-8.93)"/>
        <ellipse class="cls-3" cx="171.64" cy="584.76" rx="122.2" ry="90.55" transform="translate(-129.58 54.97) rotate(-13.26)"/>
        <ellipse class="cls-3" cx="410.93" cy="220.93" rx="164.57" ry="92.09" transform="translate(-50.98 155.22) rotate(-20.17)"/>
        <ellipse class="cls-4" cx="171.64" cy="268.64" rx="104.13" ry="77.92" transform="translate(-39.62 29.9) rotate(-8.93)"/>
        <ellipse class="cls-3" cx="176.56" cy="249.46" rx="112.41" ry="84.12" transform="translate(-36.58 30.43) rotate(-8.93)"/>
      </g>
      <g>
        <path class="cls-1" d="M311.59,323.37h22.47s123.57,253.28,123.57,409.53c0,53.83-3.67,107.58-9.02,161.12-2.76,27.6-5.97,55.15-9.34,82.68-1.64,13.36-3.31,26.71-5,40.06-2.12,16.78-3.83,35.53-20.03,44.82-13.7,7.85-32.47,9.05-47.85,7.29-9.99-1.14-42.38-5-45.45-16.79-3-11.5,3.54-29.65,5.71-41.03,11.01-57.47,30.59-112.91,50.31-167.86,13.22-36.82,13.8-81.96,14.62-120.81,1.34-63.88-8.07-126.88-18.53-189.7-11.84-71.06-30.7-141.61-60.53-207.33-.3-.67-.61-1.33-.91-2Z"/>
        <path class="cls-1" d="M440.98,613.78s60.57-41.22,104.48-192.36l15.32-5.11s4.8,120.39-109.94,245.04l-9.86-47.57Z"/>
        <path class="cls-1" d="M192.1,459.2s83.19,55.17,174.36,37.8l7.59,41.83s-122.71,18.41-199.31-64.31l17.36-15.32Z"/>
        <path class="cls-2" d="M416.56,667.02c-4.04,90-29.36,177.39-40.63,266.65-1.74,14.91-2.69,30.1-1,45,.92,8.18,2.95,16.15,6.27,21.57,12.04,18.87,27.39-.68,32.57-15.5,13.63-36.41,7.49-76.19,7.93-114.18.12-12.81,1.06-25.61,3-38.27,4.46-29.38,13.87-58.08,15.86-87.84,2.6-33.6-3.51-67.24-13.31-99.3-2.29-7.53-4.96-15.53-7.15-21.59-2.44-6.74-4.2-10.84-4.97-10.87-.19-.02-.33.18-.42.61-.32,9.88,1.73,19.64,1.95,32.96.21,6.85.15,13.7-.1,20.55v.21Z"/>
        <path class="cls-2" d="M510.83,559.22c-11.98,15.69-27.47,28.25-40.66,42.9-2.18,2.46-4.25,5.08-5.81,7.97-.86,1.59-1.49,3.28-1.57,4.67-.19,4.9,5.01,3.3,7.8,1.28,7.01-4.85,10.88-12.77,15.71-19.56,1.62-2.29,3.39-4.48,5.33-6.51,4.48-4.73,9.76-8.72,13.84-13.82,4.67-5.72,7.78-12.54,10.03-19.53.53-1.64,1.05-3.42,1.41-4.78.4-1.52.6-2.48.47-2.58-.03-.03-.08,0-.15.06-1.29,1.74-2.15,3.75-3.77,6.18-.82,1.26-1.69,2.48-2.59,3.69l-.03.04Z"/>
        <path class="cls-2" d="M275.8,512.16c19.73.84,38.89,6.34,58.46,8.76,3.27.37,6.6.57,9.86.19,1.79-.21,3.54-.65,4.72-1.38,4.13-2.65-.16-6-3.41-7.13-7.99-2.97-16.7-1.6-25.03-1.68-2.81-.02-5.61-.22-8.39-.64-6.44-.96-12.74-3.01-19.26-3.43-7.36-.55-14.73.8-21.76,2.97-1.65.51-3.4,1.1-4.73,1.58-1.48.54-2.37.93-2.38,1.09,0,.04.04.07.13.09,2.16.06,4.3-.39,7.22-.44,1.5-.05,3-.04,4.5.01h.05Z"/>
      </g>
      <path class="cls-6" d="M545.47,379.2s-22.88,8.12-30.36-44.5c0,0,36.46,15.66,30.36,44.5Z"/>
      <path class="cls-6" d="M571.34,357.12s-13.74-20.02,35.18-40.8c0,0-5.74,39.26-35.18,40.8Z"/>
      <path class="cls-6" d="M279.95,289.04s-13.74-20.02,35.18-40.8c0,0-5.74,39.26-35.18,40.8Z"/>
      <path class="cls-6" d="M552.86,488.79s-13.74-20.02,35.18-40.8c0,0-5.74,39.26-35.18,40.8Z"/>
      <path class="cls-6" d="M335.2,149.23s-22.88,8.12-30.36-44.5c0,0,36.46,15.66,30.36,44.5Z"/>
      <path class="cls-6" d="M361.07,127.15s-13.74-20.02,35.18-40.8c0,0-5.74,39.26-35.18,40.8Z"/>
      <path class="cls-6" d="M161.21,490.41s-22.88,8.12-30.36-44.5c0,0,36.46,15.66,30.36,44.5Z"/>
      <path class="cls-6" d="M187.08,468.33s-13.74-20.02,35.18-40.8c0,0-5.74,39.26-35.18,40.8Z"/>
      <path class="cls-7" d="M409.82,440.44s-19.12-14.96,21.3-49.48c0,0,6.32,39.17-21.3,49.48Z"/>
      <path class="cls-7" d="M442.32,450.45s9.53-22.33,53.29,7.83c0,0-36.22,16.2-53.29-7.83Z"/>
      <path class="cls-7" d="M287.95,674.5s-19.12-14.96,21.3-49.48c0,0,6.32,39.17-21.3,49.48Z"/>
      <path class="cls-7" d="M320.46,684.51s9.53-22.33,53.29,7.83c0,0-36.22,16.2-53.29-7.83Z"/>
      <path class="cls-7" d="M489.99,49.48s-19.12-14.96,21.3-49.48c0,0,6.32,39.17-21.3,49.48Z"/>
      <path class="cls-7" d="M522.5,59.48s9.53-22.33,53.29,7.83c0,0-36.22,16.2-53.29-7.83Z"/>
      <path class="cls-7" d="M155.1,115.91s-11.82,21.21-52.18-13.36c0,0,37.72-12.32,52.18,13.36Z"/>
      <path class="cls-7" d="M159.94,82.24s-23.54-5.95-.53-53.86c0,0,21.62,33.27.53,53.86Z"/>
    </g>
  </g>
</svg>