<?xml version="1.0" encoding="UTF-8"?>
<svg xmlns="http://www.w3.org/2000/svg" viewBox="0 0 456.8 630.99">
  <defs>
    <style>
      .cls-1 {
        fill: #fef1e8;
      }

      .cls-2 {
        fill: #b76927;
      }

      .cls-3 {
        fill: none;
        stroke: #20130b;
        stroke-linecap: round;
        stroke-linejoin: bevel;
        stroke-width: 4px;
      }

      .cls-4 {
        fill: #d68944;
      }

      .cls-5 {
        fill: #ef9e5e;
      }

      .cls-6 {
        fill: #f6aa70;
      }

      .cls-7 {
        fill: #f8e4d3;
      }

      .cls-8 {
        fill: #eacebb;
      }

      .cls-9 {
        fill: #6a2810;
      }

      .cls-10 {
        fill: #9f551d;
      }
    </style>
  </defs>
  <g>
    <g>
      <path class="cls-9" d="M421.74,586.17c-23.5,18.95-89.83,46.62-200.88,44.73-111.05-1.9-156.53-25.02-189.13-48.52-28.69-20.69-15.38-45.48-11.79-51.12,2.06,8.47,9.24,22.66,33.06,37.46,37.79,23.49,119.49,34.73,153.7,34.73s135.83,1.53,205.79-40.09c0,0,20.48-12.8,25.89-31.29,9.82,14.04,6.6,35.36-16.64,54.1Z"/>
      <path class="cls-10" d="M439.04,529.4c-.18.9-.41,1.79-.66,2.67-5.41,18.49-25.89,31.29-25.89,31.29-69.96,41.62-171.58,40.09-205.79,40.09s-115.91-11.24-153.7-34.73c-23.82-14.8-31-28.99-33.06-37.46-1.2-4.98-.64-7.98-.64-7.98-1.63-6.88-3.15-13.85-4.53-20.88,31.5,9.53,63.01,19.06,94.52,28.59,14.28,4.31,28.57,8.64,43.08,12.16,53.66,13.02,112.53,14.46,162.36-8.77,22.18-10.34,42.01-25.36,57.69-43.71,17.78-20.81,30.49-45.64,36.81-71.92,7.87-32.76,5.84-66.86,8.01-100.42,1.16-17.8,3.5-35.53,4.03-53.36.71-23.84-1.84-47.66-4.39-71.39-3.17-29.58-6.34-59.16-9.51-88.74,8.75-5.64,17.07-12.48,23.15-20.99,1.43-2,2.61-3.98,3.56-5.94,45.69,206.9,9.02,431.75,4.96,451.49Z"/>
      <path class="cls-2" d="M421.27,264.97c-.53,17.83-2.87,35.56-4.03,53.36-2.17,33.56-.14,67.66-8.01,100.42-6.32,26.28-19.03,51.11-36.81,71.92-15.68,18.35-35.51,33.37-57.69,43.71-49.83,23.23-108.7,21.79-162.36,8.77-14.51-3.52-28.8-7.85-43.08-12.16-31.51-9.53-63.02-19.06-94.52-28.59-34.52-173.65,1.34-388.13,8.35-424.4,24.26,65.36,205.26,64.26,205.26,64.26,14.18-.28,28.37-.9,42.51-1.96,45.45-3.42,96.13-9.92,135.54-34.86.31-.2.63-.4.94-.6,3.17,29.58,6.34,59.16,9.51,88.74,2.55,23.73,5.1,47.55,4.39,71.39Z"/>
      <path class="cls-4" d="M341.02,339.11c-6.46,29.97-15.89,62.5-41.46,79.43-20.16,13.34-45.89,13.88-70.06,13.97-22.39.08-44.82.16-67.15-1.64-29.83-2.41-59.35-8.17-88.14-16.35-24.89-7.07-49.27-15.95-72.88-26.54C-5.77,245.46,17.62,106.54,23.13,78c24.26,65.36,205.26,64.26,205.26,64.26,14.18-.28,28.37-.9,42.51-1.96,22.43-1.69,46.13-4.13,69.12-9.17,4.72,27.7,8.68,55.53,11.88,83.45,4.77,41.58-2.05,83.61-10.88,124.53Z"/>
      <path class="cls-5" d="M305.66,315.26c-5.79,25.83-14.24,53.86-37.16,68.45-18.07,11.5-41.13,11.96-62.8,12.04-20.07.07-40.17.14-60.19-1.41-26.74-2.08-53.2-7.04-79-14.09-22.31-6.09-44.16-13.74-65.32-22.87C-5.17,234.56,18.18,102.59,23.12,78c45.02,82.38,261.04,62.38,281.64,58.04,4.23,23.87,7.78,47.85,10.65,71.91,4.28,35.83-1.84,72.05-9.75,107.31Z"/>
      <path class="cls-6" d="M125.27,262.44c1.83,24.9,6.44,49.59,13.73,73.47,3.85,12.62,9.59,26.3,21.68,31.6,15.11,6.63,33.19-3.78,41.37-18.12,8.18-14.34,9.29-31.45,11.49-47.81,2.05-15.25,5.21-30.34,9.45-45.13,3.51-12.26,7.79-25.16,4.49-37.47-2.2-8.2-7.57-15.19-13.47-21.29-16.09-16.66-46.32-29.7-66.71-12.35-20.9,17.78-23.87,51.97-22.03,77.1Z"/>
      <g>
        <g>
          <path class="cls-9" d="M20.04,73.09S29.23-7.59,265.15.58c29.13,1.82,58.56,6.86,86.68,14.52,20.24,5.51,40.74,12.65,58.31,24.34,20.28,13.49,37.05,34.64,20.38,57.96-6.3,8.81-15,15.85-24.09,21.6-39.41,24.94-90.09,31.43-135.54,34.85-14.15,1.07-28.33,1.68-42.52,1.96,0,0-211.4,0-208.34-82.72Z"/>
          <path class="cls-8" d="M69.1,67.99S75.97,4.49,252.37,10.92c21.78,1.43,43.78,5.4,64.81,11.43,15.13,4.34,30.46,9.96,43.6,19.16,15.16,10.62,27.7,27.27,15.24,45.62-4.71,6.94-11.22,12.47-18.01,17-29.47,19.63-67.36,24.74-101.34,27.43-10.58.84-21.18,1.32-31.79,1.54,0,0-158.07,0-155.78-65.11Z"/>
        </g>
        <path class="cls-7" d="M363.39,43.14c-.17,1.37-.41,2.74-.73,4.1-2.68,11.5-15.06,17.66-26.38,21.02-26.85,7.98-55.73,8.99-83.08,2.92-4.43-.98-9.04-.7-13.58-.41-26.87,1.73-53.74,3.46-80.62,5.18-13.72.88-27.75,1.74-41.01-1.93-13.26-3.66-25.84-12.75-29.9-25.89-.6-1.96-1.04-3.9-1.3-5.84C107.75,25.44,153.35,7.02,252.36,10.63c21.77,1.43,43.78,5.39,64.81,11.42,15.13,4.34,30.46,9.96,43.6,19.16.89.62,1.76,1.26,2.62,1.93Z"/>
        <path class="cls-1" d="M191.09,20.46c3.89.06,7.76.54,11.21,1.4,4.64,1.16,8.93,3.91,13.63,4.76,4.99.89,10.04-1,15.01.09,13.05,2.87,12.44,23.16-.83,25.22-4.73.73-9.42-1.35-14.19-1.75-11.49-.96-20.46,8.42-31.91,7.42-21.64-1.89-29.11-28.98-5.73-35.6,3.91-1.1,8.37-1.59,12.81-1.53Z"/>
      </g>
      <path class="cls-3" d="M53,568.72l52.76-427.07,55.17,458.13,62.45-443.97,44.58,447.06s85.04-419.92,74.23-458.66l49.92,429.72"/>
    </g>
  </g>
</svg>