<?xml version="1.0" encoding="UTF-8"?>
<svg id="Capa_2" data-name="Capa 2" xmlns="http://www.w3.org/2000/svg" viewBox="0 0 1094.2 1389.53">
  <defs>
    <style>
      .cls-1 {
        fill: #e9d39f;
      }

      .cls-2 {
        fill: #b24027;
      }

      .cls-3 {
        fill: #6c4271;
      }

      .cls-4 {
        fill: none;
        stroke: #e2b2b8;
        stroke-linecap: round;
        stroke-miterlimit: 10;
        stroke-width: 24.34px;
      }

      .cls-5 {
        fill: #28807a;
      }

      .cls-6 {
        fill: #d4db52;
      }

      .cls-7 {
        fill: #acc72a;
      }

      .cls-8 {
        fill: #813e65;
      }

      .cls-9 {
        fill: #ce984e;
        opacity: .5;
      }

      .cls-10 {
        fill: #8dd1e5;
      }

      .cls-11 {
        opacity: .49;
      }

      .cls-11, .cls-12 {
        fill: #c16297;
      }

      .cls-13 {
        fill: #035aa1;
      }

      .cls-14 {
        fill: #fff;
        opacity: .27;
      }

      .cls-15 {
        fill: #69c5d5;
      }

      .cls-16 {
        fill: #89b925;
      }

      .cls-17 {
        fill: #6b224b;
      }
    </style>
  </defs>
  <g id="Capa_1-2" data-name="Capa 1">
    <g>
      <path class="cls-16" d="M55.35,1159.94s-110.77,46.95-18.91,102.17c91.86,55.23,249.27,183.98,745.68,99.41,16.21-2.76,280.98-60.75,280.98-132.55l-62.14-30.38-945.61-38.66Z"/>
      <g>
        <path class="cls-1" d="M923.89,901.73c-65.03,221.62-31.83,319.28-31.83,319.28H215.67l-.16-22.09c2.85-65.72-31.99-180.22-66.29-275.44-31.99-88.82-63.5-160.87-63.5-160.87l104.94-339.67,100.83-156.65,53.81-83.59,131.49-53.39,52.01-21.12.14-.05.08.05,171.04,101.79,111.93,66.61,17.14,52.02,143.03,434c-20.2,50.92-35.99,97.23-48.27,139.12Z"/>
        <path class="cls-9" d="M972.15,762.61c-20.2,50.92-35.99,97.23-48.27,139.12-16.66-9.75-28.35-26.23-32.22-45.21-11.18-54.97-43.57-188.48-113.08-306.16-52.47-88.82-126.11-168.63-227.75-198.79-12.76-3.8-26.36-3.73-39.1.14-72.37,22.02-318.62,125.45-330.11,515.62-.68,23.16-12.95,44.3-32.41,56.16-31.99-88.82-63.5-160.87-63.5-160.87l104.94-339.67,100.83-156.65c51.4-46.52,112.59-92.54,185.3-136.98,6.34-3.88,12.78-7.75,19.31-11.6,10.11-5.98,21.37-9.15,32.7-9.52.07,0,.14-.01.22,0,12.59-.39,25.27,2.73,36.52,9.36,31.1,18.32,79.93,49.36,134.52,92.43,41.47,32.7,86.24,72.34,129.07,118.64l143.03,434Z"/>
        <path class="cls-3" d="M1029.22,742.42c-4.18,46.93-53.84,75.63-96.54,55.71-2.24-1.04-4.52-2.19-6.83-3.43-17.7-9.59-30.16-26.59-34.18-46.32-11.18-54.97-43.57-188.48-113.08-306.16-52.47-88.82-126.11-168.63-227.75-198.79-12.76-3.8-26.36-3.73-39.1.14-72.37,22.02-318.62,125.45-330.11,515.62-.76,25.94-16.07,49.35-39.72,60.06-5.54,2.51-11.6,4.85-18.1,6.81-27.19,8.19-54.94-1.6-71.72-21.7-7.9-9.45-13.37-21.19-15.22-34.41C18.04,635.74,23.46,288.73,496.1,9.56c21.43-12.65,48.01-12.79,69.44-.16,119.27,70.3,499.83,327.79,463.69,733.02Z"/>
        <path class="cls-8" d="M500.51,437.6s.01.01.01.03c-.07-.01-.08-.03-.01-.03Z"/>
        <path class="cls-8" d="M778.59,442.22c-52.47-88.82-126.11-168.63-227.75-198.79-12.76-3.8-26.36-3.73-39.1.14-72.37,22.02-318.62,125.45-330.11,515.62-.76,25.94-16.07,49.35-39.72,60.06-5.54,2.51-11.6,4.85-18.1,6.81-27.19,8.19-54.94-1.6-71.72-21.7,15.22-8.38,36.23-25.58,52.15-45.03,22.31-27.24,25.58-68.19,29.95-101.76,5.88-45.25,9.08-91.23,24.81-134.49,15.52-42.72,39.99-81.63,65.13-119.26,33.07-49.48,73.01-94.44,118.26-133.1,37.68-32.2,81.86-67.88,130.9-79.1,51.27-11.74,99.36,7.75,139.62,38.99,64.38,49.97,128.67,110.54,160.01,187.68.55,1.35,2.95,11.38,5.71,23.96Z"/>
        <path class="cls-12" d="M677.01,123.45l-18.6,76.62h-6.57s-78.81-68.95-145.58-65.67c-37.56,1.84-74.41,27.81-104.12,48.55-123.11,85.96-205.53,220.18-248.01,362.41-.76,2.56-1.51,5.11-2.24,7.67-12.75,44.34-17.74,88.91-21.83,135.63-2.61,29.83-20.31,59.6-35.75,78.31-5.21,6.32-29.57,37.19-42.23,37.38C.08,757.65-23.74,311.33,494.48,9.56c21.5-12.52,48.01-12.79,69.44-.16,4.26,2.51,8.86,5.26,13.75,8.25,39.29,36.54,90.16,86.12,99.34,105.81Z"/>
        <path class="cls-4" d="M506.71,17.17C287.91,149.97,128.61,377.08,78.24,628.02"/>
        <polygon class="cls-2" points="957.66 804.23 941.63 845.77 283.31 827.07 957.66 804.23"/>
        <g>
          <ellipse class="cls-13" cx="528.93" cy="558.54" rx="126.58" ry="120.94"/>
          <ellipse class="cls-10" cx="528.93" cy="558.54" rx="107.52" ry="102.73"/>
        </g>
        <polygon class="cls-13" points="531.57 548.89 512.11 450.51 547.32 450.51 531.57 548.89"/>
        <polygon class="cls-13" points="531.57 547.93 631.93 506.82 639.21 541.27 531.57 547.93"/>
        <polygon class="cls-13" points="532.95 547.93 647.11 579.91 632.19 611.79 532.95 547.93"/>
        <polygon class="cls-13" points="530.89 547.17 426.84 505.28 419.55 539.73 530.89 547.17"/>
        <polygon class="cls-13" points="529.5 547.17 415.34 579.14 430.27 611.03 529.5 547.17"/>
        <polygon class="cls-13" points="531.1 542.79 550.56 669.01 515.35 669.01 531.1 542.79"/>
        <path class="cls-15" d="M423.17,539.97s-1.84,16.2-1.76,20.08c.08,3.88,108.09-12.88,108.09-12.88l-106.33-7.2Z"/>
        <path class="cls-15" d="M578.94,649.51s15.45-8.23,18.1-11.46c2.46-3-65.47-90.88-65.47-90.88l47.37,102.34Z"/>
        <path class="cls-17" d="M397.81,1221.01c1.31-41.23,3.96-86.74,4.99-127.88,1.23-49.04-2.86-102.01,18.06-147.58,17.66-38.48,53.2-69.59,93.92-81.41,38.45-11.16,78.36.84,107.07,28.01,58.51,55.4,46.24,141.78,46.24,214.74,0,7.25-.27,114.12,0,114.12,0,0-270.28,0-270.28,0Z"/>
        <path class="cls-11" d="M456.66,950.14c11.05-21.84,28.85-42.15,52.67-47.77,3.71-.88,7.5-1.38,11.29-1.75,14.45-1.4,29.72-.71,42.43,6.31,12.71,7.02,22.03,21.71,19.08,35.93v.05c-.54,2.52-2.69,4.4-5.26,4.56-24.46,1.55-48.88-6.52-73.14-3.45-24.42,3.09-33.44,17.57-48.57,38.93-3.79,5.36-12.15,1.04-9.94-5.15,3.36-9.4,6.9-18.73,11.43-27.67Z"/>
        <path class="cls-11" d="M631.18,1028.79c-.5,34.24.9,68.51,4.18,102.6,1.43,14.82,3.21,29.74,1.69,44.56-1.03,10.1-4.78,21.45-14.22,25.17-1.52.6-3.13.97-4.74,1.29-41.58,8.3-83.08-11.86-125.21-16.64-1.64-.19-3.4-.39-4.66-1.47-3.68-3.13.43-9.05,4.73-11.25,23.77-12.16,53.05,3.13,79.07-2.84,22.11-5.08,38.34-25.26,44.77-47.01,6.43-21.76,4.71-45.02,2.02-67.55-1.44-12.11-3.16-24.21-3.96-36.39-.41-6.13-3.86-30.96,1.65-35.06,4.95-3.69,10.75,6.18,12.41,9.83,4.66,10.26,2.43,23.82,2.27,34.78Z"/>
      </g>
      <path class="cls-5" d="M277.38,1149.6c-13.65-3.9-28.41-3.89-42.08-.07-4.64,1.3-8.66-3.5-6.51-7.81,3.77-7.56,6.76-15.43,7.5-23.8,1.04-11.68-3.58-24.63-13.2-30.76-2.3-1.47-5.33-1.06-7.16.97h0c-3.5,3.88-9.87,1.25-9.71-3.97.87-27.44-11.35-55.3-32.53-72.82-9.24-7.64-23.18-4.5-28.21,6.39-13.26,28.69-13.8,63.19-.82,92.08-8.08-14.64-10.92-31.84-19.89-45.94-8.98-14.1-28.38-24.36-42.36-15.19-12.21,8.01-13.04,25.58-10.32,39.93,2.53,13.39,7.01,26.39,13.2,38.53,2.74,5.37-3.8,10.66-8.48,6.85-8.19-6.67-16.71-11.35-26.9-9.28l-15.17,3.08c-2.28.46-4.05,2.29-4.41,4.59-3.68,23.91,5.31,39.25,14.7,54.31.62.99,1.54,1.77,2.62,2.21,18.59,7.65,36,14.38,51.86,20.51,30.84,11.92,70.55,34.85,104.82,27.16,34.23-7.68,62.93-47.83,76.64-79.31,1.36-3.12-.32-6.71-3.59-7.64Z"/>
      <path class="cls-16" d="M236.2,1172.25c-9.04-2.58-18.81-2.57-27.87-.05-3.08.86-5.74-2.32-4.31-5.17,2.5-5.01,4.48-10.22,4.97-15.76.69-7.73-2.37-16.31-8.74-20.37-1.52-.97-3.53-.7-4.74.64h0c-2.32,2.57-6.54.83-6.43-2.63.58-18.17-7.52-36.63-21.54-48.23-6.12-5.06-15.35-2.98-18.69,4.23-8.78,19-9.14,41.85-.54,60.98-5.35-9.69-7.23-21.09-13.17-30.43-5.94-9.34-18.8-16.13-28.05-10.06-8.09,5.3-8.63,16.94-6.84,26.45,1.68,8.87,4.64,17.48,8.74,25.52,1.81,3.56-2.52,7.06-5.61,4.54-5.42-4.41-11.06-7.52-17.82-6.15l-10.05,2.04c-1.51.31-2.68,1.52-2.92,3.04-2.44,15.84,3.51,25.99,9.74,35.97.41.66,1.02,1.17,1.74,1.46,12.31,5.07,23.84,9.53,34.34,13.58,20.43,7.9,46.72,23.08,69.42,17.99s41.68-31.68,50.76-52.53c.9-2.06-.21-4.44-2.38-5.06Z"/>
      <path class="cls-6" d="M201.07,1192.41c-4.41-1.26-9.18-1.26-13.6-.02-1.5.42-2.8-1.13-2.1-2.52,1.22-2.44,2.18-4.99,2.42-7.69.34-3.77-1.16-7.96-4.26-9.94-.74-.47-1.72-.34-2.31.31h0c-1.13,1.25-3.19.4-3.14-1.28.28-8.87-3.67-17.87-10.51-23.53-2.99-2.47-7.49-1.45-9.12,2.07-4.29,9.27-4.46,20.42-.26,29.75-2.61-4.73-3.53-10.29-6.43-14.85-2.9-4.56-9.17-7.87-13.69-4.91-3.95,2.59-4.21,8.27-3.34,12.9.82,4.33,2.27,8.53,4.27,12.45.88,1.73-1.23,3.44-2.74,2.21-2.65-2.15-5.4-3.67-8.69-3l-4.9.99c-.74.15-1.31.74-1.42,1.48-1.19,7.73,1.71,12.68,4.75,17.55.2.32.5.57.85.71,6.01,2.47,11.63,4.65,16.76,6.63,9.97,3.85,22.8,11.26,33.87,8.78,11.06-2.48,20.33-15.46,24.77-25.63.44-1.01-.1-2.17-1.16-2.47Z"/>
      <path class="cls-5" d="M855.8,1121.38c14.17.95,28.05,5.96,39.63,14.19,3.93,2.79,9.33-.35,8.77-5.14-.99-8.4-1.13-16.81,1-24.94,2.97-11.34,11.71-21.96,22.84-24.47,2.66-.6,5.37.81,6.41,3.33h0c1.98,4.84,8.87,4.51,10.48-.46,8.47-26.11,29.41-48.18,55.26-57.49,11.28-4.06,23.33,3.62,24.38,15.57,2.76,31.49-8.42,64.14-30.41,86.92,12.56-11.04,21.05-26.26,34.28-36.49,13.22-10.23,34.95-13.31,45,.05,8.78,11.67,3.6,28.49-3.81,41.07-6.92,11.74-15.54,22.47-25.48,31.79-4.39,4.12-.03,11.31,5.65,9.31,9.96-3.5,19.57-5.03,28.47.37l13.24,8.03c1.99,1.2,3.04,3.52,2.59,5.8-4.64,23.74-18.28,35.14-32.23,46.12-.92.72-2.05,1.14-3.21,1.19-20.08.91-38.75,1.34-55.74,1.74-33.06.77-78.18,8.9-107.83-9.94-29.61-18.82-43.01-66.32-45.25-100.58-.22-3.39,2.57-6.2,5.96-5.97Z"/>
      <path class="cls-7" d="M888.98,1162.98c8.95.6,17.72,3.77,25.04,8.96,2.48,1.76,5.9-.22,5.54-3.25-.63-5.31-.72-10.62.63-15.76,1.88-7.16,7.4-13.88,14.43-15.46,1.68-.38,3.4.51,4.05,2.11h0c1.25,3.06,5.6,2.85,6.62-.29,5.35-16.5,18.58-30.44,34.92-36.32,7.13-2.57,14.74,2.29,15.4,9.83,1.75,19.89-5.32,40.52-19.21,54.92,7.93-6.97,13.3-16.59,21.66-23.05,8.35-6.46,22.08-8.41,28.43.03,5.55,7.37,2.28,18-2.41,25.95-4.37,7.42-9.82,14.19-16.1,20.09-2.78,2.6-.02,7.15,3.57,5.88,6.3-2.21,12.37-3.18,17.99.24l8.36,5.08c1.25.76,1.92,2.23,1.64,3.67-2.93,15-11.55,22.2-20.36,29.14-.58.46-1.29.72-2.03.75-12.69.57-24.48.85-35.22,1.1-20.89.49-49.4,5.62-68.13-6.28-18.71-11.89-27.18-41.9-28.59-63.55-.14-2.14,1.63-3.92,3.77-3.77Z"/>
      <path class="cls-6" d="M798.52,1266.49c.48,1.76.62,3.61.33,5.46-1.4,8.83-11.03,13.46-19.43,16.5-145.85,52.85-302.69,73.65-453.86,30.63-15.35-4.37-31.82-10.01-43.5-21.4-7.46-7.27-25.3-30.04-9.7-37.85,3.72-1.87,8.06-1.89,12.22-1.88,82.62.2,165.22-3.08,247.79-3.08,44.31-1.55,88.59-3.96,132.92-4.89,21.6-.46,43.21-.59,64.81-.08,16.96.39,42.66-2.7,58.36,5.04,4.7,2.32,8.72,6.64,10.06,11.56Z"/>
      <path class="cls-14" d="M706.5,1276.33c.32,1.17.41,2.4.22,3.63-.93,5.88-7.34,8.96-12.93,10.98-97.07,35.18-201.46,49.02-302.08,20.38-10.22-2.91-21.18-6.66-28.95-14.24-4.96-4.84-16.84-19.99-6.46-25.19,2.48-1.24,5.36-1.26,8.13-1.25,54.99.13,109.97-2.05,164.92-2.05,29.49-1.03,58.96-2.63,88.47-3.25,14.38-.3,28.76-.39,43.13-.06,11.29.26,28.4-1.8,38.84,3.35,3.13,1.54,5.8,4.42,6.7,7.7Z"/>
      <path class="cls-6" d="M909.45,1184.3c4.43,1.21,8.5,3.68,11.64,7.03,1.07,1.14,2.98.48,3.11-1.07.22-2.72.72-5.4,1.91-7.83,1.67-3.4,5.11-6.21,8.8-6.29.88-.02,1.65.6,1.82,1.47h0c.32,1.66,2.52,2,3.35.53,4.35-7.73,12.4-13.38,21.18-14.68,3.83-.56,7.16,2.64,6.73,6.49-1.14,10.15-6.77,19.78-15.19,25.58,4.68-2.69,8.35-6.97,13.19-9.37,4.84-2.39,11.92-1.98,14.25,2.89,2.03,4.26-.68,9.25-3.83,12.77-2.94,3.28-6.36,6.12-10.1,8.44-1.66,1.03-.73,3.58,1.2,3.31,3.38-.47,6.52-.34,8.99,1.94l3.68,3.39c.55.51.74,1.31.45,2.01-2.99,7.22-8.04,9.96-13.16,12.55-.34.17-.72.23-1.09.17-6.42-1-12.36-2.05-17.77-3.01-10.52-1.87-25.33-2.18-33.52-10.05-8.17-7.85-9.38-23.76-7.9-34.75.15-1.09,1.21-1.8,2.27-1.51Z"/>
    </g>
  </g>
</svg>