<?xml version="1.0" encoding="UTF-8"?>
<svg id="Capa_2" data-name="Capa 2" xmlns="http://www.w3.org/2000/svg" viewBox="0 0 783.65 599.85">
  <defs>
    <style>
      .cls-1 {
        stroke-width: 18px;
      }

      .cls-1, .cls-2 {
        fill: none;
        stroke: #a4322f;
      }

      .cls-1, .cls-2, .cls-3 {
        stroke-linecap: round;
        stroke-miterlimit: 10;
      }

      .cls-2 {
        opacity: .9;
        stroke-width: 16.58px;
      }

      .cls-4 {
        fill: #a4322f;
      }

      .cls-5 {
        opacity: .73;
      }

      .cls-5, .cls-6 {
        fill: #d44a40;
      }

      .cls-3 {
        fill: #f5e9e9;
        opacity: .23;
        stroke: #f5e9e9;
      }
    </style>
  </defs>
  <g id="Capa_1-2" data-name="Capa 1">
    <g>
      <path class="cls-1" d="M136.95,335.34c3.03-16.62,3.89-33.64,2.55-50.48"/>
      <path class="cls-1" d="M175.6,370.51c10.36-14.01,16.01-31.44,15.82-48.86"/>
      <path class="cls-1" d="M221.99,410.61c7.37-15.11,9.54-32.71,6.04-49.16"/>
      <path class="cls-1" d="M264.11,465.33c9.84-17.05,15.18-36.68,15.34-56.36"/>
      <path class="cls-1" d="M303.91,520.76c-.88-19.96,5.68-40.16,18.11-55.8"/>
      <path class="cls-1" d="M340.61,586.76c-2.67-19.21,3.11-39.44,15.54-54.32"/>
      <path class="cls-1" d="M452.59,579.99c-9.62-17.9-21.43-34.62-35.09-49.67"/>
      <path class="cls-1" d="M484.19,518.67c-5.99-19.82-14.36-38.93-24.87-56.77"/>
      <path class="cls-1" d="M524.19,466.81c-10.37-17.4-16.01-37.58-16.18-57.84"/>
      <path class="cls-1" d="M564.91,408.99c-13.22-10.99-20.33-28.9-18.26-45.96"/>
      <path class="cls-1" d="M610.66,366.4c-12.21-8.28-18.62-24.29-15.49-38.71"/>
      <path class="cls-1" d="M646.7,338.17c-6.81-12.03-8.24-26.97-3.86-40.08"/>
      <path class="cls-5" d="M45.24,499.72c.19,9.41.11,18.83-.4,28.24-1.53-9.31-1.34-18.91.4-28.24Z"/>
      <path class="cls-6" d="M779.92,138.77c-1.74,11.53-3.85,23.03-5.86,34.46-10.43,59.39-17.89,119.3-22.34,179.43-4.28,57.69-5.8,115.58-4.54,173.42-3.68-21.58-8.85-43.19-22.74-60.1-4.79-5.83-10.58-10.75-15.59-16.38-14.22-15.98-21.68-37.24-23.33-58.57-1.64-21.32,2.22-42.77,8.51-63.22,1.04-3.38,2.15-6.75,3.48-10.03.15-.37.3-.73.46-1.09-5.55-8.47-9.09-17.56-14.64-26.03-3.08-4.7-5.26-7.92-8.12-12.78l-5.75,2.56c-216.88,89.99-277.64,319.41-277.64,319.41-53.98-219.07-277.68-321.7-277.68-321.7h-5.52c-5.17,14.6-12.98,28.48-21.98,41.43,4.42,9.85,8.49,19.85,12.21,29.99,6.83,18.58,12.49,39.06,6.44,57.91-7.62,23.76-31.38,38.09-45.83,58.44-7.1,10-11.97,21.68-14.22,33.8-.31-15.62-1.37-31.24-2.43-46.83-2.31-34.08-4.86-68.89-7.95-103.72-2.53-28.54-5.44-57.09-8.88-85.29-4.06-33.22-8.87-66.36-14.76-99.31-1.77-9.92-3.9-19.85-5.82-29.8C1.55,114.84-1.48,94.79.76,74.41,6.47,22.36,48.26-5.33,98.37,5.56c94.88,20.63,172.16,73.73,269.31,84.16,107.05,11.5,225.67-56.66,326.29-86.5,45.19-13.4,80.07,16.16,87.83,66.88,3.48,22.77,1.56,45.78-1.88,68.67Z"/>
      <path class="cls-4" d="M35.22,348.62c-.13.17.05.41.25.34,8.46-3.01,16.59-7.91,24-13.47,23.9-17.93,43.56-43.23,56.36-72.54,5.84-13.39,6.43-29.04,5.05-43.93-1.38-14.89-4.6-29.49-5.95-44.39-2.4-26.51,1.17-53.13,5.45-79.41.27-1.68-1.88-2.5-2.87-1.12-.01.02-.03.04-.04.06-1.7,2.27-3.5,4.4-5.41,6.4-2.88,3.02-5.64,8.92-6.18,13.06l-5.13,38.9c-1.37,10.37-2.72,21.01-.33,31.19,2.29,9.77,4.59,19.54,6.88,29.31.95,4.04,1.9,8.11,2.11,12.26.21,4.1-.32,8.2-1.11,12.23-4.23,21.56-15.87,40.97-29.14,58.47-12.24,16.13-40.43,48.03-43.94,52.64Z"/>
      <path class="cls-4" d="M751.46,348.62c.13.17-.05.41-.25.34-8.46-3.01-16.59-7.91-24-13.47-23.9-17.93-43.56-43.23-56.36-72.54-5.84-13.39-6.43-29.04-5.05-43.93,1.38-14.89,4.6-29.49,5.95-44.39,2.4-26.51-1.17-53.13-5.45-79.41-.27-1.68,1.88-2.5,2.87-1.12.01.02.03.04.04.06,1.7,2.27,3.5,4.4,5.41,6.4,2.88,3.02,5.64,8.92,6.18,13.06l5.13,38.9c1.37,10.37,2.72,21.01.33,31.19-2.29,9.77-4.59,19.54-6.88,29.31-.95,4.04-1.9,8.11-2.11,12.26-.21,4.1.32,8.2,1.11,12.23,4.23,21.56,15.87,40.97,29.14,58.47,12.24,16.13,40.43,48.03,43.94,52.64Z"/>
      <path class="cls-4" d="M753.26,258.73c.08.11-.09.21-.23.13-6.05-3.09-11.62-7.1-16.56-11.32-15.93-13.61-27.73-30.26-33.82-47.74-2.78-7.98-1.29-16.18,1.6-23.62,2.89-7.45,7.14-14.41,10.01-21.86,5.1-13.27,5.68-27.68,5.68-42.04,0-.92,1.73-.95,2.32-.06,0,.01.02.03.03.04,1.01,1.48,2.12,2.91,3.32,4.29,1.81,2.08,3.18,5.63,3.08,7.87l-.92,21.04c-.24,5.61-.53,11.35-3.61,16.18-2.95,4.63-5.9,9.27-8.85,13.9-1.22,1.92-2.45,3.85-3.12,5.95-.66,2.08-.77,4.3-.67,6.52.54,11.91,6.98,24.06,14.9,35.52,7.3,10.56,24.76,32.17,26.86,35.19Z"/>
      <path class="cls-4" d="M30.41,258.73c-.08.11.09.21.23.13,6.05-3.09,11.62-7.1,16.56-11.32,15.93-13.61,27.73-30.26,33.82-47.74,2.78-7.98,1.29-16.18-1.6-23.62-2.89-7.45-7.14-14.41-10.01-21.86-5.1-13.27-5.68-27.68-5.68-42.04,0-.92-1.73-.95-2.32-.06,0,.01-.02.03-.03.04-1.01,1.48-2.12,2.91-3.32,4.29-1.81,2.08-3.18,5.63-3.08,7.87l.92,21.04c.24,5.61.53,11.35,3.61,16.18,2.95,4.63,5.9,9.27,8.85,13.9,1.22,1.92,2.45,3.85,3.12,5.95.66,2.08.77,4.3.67,6.52-.54,11.91-6.98,24.06-14.9,35.52-7.3,10.56-24.76,32.17-26.86,35.19Z"/>
      <g>
        <path class="cls-2" d="M195.79,117.97c112.43,47.29,243.73,47.72,356.46,1.16"/>
        <path class="cls-2" d="M605.35,172.82c-66.15,14.15-128.84,44.22-181.27,86.97"/>
        <path class="cls-2" d="M585.5,239.02c-42.39,11.02-79.85,39.86-101.33,78.04"/>
        <path class="cls-2" d="M190.64,182.26c95.25,21.06,180.35,84.31,227.98,169.44"/>
        <path class="cls-2" d="M178.3,267.4c90.08,32.42,167.16,99.56,211.63,184.33"/>
      </g>
      <path class="cls-3" d="M396.24,278.17c.13.2.44.08.4-.16-1.84-11.36,3.31-22.87,9.83-32.45,16.62-24.41,42.13-41.25,68.1-55.3,33.06-17.88,68.14-32.33,104.74-40.82.28-.06.2-.48-.08-.44-39.14,5.33-77.57,15.88-113.94,31.29-28.12,11.91-56.04,27.64-73.3,52.8-.09.13-.28.13-.37,0-7.98-13.06-20.7-22.71-34.46-29.42-13.86-6.76-28.87-10.81-43.76-14.81-22.11-5.94-44.22-11.88-66.33-17.82-.27-.07-.4.32-.14.43,28.14,11.76,55.28,22.27,82.14,37.37,5.22,2.94,10.46,5.88,15.41,9.26,21.98,15.02,37.2,37.78,51.78,60.08Z"/>
      <path class="cls-3" d="M438.64,325.9c23.7-43.67,61.57-79.42,106.28-101.02,1.73-.83.68-3.45-1.14-2.86-32.35,10.5-63.57,25.68-88.32,48.4-7.1,6.52-13.79,13.74-18.09,22.38-4.32,8.67-6.04,18.98-2.96,28.17.56,1.66,1.75,2.99,3.1,4.1.99.82.4,2.15,1.13.82Z"/>
      <path class="cls-3" d="M420.08,411.98c4.56-18.92,14.43-36.52,28.06-50.4,2.16-2.2-.62-5.66-3.21-3.98-10.8,6.96-20.2,16.08-27.42,26.71-1.1,1.62-3.49,1.49-4.42-.23-5.79-10.79-14.04-20.23-23.81-27.62-2.99-2.26-29.8-19.87-30.58-8.93-.2,2.79,13.35,12.5,15.64,14.74,5.54,5.44,10.87,11.1,15.96,16.96,9.16,10.55,17.57,21.76,25.13,33.52,1.22,1.9,4.12,1.42,4.65-.77Z"/>
      <path class="cls-3" d="M183.59,61.84c-27.68-10.94-32.47-14.79-50.39-15.21-20.73-.48-41.51,1.53-61.76,5.99-11.21,2.47-22.46,5.77-32.02,12.12-.46.31-.92.62-1.38.95-5.98,4.25-12.8-4.09-7.57-9.23,4.98-4.89,11.3-8.94,18.36-12.17,21.38-9.77,45.93-11.29,69.08-7.22,23.15,4.08,45.07,13.49,65.69,24.78Z"/>
      <path class="cls-3" d="M610.66,61.84c27.68-10.94,32.47-14.79,50.39-15.21,20.73-.48,41.51,1.53,61.76,5.99,11.21,2.47,22.46,5.77,32.02,12.12.46.31.92.62,1.38.95,5.98,4.25,12.8-4.09,7.57-9.23-4.98-4.89-11.3-8.94-18.36-12.17-21.38-9.77-45.93-11.29-69.08-7.22s-45.07,13.49-65.69,24.78Z"/>
    </g>
  </g>
</svg>