<?xml version="1.0" encoding="UTF-8"?>
<svg id="Capa_2" data-name="Capa 2" xmlns="http://www.w3.org/2000/svg" viewBox="0 0 70.95 70.33">
  <defs>
    <style>
      .cls-1 {
        fill: #532f13;
        stroke: #bb882a;
        stroke-miterlimit: 10;
        stroke-width: .57px;
      }

      .cls-2 {
        fill: #689d2f;
      }

      .cls-3 {
        fill: #c0bcaf;
      }

      .cls-4 {
        fill: #807c70;
      }

      .cls-5 {
        fill: #9fbc2d;
      }

      .cls-6 {
        fill: #615d52;
      }

      .cls-7 {
        fill: #3c3d38;
      }

      .cls-8 {
        fill: #a7ca53;
      }
    </style>
  </defs>
  <g id="Capa_1-2" data-name="Capa 1">
    <g>
      <path class="cls-1" d="M4.89,39.89c-.61-.07-1.25-.14-1.82.07s-1.07.79-.97,1.39c.11.64.78,1.35.31,1.79-.32.3-1.55.12-2.03.36,1.4,2.8,5.35,3.84,8.22,4.22,3.19.42,6.57.47,9.35,2.09.18.1.38.26.35.46-.01.12-.1.22-.18.3-1.03,1.11-1.92,2.35-2.63,3.68-.42.78-.73,1.87-.06,2.45.36.32.88.35,1.36.38,2.93.15,5.84.57,8.69,1.26.52.13.74.81.57,1.32s-.61.88-1.02,1.23c-1.57,1.33-3.24,3.24-2.56,5.18.81-.1,1.44-.71,2.06-1.23,3.76-3.14,9.38-3.85,13.8-1.74.37.18.71.4,1.02.67-1.35.69-2.56,1.65-3.55,2.8-.35.41-.68.88-.72,1.41-.05.78.56,1.48,1.27,1.78s1.53.29,2.31.26c3.95-.17,7.88-.75,11.7-1.72.34-.09.7-.19.92-.46s.22-.75-.1-.9c-2.98-1.4-5.97-3.23-7.46-6.16-.32-.63-.56-1.4-.23-2.03.65-1.24,2.94-1.08,4.14-1.22,2.22-.26,4.69.72,6.9-.07,1.7-.61.66-1.62-.25-2.4-.69-.6-1.07-.64-.19-1.24,1.33-.91,3.24-.11,4.68-.02,2.28.14,4.57.02,6.82-.37,1.32-.23,2.65-.55,3.98-.46-1.78-.34-3.55-.68-5.33-1.01-1.53-.29-3.47-.16-4.75-1.18.6-1.36,5.47-1.8,6.25-.33-.46-.88-1.38-1.5-2.36-1.62l1.08-1.04c-1.6-.74-3.31-1.25-5.06-1.49l.7-.48c-4.69-1.2-9.38-2.39-14.06-3.59-.48-.12-.97-.25-1.34-.57s-.58-.89-.34-1.32c.07-.12.17-.22.27-.32,1.33-1.23,3.2-1.64,4.79-2.51,1.79-.98,3.22-2.59,3.98-4.48.08-.2.15-.4.16-.61.02-.83-.94-1.29-1.73-1.54-2.04-.64-4.61-.77-6.38-2.07.43-1.42,3.77-1.35,4.97-1.51.67-.09.99-.86.55-1.38-2.31-2.73-5.36-3.79-8.79-4.2.12-1.24,2.47-2.11,3.47-2.41.84-.25,4.7-.92,4.1-2.13-.49-.99-3.42-.71-4.32-.9-.5-.11-1.06-.26-1.32-.7-.45-.8.42-1.68,1.2-2.18,1.11-.72,2.22-1.44,3.32-2.16.4-.26.81-.9.38-1.12-.56-.29-.48-1.18-.02-1.61s1.13-.54,1.74-.7,1.27-.45,1.5-1.04c-1.2-.22-2.4-.43-3.6-.65-.69-.12-1.38-.25-2.06-.37-3.03-.54-5.74-2.46-7.41-5.03-.45-.7-1.5-.44-1.54.39-.09,1.55-.36,3.06-.98,4.47-.3.69-.16,1.48.22,2.13.4.69.66,1.48.22,2.1-.36.5-1.03.65-1.64.75-2.33.4-6.11-.83-7.9,1.32.59.62,3.54,1.94,1.35,2.79-1.12.44-2.28.75-3.45,1.04-.76.19-2.26.23-2.78.9-.3.38.19.99-.48,1.37-.55.31-1.23.19-1.83-.02s-1.19-.48-1.81-.47c-.56.01-1.08.26-1.58.51l-2.62,1.27c-.61.29-1.1.77-1.43,1.36l-3.19,5.83c-.15.28-.31.56-.5.81-1.17,1.51-3.43,1.6-5,2.69-2.24,1.55-2.6,4.66-2.74,7.38.3.09.63.06.91-.08.05-.51.1-1.01.15-1.52.49,1.4,1.13,3.33,2.34,4.18Z"/>
      <path class="cls-5" d="M3.69,29.26c-1.15-.86-2.6-1.73-2.35-3.45.17-1.15,1.18-.55,1.69-1.18.12-.15.14-.35.14-.53.03-.76-.55-1.97-.33-2.67.28-.87,2.27-.05,2.72.25-.59-.39.01-2.36.53-2.55.86-.3,2.73.71,3.65.84-.02-1.79-.88-3.31-.22-5.16.23-.65.63-1.23,1.19-1.65,2.01-1.5,4.24.09,4.93,2.01.5,1.4-.11,2.9.31,4.29,1.43-.17,3.16-1.44,4.63-1.9.27-.09.56-.17.84-.11,1.36.27.5,3.28.24,4.09.35-1.09,2.09-1.54,3.08-1.59,2.4-.13,1.38,2.34,1.03,3.92.73-.46,2.18-.16,2.89.23.95.52,1.47,1.47,1.3,2.56-.42,2.74-4.32,3.37-6.46,3.97-3.75,1.03-7.56,2.44-11.49,1.47-1.15-.28-2.36-.76-3.49-.38-.88.3-3.75,3.66-4.62,1.96-.2-.39-.01-.92.39-1.1-1.32-.09-4.51-.11-4.06-2.25.32-1.52,2.35-1.9,3.45-1.06Z"/>
      <path class="cls-2" d="M7.01,34.66c-1.02-.31-2.25-.55-2.51-1.82-.17-.85.69-.68.88-1.25.04-.13,0-.28-.03-.41-.17-.54-.88-1.24-.9-1.78-.03-.68,1.58-.6,1.96-.51-.51-.13-.59-1.65-.27-1.91.53-.43,2.09-.19,2.76-.34-.47-1.25-1.44-2.09-1.45-3.55,0-.51.13-1.02.41-1.45,1.03-1.55,2.98-1.01,3.95.16.7.85.66,2.05,1.3,2.92.96-.48,1.85-1.8,2.76-2.49.17-.13.35-.26.56-.29,1.02-.15,1.17,2.17,1.2,2.8-.03-.85,1.08-1.6,1.75-1.89,1.65-.69,1.56,1.29,1.71,2.48.39-.51,1.48-.66,2.08-.57.79.12,1.4.66,1.56,1.46.4,2.02-2.16,3.44-3.52,4.4-2.36,1.67-4.66,3.61-7.65,3.92-.88.09-1.84.06-2.53.62-.54.43-1.69,3.5-2.73,2.53-.24-.22-.24-.64,0-.87-.95.27-3.18,1.06-3.41-.55-.16-1.14,1.16-1.92,2.15-1.61Z"/>
      <path class="cls-2" d="M55.92,38.82c.02-1.07-.08-2.31,1.06-2.9.77-.4.84.47,1.44.51.14,0,.27-.07.38-.14.47-.31.95-1.18,1.47-1.35.65-.21,1.01,1.35,1.02,1.74-.02-.52,1.43-1.01,1.76-.78.56.39.75,1.95,1.07,2.56,1.07-.79,1.61-1.95,3.01-2.36.49-.14,1.02-.15,1.5,0,1.77.56,1.78,2.59.92,3.84-.63.91-1.79,1.19-2.45,2.04.72.79,2.23,1.28,3.14,1.97.17.13.34.27.43.46.42.93-1.76,1.72-2.36,1.91.81-.26,1.83.6,2.29,1.17,1.11,1.39-.82,1.84-1.91,2.31.59.24,1.04,1.24,1.11,1.84.1.8-.25,1.52-.98,1.89-1.83.93-3.9-1.14-5.18-2.18-2.24-1.81-4.73-3.5-5.85-6.28-.33-.82-.56-1.75-1.28-2.26-.56-.4-3.82-.67-3.17-1.94.15-.29.55-.4.83-.24-.52-.84-1.89-2.76-.4-3.42,1.05-.47,2.16.59,2.13,1.62Z"/>
      <path class="cls-8" d="M54.1,43.15c-.25-.75-.64-1.6.01-2.3.44-.47.71.12,1.13-.01.1-.03.17-.11.23-.2.25-.34.36-1.07.68-1.31.4-.31,1.05.69,1.15.96-.14-.36.74-1.07,1.03-.99.49.13,1.02,1.18,1.4,1.52.55-.82.63-1.77,1.51-2.41.31-.22.67-.36,1.05-.38,1.38-.05,1.9,1.36,1.61,2.45-.21.79-.95,1.28-1.2,2.04.7.37,1.88.33,2.69.58.15.05.31.1.42.21.53.55-.8,1.64-1.17,1.93.5-.39,1.43-.05,1.9.24,1.13.69-.1,1.49-.75,2.1.47.02,1.04.6,1.24,1.01.27.53.21,1.13-.21,1.57-1.04,1.11-3.01.18-4.17-.22-2.02-.7-4.19-1.25-5.67-2.91-.44-.49-.83-1.08-1.46-1.26-.49-.14-2.84.49-2.7-.55.03-.24.28-.42.52-.38-.57-.46-2.01-1.46-1.14-2.29.62-.59,1.66-.13,1.9.59Z"/>
      <g>
        <path class="cls-6" d="M60.19,49.64c-.03-.18,4.57-3.8,4.57-3.8l-.16-3.23s-1.55-1.53-1.71-1.62-5.42-6.34-5.42-6.34l-1.32-1.55-3.75-1.99-3.49-.28-2.02,1.69-1,1.42-.93,1.37-2.13,2.64-.94,1.72-.74,1.58,2.67,4.19,1.67,1.84,14.7,2.36Z"/>
        <path class="cls-4" d="M60.19,49.64c-.03-.18,4.57-3.8,4.57-3.8l-.16-3.23s-1.55-1.53-1.71-1.62-5.42-6.34-5.42-6.34l-1.32-1.55-3.75-1.99-3.49-.28-2.02,1.69-1,1.42-.93,1.37.07,3.8,8.42,9.31,6.75,1.21Z"/>
        <path class="cls-7" d="M41.51,41.34c1.38,1.65,2.76,3.29,4.15,4.94-.92-1.3-1.83-2.6-2.75-3.91-.33-.47-.68-.99-.65-1.56.02-.37.19-.72.37-1.05.29-.5,2.69-3.62,2.13-4.02-.3.44-.56.9-.9,1.31-.28.34-.6.67-.77,1.08-.09.22-.13.45-.22.67-.36.89-.82,1.74-1.36,2.54Z"/>
        <path class="cls-3" d="M62.12,47.17c.75-.97,1.4-2.02,1.91-3.13.12-.26.24-.54.23-.83-.02-.36-.24-.69-.51-.93s-.61-.4-.93-.58c-1.19-.66-2.25-1.56-3.09-2.62-.27-.33-.51-.69-.75-1.04-.07-.1-.14-.2-.21-.3-.46-.67-.92-1.35-1.39-2.02-.32-.46-.64-.93-1.04-1.32-.38-.36-.82-.64-1.25-.92-1.01-.65-2.03-1.3-3.16-1.71-.3-.11-.61-.2-.93-.17-.46.05-.92.37-1.35.2-.19-.07-.42,0-.58.14s-.26.33-.35.51c-.15.29-.29.58-.43.87.43-.38.94-.67,1.48-.87.46-.17.97-.26,1.43-.09.41.14.72.47,1.11.66.38.18.81.22,1.21.32,1.08.27,1.99,1,2.81,1.75.51.47,1,.95,1.4,1.52.29.41.53.86.78,1.29,1.01,1.76,2.27,3.39,3.73,4.8.39.37.79.74,1.05,1.22s.32,1.09.03,1.53c-.12.19-.3.33-.48.47-.42.34-.84.68-1.26,1.02,0,.17.12.3.29.3s.25.09.26-.08Z"/>
        <polygon class="cls-4" points="44.99 39.63 43.53 40.94 53.21 48.38 44.99 39.63"/>
        <path class="cls-3" d="M56.3,39.2l-.08.3c-.01.05-.08.07-.11.03l-2.26-2c-1.07-.95-2.18-1.84-3.33-2.68-.07-.05-.15.05-.09.11.71.67,1.39,1.36,1.96,2.15.71.99,1.23,2.16,1.29,3.37,0,.08.11.09.14.02.12-.36.22-.73.28-1.1,0-.04.04-.06.07-.06.62.06,1.13.55,1.4,1.12.21.46.29.96.33,1.46,0,.08.12.09.14,0,.06-.28.1-.56.11-.84,0-.07.1-.09.13-.03.21.37.38.76.51,1.17.02.06.1.07.13,0,.48-1-.12-2.06-.49-3.05-.02-.06-.12-.06-.13,0Z"/>
      </g>
      <g>
        <path class="cls-6" d="M7.85,44.95c.15-.27-5.11-8.91-5.11-8.91l2.21-5.13s3.44-1.55,3.74-1.6,12.61-7.01,12.61-7.01l3.07-1.72,7.28-.96,5.83,1.64,2.25,3.96.76,2.9.68,2.79,1.86,5.57.48,3.34.25,3.01-6.85,5.18-3.81,1.98-25.25-5.03Z"/>
        <path class="cls-4" d="M7.85,44.95c.15-.27-5.11-8.91-5.11-8.91l2.21-5.13s3.44-1.55,3.74-1.6,12.61-7.01,12.61-7.01l3.07-1.72,7.28-.96,5.83,1.64,2.25,3.96.76,2.9.68,2.79-2.4,6.12-19.26,10.03-11.67-2.1Z"/>
        <path class="cls-7" d="M43.13,42.75c-3.23,1.84-6.47,3.68-9.7,5.51,2.27-1.56,4.54-3.12,6.81-4.68.82-.56,1.69-1.19,2-2.14.2-.62.13-1.29.03-1.93-.17-.99-2.18-7.49-1.03-7.79.23.89.36,1.79.67,2.67.26.72.58,1.44.6,2.21.01.4-.06.81-.05,1.21.05,1.66.27,3.32.68,4.93Z"/>
        <path class="cls-3" d="M6.21,39.79c-.64-2.02-1.04-4.12-1.21-6.23-.04-.5-.06-1.02.14-1.49.25-.58.8-.98,1.39-1.2s1.22-.28,1.85-.38c2.33-.35,4.58-1.17,6.59-2.38.63-.38,1.24-.8,1.85-1.23.17-.12.34-.24.52-.36,1.15-.81,2.31-1.63,3.46-2.44.79-.56,1.59-1.12,2.48-1.51.82-.35,1.71-.55,2.58-.74,2.03-.44,4.08-.89,6.15-.88.55,0,1.12.04,1.61.29.71.36,1.26,1.15,2.06,1.14.36,0,.68.26.85.57s.22.68.26,1.04c.06.55.12,1.11.17,1.66-.48-.87-1.12-1.65-1.88-2.29-.64-.54-1.41-1-2.25-1.01-.75-.01-1.45.33-2.2.4-.72.06-1.44-.13-2.16-.21-1.92-.21-3.83.42-5.62,1.14-1.1.45-2.19.94-3.18,1.62-.72.49-1.37,1.07-2.04,1.63-2.7,2.25-5.72,4.12-8.94,5.54-.85.38-1.73.73-2.43,1.35s-1.18,1.57-.97,2.47c.09.38.29.72.49,1.06.48.81.96,1.61,1.43,2.42-.12.27-.37.41-.65.31s-.46,0-.38-.28Z"/>
        <polygon class="cls-4" points="38.51 37.88 40.09 40.89 19.92 47.12 38.51 37.88"/>
        <path class="cls-3" d="M20.44,30.38l-.05.53c0,.09.08.16.17.13l4.87-1.89c2.3-.89,4.64-1.67,7.01-2.34.15-.04.22.17.08.23-1.55.65-3.08,1.37-4.47,2.31-1.75,1.18-3.29,2.76-4.12,4.69-.05.12-.24.09-.23-.05.02-.66.09-1.31.21-1.96.01-.06-.02-.12-.09-.14-1.04-.27-2.17.21-2.94.97-.62.61-1.04,1.38-1.42,2.17-.06.12-.25.07-.23-.07.07-.48.18-.96.33-1.43.04-.12-.1-.2-.2-.13-.57.47-1.08,1.01-1.54,1.59-.07.09-.21.05-.22-.06-.17-1.91,1.43-3.26,2.63-4.64.08-.09.22-.03.21.09Z"/>
      </g>
    </g>
  </g>
</svg>