<?xml version="1.0" encoding="UTF-8"?>
<svg id="Capa_2" data-name="Capa 2" xmlns="http://www.w3.org/2000/svg" viewBox="0 0 71.67 71.04">
  <defs>
    <style>
      .cls-1 {
        fill: #689d2f;
      }

      .cls-2 {
        fill: #c0bcaf;
      }

      .cls-3 {
        fill: #807c70;
      }

      .cls-4 {
        fill: #9fbc2d;
      }

      .cls-5 {
        fill: #615d52;
      }

      .cls-6 {
        fill: #532f13;
        stroke: #bb882a;
        stroke-miterlimit: 10;
        stroke-width: .57px;
      }

      .cls-7 {
        fill: #3c3d38;
      }

      .cls-8 {
        fill: #a7ca53;
      }
    </style>
  </defs>
  <g id="Capa_1-2" data-name="Capa 1">
    <g>
      <path class="cls-6" d="M4.94,40.29c-.62-.07-1.26-.14-1.84.07s-1.08.79-.98,1.41c.11.64.79,1.36.31,1.81-.33.31-1.56.12-2.05.36,1.42,2.82,5.4,3.87,8.3,4.26,3.22.43,6.64.47,9.45,2.11.18.11.38.26.36.47-.01.12-.1.22-.18.31-1.04,1.12-1.94,2.37-2.66,3.72-.42.79-.73,1.89-.06,2.48.36.32.89.35,1.38.38,2.96.15,5.9.58,8.78,1.28.53.13.75.82.57,1.33s-.61.89-1.03,1.24c-1.58,1.34-3.27,3.27-2.58,5.23.81-.1,1.45-.72,2.08-1.25,3.8-3.18,9.48-3.89,13.94-1.75.37.18.72.41,1.03.68-1.36.69-2.59,1.66-3.58,2.83-.35.41-.69.89-.73,1.43-.05.79.56,1.5,1.29,1.8s1.54.29,2.33.26c3.99-.17,7.96-.76,11.82-1.74.34-.09.71-.19.93-.46s.22-.76-.1-.91c-3.01-1.41-6.03-3.27-7.54-6.23-.32-.64-.57-1.42-.23-2.05.66-1.25,2.97-1.1,4.18-1.24,2.24-.26,4.74.73,6.97-.07,1.71-.62.66-1.64-.25-2.43-.7-.6-1.08-.65-.19-1.26,1.34-.92,3.27-.12,4.73-.02,2.3.14,4.62.02,6.89-.37,1.33-.23,2.67-.56,4.02-.47-1.79-.34-3.59-.68-5.38-1.02-1.55-.3-3.5-.17-4.8-1.19.6-1.37,5.53-1.82,6.32-.34-.47-.89-1.39-1.52-2.39-1.64l1.09-1.05c-1.62-.75-3.35-1.26-5.11-1.51l.7-.48c-4.74-1.21-9.47-2.42-14.21-3.63-.48-.12-.98-.25-1.36-.58s-.59-.9-.34-1.33c.07-.12.17-.23.28-.32,1.34-1.24,3.23-1.66,4.84-2.54,1.8-.99,3.25-2.62,4.02-4.53.08-.2.15-.4.16-.62.02-.84-.95-1.31-1.75-1.56-2.06-.64-4.66-.78-6.44-2.09.43-1.43,3.8-1.36,5.02-1.52.68-.09,1-.87.56-1.39-2.33-2.75-5.41-3.83-8.88-4.25.12-1.25,2.49-2.14,3.51-2.43.85-.25,4.75-.93,4.15-2.15-.49-1-3.45-.72-4.36-.91-.51-.11-1.07-.26-1.33-.71-.46-.81.43-1.7,1.21-2.21,1.12-.73,2.24-1.46,3.36-2.18.41-.27.82-.91.38-1.13-.57-.29-.49-1.19-.02-1.63s1.14-.54,1.75-.71,1.28-.45,1.51-1.05c-1.21-.22-2.43-.43-3.64-.65-.69-.12-1.39-.25-2.08-.37-3.06-.55-5.8-2.49-7.49-5.09-.46-.7-1.51-.44-1.56.4-.09,1.56-.36,3.09-.99,4.52-.31.7-.17,1.49.22,2.15.41.7.66,1.49.22,2.12-.36.51-1.04.65-1.66.76-2.35.4-6.17-.84-7.98,1.33.6.62,3.57,1.96,1.36,2.82-1.13.44-2.31.76-3.48,1.05-.76.19-2.29.24-2.81.9-.3.39.19,1-.48,1.38-.55.31-1.25.19-1.85-.02s-1.2-.49-1.83-.47c-.56.01-1.09.27-1.6.51l-2.64,1.28c-.61.3-1.12.78-1.44,1.37l-3.23,5.89c-.15.28-.31.57-.51.82-1.18,1.53-3.46,1.62-5.05,2.72-2.26,1.57-2.62,4.71-2.77,7.46.3.09.64.06.92-.08.05-.51.1-1.02.15-1.54.5,1.41,1.14,3.36,2.37,4.22Z"/>
      <path class="cls-4" d="M3.73,29.55c-1.17-.87-2.63-1.75-2.37-3.49.17-1.17,1.2-.56,1.7-1.19.12-.15.14-.35.15-.54.03-.77-.56-1.99-.33-2.7.28-.88,2.3-.05,2.74.25-.59-.4.01-2.39.53-2.57.87-.31,2.76.72,3.69.84-.02-1.81-.88-3.34-.22-5.21.23-.66.64-1.25,1.2-1.66,2.03-1.52,4.28.09,4.98,2.03.5,1.41-.11,2.93.31,4.33,1.45-.17,3.2-1.45,4.68-1.92.28-.09.57-.17.85-.11,1.37.27.5,3.32.24,4.14.35-1.1,2.12-1.56,3.12-1.61,2.43-.13,1.39,2.37,1.04,3.96.73-.47,2.2-.17,2.92.23.96.52,1.49,1.49,1.32,2.59-.43,2.76-4.36,3.41-6.53,4.01-3.78,1.04-7.63,2.46-11.6,1.49-1.17-.29-2.39-.77-3.52-.38-.88.3-3.78,3.7-4.67,1.97-.2-.39-.01-.93.39-1.11-1.34-.1-4.56-.11-4.11-2.28.32-1.54,2.37-1.92,3.49-1.07Z"/>
      <path class="cls-1" d="M56.49,39.21c.02-1.08-.08-2.34,1.08-2.93.78-.4.85.48,1.46.51.14,0,.27-.07.39-.14.48-.32.96-1.2,1.48-1.37.65-.21,1.02,1.36,1.03,1.76-.02-.53,1.44-1.02,1.78-.79.56.39.76,1.97,1.08,2.59,1.08-.8,1.63-1.97,3.04-2.38.5-.14,1.03-.15,1.52,0,1.79.57,1.8,2.62.93,3.87-.63.91-1.81,1.2-2.47,2.06.73.8,2.25,1.3,3.17,1.99.17.13.35.27.43.46.43.94-1.78,1.73-2.39,1.93.82-.26,1.85.6,2.31,1.18,1.12,1.41-.82,1.86-1.93,2.34.6.24,1.05,1.25,1.12,1.86.1.8-.25,1.54-.99,1.91-1.85.94-3.94-1.15-5.23-2.2-2.26-1.83-4.78-3.53-5.91-6.34-.33-.82-.57-1.77-1.29-2.29-.56-.4-3.86-.68-3.21-1.96.15-.29.56-.41.84-.25-.52-.85-1.9-2.79-.4-3.46,1.06-.47,2.18.6,2.15,1.64Z"/>
      <path class="cls-8" d="M54.65,43.59c-.26-.76-.65-1.61.01-2.32.44-.48.72.12,1.15-.01.1-.03.17-.12.23-.2.25-.34.37-1.08.69-1.33.4-.31,1.06.7,1.17.97-.15-.37.75-1.08,1.04-1,.49.13,1.03,1.19,1.41,1.53.55-.83.64-1.79,1.52-2.43.31-.22.68-.37,1.06-.38,1.39-.05,1.92,1.37,1.62,2.47-.21.8-.96,1.3-1.21,2.06.71.38,1.9.34,2.72.59.15.05.31.1.42.21.54.55-.81,1.66-1.18,1.95.5-.39,1.44-.05,1.91.24,1.14.7-.11,1.51-.76,2.12.48.02,1.05.61,1.25,1.02.27.54.21,1.14-.21,1.58-1.05,1.12-3.04.19-4.21-.22-2.04-.71-4.23-1.26-5.73-2.94-.44-.49-.84-1.09-1.48-1.27-.5-.14-2.87.5-2.73-.56.03-.24.29-.43.52-.38-.58-.46-2.03-1.47-1.15-2.31.63-.6,1.67-.13,1.92.6Z"/>
      <g>
        <path class="cls-5" d="M60.8,50.14c-.03-.18,4.61-3.84,4.61-3.84l-.16-3.26s-1.57-1.55-1.72-1.64-5.48-6.41-5.48-6.41l-1.33-1.57-3.79-2.01-3.52-.29-2.04,1.71-1.01,1.43-.94,1.39-2.15,2.67-.95,1.73-.75,1.6,2.7,4.23,1.68,1.86,14.85,2.38Z"/>
        <path class="cls-3" d="M60.8,50.14c-.03-.18,4.61-3.84,4.61-3.84l-.16-3.26s-1.57-1.55-1.72-1.64-5.48-6.41-5.48-6.41l-1.33-1.57-3.79-2.01-3.52-.29-2.04,1.71-1.01,1.43-.94,1.39.07,3.84,8.5,9.41,6.81,1.23Z"/>
        <path class="cls-7" d="M41.93,41.76c1.4,1.66,2.79,3.33,4.19,4.99-.92-1.32-1.85-2.63-2.77-3.95-.33-.48-.68-1-.66-1.58.02-.38.19-.73.38-1.06.29-.51,2.72-3.66,2.15-4.06-.31.44-.56.91-.91,1.32-.29.34-.61.67-.78,1.09-.09.22-.13.46-.22.67-.36.9-.82,1.76-1.37,2.56Z"/>
        <path class="cls-2" d="M62.75,47.65c.76-.98,1.41-2.04,1.93-3.17.12-.27.24-.55.23-.84-.02-.37-.24-.7-.52-.94s-.61-.4-.94-.58c-1.2-.67-2.27-1.57-3.13-2.65-.27-.34-.52-.69-.76-1.05-.07-.1-.14-.2-.21-.3-.47-.68-.93-1.36-1.4-2.04-.32-.47-.64-.94-1.05-1.33-.38-.36-.82-.65-1.26-.93-1.02-.65-2.05-1.31-3.19-1.73-.3-.11-.62-.2-.94-.17-.46.05-.92.37-1.36.2-.2-.08-.42,0-.58.14s-.26.33-.35.52c-.15.29-.29.58-.43.88.44-.38.95-.68,1.49-.87.46-.17.98-.26,1.44-.1.41.15.73.48,1.12.66.38.18.82.22,1.23.32,1.09.27,2.01,1.01,2.84,1.77.51.47,1.01.96,1.41,1.53.29.41.53.87.78,1.31,1.02,1.78,2.3,3.42,3.77,4.85.39.38.8.75,1.06,1.23s.33,1.1.03,1.55c-.13.19-.31.34-.48.48-.43.34-.85.69-1.28,1.03,0,.17.12.3.29.3s.25.09.26-.08Z"/>
        <polygon class="cls-3" points="45.45 40.03 43.97 41.35 53.75 48.87 45.45 40.03"/>
        <path class="cls-2" d="M56.87,39.6l-.08.3c-.01.05-.08.07-.12.03l-2.28-2.03c-1.08-.96-2.2-1.86-3.36-2.71-.07-.05-.15.05-.09.11.72.67,1.41,1.38,1.98,2.18.72,1,1.24,2.18,1.3,3.41,0,.08.11.1.14.02.12-.36.22-.74.28-1.11,0-.04.04-.06.08-.06.62.06,1.15.56,1.41,1.13.21.46.29.97.33,1.47,0,.08.12.09.14,0,.06-.28.1-.57.11-.85,0-.07.1-.09.13-.03.21.37.39.77.52,1.18.02.06.1.07.13,0,.48-1.01-.12-2.08-.49-3.08-.02-.06-.12-.06-.13,0Z"/>
      </g>
      <g>
        <path class="cls-5" d="M7.92,45.41c.15-.27-5.16-9-5.16-9l2.23-5.18s3.47-1.57,3.78-1.61,12.74-7.08,12.74-7.08l3.1-1.74,7.35-.97,5.88,1.66,2.27,4,.77,2.93.69,2.82,1.88,5.62.49,3.38.25,3.04-6.92,5.24-3.85,2-25.51-5.08Z"/>
        <path class="cls-3" d="M7.92,45.41c.15-.27-5.16-9-5.16-9l2.23-5.18s3.47-1.57,3.78-1.61,12.74-7.08,12.74-7.08l3.1-1.74,7.35-.97,5.88,1.66,2.27,4,.77,2.93.69,2.82-2.42,6.18-19.45,10.13-11.78-2.12Z"/>
        <path class="cls-7" d="M43.57,43.19c-3.27,1.86-6.53,3.71-9.8,5.57,2.29-1.57,4.58-3.15,6.87-4.72.83-.57,1.71-1.21,2.02-2.16.2-.62.13-1.3.03-1.95-.17-1-2.2-7.56-1.04-7.87.23.9.36,1.81.68,2.7.26.73.58,1.46.6,2.23.01.41-.06.82-.05,1.22.05,1.68.28,3.35.68,4.98Z"/>
        <path class="cls-2" d="M6.27,40.19c-.65-2.04-1.05-4.16-1.22-6.29-.04-.51-.06-1.03.14-1.5.25-.59.81-.99,1.41-1.21s1.24-.28,1.87-.38c2.35-.36,4.63-1.18,6.66-2.41.64-.39,1.26-.81,1.87-1.24.17-.12.35-.24.52-.37,1.17-.82,2.33-1.64,3.5-2.47.8-.56,1.61-1.13,2.51-1.52.83-.36,1.72-.55,2.61-.75,2.05-.45,4.12-.89,6.21-.89.55,0,1.13.04,1.62.29.72.36,1.28,1.16,2.08,1.15.36,0,.69.26.86.58s.22.69.26,1.05c.06.56.12,1.12.17,1.68-.48-.88-1.13-1.67-1.89-2.32-.65-.55-1.43-1.01-2.28-1.02-.75-.01-1.47.33-2.22.4-.73.07-1.45-.13-2.18-.21-1.94-.21-3.87.42-5.67,1.16-1.11.45-2.22.95-3.21,1.63-.72.5-1.38,1.08-2.06,1.64-2.73,2.27-5.78,4.16-9.03,5.6-.86.38-1.75.74-2.45,1.36s-1.19,1.58-.98,2.5c.09.38.29.73.49,1.07.48.81.97,1.63,1.45,2.44-.12.27-.38.42-.65.31s-.47,0-.38-.29Z"/>
        <polygon class="cls-3" points="38.9 38.27 40.49 41.3 20.12 47.6 38.9 38.27"/>
        <path class="cls-2" d="M20.65,30.68l-.05.54c0,.09.08.16.17.13l4.92-1.91c2.32-.9,4.68-1.69,7.08-2.36.15-.04.22.17.08.23-1.57.66-3.11,1.38-4.52,2.34-1.76,1.19-3.32,2.79-4.16,4.74-.05.12-.24.09-.24-.05.02-.66.09-1.32.21-1.98.01-.06-.03-.13-.09-.14-1.05-.27-2.19.21-2.97.98-.62.62-1.05,1.39-1.43,2.19-.06.13-.25.07-.23-.07.07-.49.18-.97.33-1.45.04-.12-.1-.21-.2-.13-.57.48-1.09,1.02-1.55,1.6-.07.09-.21.05-.22-.06-.17-1.93,1.45-3.3,2.65-4.69.08-.09.23-.03.21.09Z"/>
      </g>
    </g>
  </g>
</svg>