<?xml version="1.0" encoding="UTF-8"?>
<svg xmlns="http://www.w3.org/2000/svg" viewBox="0 0 540.22 1329.67">
  <defs>
    <style>
      .cls-1 {
        fill: #fff;
      }

      .cls-2, .cls-3 {
        fill: #cc721b;
      }

      .cls-4 {
        fill: #5e2414;
      }

      .cls-4, .cls-5, .cls-6, .cls-7, .cls-3 {
        stroke-miterlimit: 10;
      }

      .cls-4, .cls-6, .cls-7 {
        stroke: #774635;
      }

      .cls-5 {
        fill: none;
        stroke: #fdfdfd;
      }

      .cls-8 {
        fill: #e47a1c;
      }

      .cls-6 {
        fill: #69350e;
        stroke-width: 1.1px;
      }

      .cls-7 {
        fill: #161616;
        stroke-width: .76px;
      }

      .cls-9 {
        fill: #333230;
      }

      .cls-10 {
        fill: #0a0b0a;
      }

      .cls-11 {
        fill: #b05717;
      }

      .cls-3 {
        stroke: #cc721a;
      }
    </style>
  </defs>
  <g>
    <g>
      <path class="cls-11" d="M456.73,702.85c13.64,30.69,12.9,64.29,5.85,97.37-5.61,26.33-16.98,39.84-24.23,61.15-.32.91-.58,1.83-.82,2.76-2.25,4.03-4.11,8.31-5.72,10.88-5.51,8.79-11.57,17.23-17.99,25.4-1.22,1.56-2.46,3.1-3.7,4.63-14.82,18.21-32.53,33.87-48.3,51.27-13.97,15.42-41.96,50.59-16.39,67.92,32.2,21.82,74.72,19.89,111.5,27.83,15.72,3.39,31.26,7.89,45.96,14.45,9.05,4.04,21.31,9.29,30.37,16.53,1.32,5.54,2.53,11.1,3.63,16.65,7.55,37.79,2.52,69.74-17.66,102.63-36.98,60.25-94.64,94.53-161.35,113.15-30.32,8.46-61.71,15.78-93.4,13.9-99.54-5.91-210.46-34.64-251.8-137.39-7.21-17.9-11.36-36.96-12.39-56.23-3.66-68.77,27.61-120.42,73.69-180.84,8.66-11.35,17.98-22.45,24.12-35.46,3.06-6.46,4.69-13.08,5.29-19.75,1.64-18.4-4.61-37.25-10.71-54.65-6.05-17.25-9.13-38.64-11.9-56.68-5.84-38.15-9.39-73.64,16.27-105.49,13.11-16.25,30.14-30.37,48.21-40.78,6.99-4.04,14.08-8,21.66-10.78,75.32-27.6,158.65-22.6,234.52,10.41,27.96,12.16,43.33,34.18,55.29,61.12Z"/>
      <path class="cls-2" d="M437.53,864.13c-6.69,25.43,12.11,52.74,25.22,74.79,6.16,10.35,12.26,19.59,19.02,29.56,7.09,10.47,14.2,20.96,20.43,31.98,14.5,25.62,24.25,53.91,31.06,82.58-9.06-7.23-21.32-12.49-30.37-16.53-14.7-6.56-30.24-11.07-45.96-14.45-36.79-7.94-79.3-6.01-111.5-27.83-25.57-17.33,2.42-52.51,16.39-67.92,15.77-17.41,33.48-33.06,48.3-51.27,1.25-1.53,2.48-3.07,3.7-4.63,6.42-8.16,12.48-16.61,17.99-25.4,1.61-2.57,3.47-6.85,5.72-10.88Z"/>
      <rect class="cls-7" x="150.33" y="1128.68" width="232.53" height="30.11"/>
      <rect class="cls-1" x="220.52" y="1143.7" width="92.16" height="3.48"/>
      <rect class="cls-1" x="220.52" y="1136.42" width="92.16" height="3.48"/>
      <rect class="cls-1" x="220.52" y="1151.4" width="92.16" height="3.48"/>
      <circle class="cls-6" cx="266.06" cy="830.75" r="108.05"/>
      <circle class="cls-8" cx="266.06" cy="830.75" r="98.39"/>
      <circle class="cls-11" cx="266.06" cy="830.75" r="86.01"/>
      <path class="cls-10" d="M306.59,791.87c2.96,3.08,5.49,6.42,7.61,9.93,13.26,21.99,10.04,50.97-9.27,69.49-22.39,21.47-57.94,20.73-79.42-1.67-16.22-16.91-19.76-41.34-10.87-61.53,2.87-6.54,7.05-12.64,12.53-17.89,22.4-21.48,57.95-20.72,79.42,1.67Z"/>
      <circle class="cls-8" cx="193.74" cy="838.95" r="6.64"/>
      <circle class="cls-8" cx="199.33" cy="859.53" r="6.64"/>
      <circle class="cls-8" cx="211.96" cy="877.13" r="6.64"/>
      <circle class="cls-8" cx="229.02" cy="890.49" r="6.64"/>
      <circle class="cls-8" cx="250" cy="900.08" r="6.64"/>
      <circle class="cls-8" cx="273.24" cy="901.68" r="6.64"/>
      <circle class="cls-8" cx="294.81" cy="894.67" r="6.64"/>
      <circle class="cls-8" cx="312.16" cy="882.76" r="6.64"/>
      <circle class="cls-8" cx="327" cy="863.81" r="6.64"/>
      <circle class="cls-8" cx="335.65" cy="841.84" r="6.64"/>
      <circle class="cls-8" cx="336.52" cy="823.08" r="6.64"/>
      <circle class="cls-8" cx="332.88" cy="800.1" r="6.64"/>
      <circle class="cls-8" cx="322.61" cy="783.48" r="6.64"/>
      <circle class="cls-8" cx="308.4" cy="770.63" r="6.64"/>
      <circle class="cls-8" cx="290.38" cy="761.43" r="6.64"/>
      <circle class="cls-8" cx="268.64" cy="757.94" r="6.64"/>
      <circle class="cls-8" cx="246.55" cy="760.72" r="6.64"/>
      <circle class="cls-8" cx="228.43" cy="770.61" r="6.64"/>
      <circle class="cls-8" cx="212.35" cy="784.32" r="6.64"/>
      <circle class="cls-8" cx="200.81" cy="801.81" r="6.64"/>
      <circle class="cls-8" cx="194.63" cy="819.71" r="6.64"/>
      <path class="cls-9" d="M314.2,801.8c-2.12-3.51-4.65-6.84-7.61-9.93-21.47-22.39-57.02-23.14-79.42-1.67-5.48,5.25-9.66,11.35-12.53,17.89l17.59-598.43h75.07l6.9,592.14Z"/>
      <g>
        <path class="cls-4" d="M226.15,160.88l3.71,48.73h79.66l3.15-47.61-86.52-1.12ZM266.92,186.23h-35.28v-15.29h35.28v15.29ZM305.9,186.23h-35.29v-15.29h35.29v15.29Z"/>
        <path class="cls-4" d="M222.91,118.45l2.42,31.75,88.04,1.15,2.1-31.7-92.56-1.2ZM264.92,141.89h-35.28v-15.29h35.28v15.29ZM307.9,141.89h-35.29v-15.29h35.29v15.29Z"/>
        <path class="cls-4" d="M219.68,76.03l2.42,31.74,94.07,1.22,2.1-31.68-98.59-1.28ZM262.92,101.04h-35.28v-15.29h35.28v15.29ZM309.9,101.04h-35.29v-15.29h35.29v15.29Z"/>
        <path class="cls-4" d="M335.68,66.87l-.14,10.66-17.27-.22-98.59-1.28-13.06-.17.14-10.66,12.11.16-2.8-36.73C242.21-4.74,270.43.85,270.43.85c38.74,5.57,51.04,28.05,51.04,28.05l-2.5,37.75,16.71.22Z"/>
        <polygon class="cls-4" points="335.68 109.24 335.54 119.91 315.47 119.65 222.91 118.45 206.62 118.24 206.76 107.57 222.1 107.77 316.17 108.99 335.68 109.24"/>
        <polygon class="cls-4" points="334.58 151.62 334.44 162.28 312.67 162 226.15 160.88 205.52 160.61 205.66 149.95 225.33 150.2 313.37 151.35 334.58 151.62"/>
      </g>
      <rect class="cls-11" x="231.54" y="232.1" width="76.04" height="2.11"/>
      <rect class="cls-11" x="230.14" y="279.81" width="78.08" height="2.11"/>
      <rect class="cls-11" x="228.55" y="327.52" width="80.14" height="2.11"/>
      <rect class="cls-11" x="227.3" y="375.22" width="81.94" height="2.11"/>
      <rect class="cls-11" x="225.87" y="422.93" width="83.93" height="2.11"/>
      <rect class="cls-11" x="224.47" y="470.64" width="85.89" height="2.11"/>
      <rect class="cls-11" x="223.09" y="518.35" width="87.82" height="2.11"/>
      <rect class="cls-11" x="221.66" y="566.05" width="89.81" height="2.11"/>
      <rect class="cls-11" x="220.29" y="613.76" width="91.75" height="2.11"/>
      <rect class="cls-11" x="213.25" y="661.47" width="105.74" height="2.11"/>
      <rect class="cls-11" x="213.25" y="709.18" width="105.74" height="2.11"/>
      <line class="cls-5" x1="243.37" y1="185.25" x2="245.28" y2="1155.66"/>
      <line class="cls-5" x1="252.39" y1="185.25" x2="254.3" y2="1155.66"/>
      <line class="cls-5" x1="260.56" y1="185.25" x2="262.47" y2="1155.66"/>
      <line class="cls-5" x1="277.28" y1="185.25" x2="279.19" y2="1155.66"/>
      <line class="cls-5" x1="285.11" y1="185.25" x2="287.02" y2="1155.66"/>
      <line class="cls-5" x1="293.62" y1="185.25" x2="295.52" y2="1155.66"/>
      <path class="cls-3" d="M96.89,751.3s9.6-98.38,97.74-108.6c0,0-65.06,19.06-97.74,108.6Z"/>
    </g>
  </g>
</svg>