<?xml version="1.0" encoding="UTF-8"?>
<svg xmlns="http://www.w3.org/2000/svg" viewBox="0 0 180.56 1474.73">
  <defs>
    <style>
      .cls-1 {
        fill: #b76927;
      }

      .cls-2 {
        fill: #d68944;
      }

      .cls-3 {
        fill: #6d270f;
      }

      .cls-4 {
        fill: #f6aa70;
      }
    </style>
  </defs>
  <g>
    <g>
      <g>
        <path class="cls-1" d="M156.5,10.09l24.06,1443.33c-.18-11.01-35.36-19.32-78.58-18.61-43.18.72-78.08,10.21-77.91,21.21L0,12.7C-.11,6.44,34.86.79,78.05.08c43.23-.72,78.33,3.75,78.45,10.01Z"/>
        <path class="cls-3" d="M177.65,1458.96c-9.2,8.51-39.23,15.12-75,15.73-35.74.59-66.01-5.02-75.5-13.22-1.97-1.71-3.06-3.53-3.09-5.43v-.02c-.14-9.64,26.64-18.12,62.34-20.55-.2-1.2-.29-2.43-.24-3.7l.59-13.46c.41-9.58,8.5-17,18.08-16.58,2.1.09,4.08.55,5.91,1.31,6.54,2.72,10.99,9.3,10.67,16.78l-.58,13.45c-.03.62-.09,1.22-.18,1.81,34.24,1.55,59.75,8.97,59.91,18.34.03,1.9-.98,3.76-2.91,5.54Z"/>
      </g>
      <g>
        <circle class="cls-4" cx="79.1" cy="109.77" r="46.98"/>
        <path class="cls-2" d="M126.08,109.77c0-25.95-21.03-46.98-46.98-46.98s-46.98,21.03-46.98,46.97c0-6.45,5.5-14.11,9.41-18.88,16.3-19.85,45.24-28.29,65.45-9.12,4.46,4.23,8.12,9.2,11.4,14.37,1.51,2.38,2.83,4.88,4.36,7.25,1.25,1.94,3.34,3.92,3.34,6.39Z"/>
      </g>
      <g>
        <circle class="cls-4" cx="79.1" cy="264.11" r="46.98"/>
        <path class="cls-2" d="M126.08,264.11c0-25.95-21.03-46.98-46.98-46.98s-46.98,21.03-46.98,46.97c0-6.45,5.5-14.11,9.41-18.88,16.3-19.85,45.24-28.29,65.45-9.12,4.46,4.23,8.12,9.2,11.4,14.37,1.51,2.38,2.83,4.88,4.36,7.25,1.25,1.94,3.34,3.92,3.34,6.39Z"/>
      </g>
      <g>
        <circle class="cls-4" cx="83.56" cy="418.45" r="42.52"/>
        <path class="cls-2" d="M126.08,418.45c0-23.48-19.04-42.52-42.52-42.52s-42.52,19.03-42.52,42.51c0-5.83,4.97-12.77,8.51-17.08,14.75-17.97,40.95-25.61,59.24-8.26,4.03,3.83,7.35,8.32,10.32,13,1.37,2.15,2.56,4.42,3.94,6.56,1.13,1.75,3.03,3.55,3.03,5.78Z"/>
      </g>
      <g>
        <circle class="cls-4" cx="83.56" cy="613.82" r="46.98"/>
        <path class="cls-2" d="M130.54,613.82c0-25.95-21.03-46.98-46.98-46.98s-46.98,21.03-46.98,46.97c0-6.45,5.5-14.11,9.41-18.88,16.3-19.85,45.24-28.29,65.45-9.12,4.46,4.23,8.12,9.2,11.4,14.37,1.51,2.38,2.83,4.88,4.36,7.25,1.25,1.94,3.34,3.92,3.34,6.39Z"/>
      </g>
      <g>
        <circle class="cls-4" cx="83.56" cy="768.16" r="46.98"/>
        <path class="cls-2" d="M130.54,768.16c0-25.95-21.03-46.98-46.98-46.98s-46.98,21.03-46.98,46.97c0-6.45,5.5-14.11,9.41-18.88,16.3-19.85,45.24-28.29,65.45-9.12,4.46,4.23,8.12,9.2,11.4,14.37,1.51,2.38,2.83,4.88,4.36,7.25,1.25,1.94,3.34,3.92,3.34,6.39Z"/>
      </g>
      <g>
        <circle class="cls-4" cx="90.28" cy="922.5" r="40.26"/>
        <path class="cls-2" d="M130.54,922.5c0-22.24-18.03-40.26-40.26-40.26s-40.26,18.02-40.26,40.26c0-5.52,4.71-12.1,8.06-16.18,13.97-17.01,38.77-24.25,56.09-7.82,3.82,3.62,6.96,7.88,9.77,12.31,1.29,2.04,2.42,4.19,3.73,6.21,1.07,1.66,2.87,3.36,2.87,5.47Z"/>
      </g>
    </g>
  </g>
</svg>