<?xml version="1.0" encoding="UTF-8"?>
<svg xmlns="http://www.w3.org/2000/svg" viewBox="0 0 359.03 234.42">
  <defs>
    <style>
      .cls-1 {
        fill: #599632;
      }

      .cls-2 {
        fill: #689d2f;
      }

      .cls-3 {
        fill: #6ab53b;
      }

      .cls-4 {
        fill: #c0bcaf;
      }

      .cls-5 {
        fill: #693822;
      }

      .cls-6 {
        fill: #c6e6f2;
      }

      .cls-7 {
        fill: #3f762f;
      }

      .cls-8 {
        fill: #7b4c2d;
      }

      .cls-9 {
        fill: #807c70;
      }

      .cls-10 {
        fill: #9fbc2d;
      }

      .cls-11 {
        fill: #615d52;
      }

      .cls-12 {
        fill: #a8dbf1;
      }

      .cls-13 {
        fill: #45792f;
      }

      .cls-14 {
        fill: #533115;
      }

      .cls-15 {
        fill: #559833;
      }

      .cls-16 {
        fill: #3c3d38;
      }

      .cls-17 {
        fill: #a7ca53;
      }

      .cls-18 {
        fill: #41b5e1;
      }

      .cls-19 {
        fill: #41b4e0;
      }
    </style>
  </defs>
  <g>
    <g>
      <g>
        <path class="cls-11" d="M267.01,165.38c-.11-.32,7.33-8.74,7.33-8.74l-1.4-6.04s-3.45-2.37-3.77-2.48-12.4-10.14-12.4-10.14l-3.02-2.48-7.76-2.48-6.69.65-3.24,3.88-1.4,3.02-1.29,2.91-3.13,5.72-1.19,3.56-.86,3.24,6.47,7.01,3.77,2.91,28.58-.54Z"/>
        <path class="cls-9" d="M267.01,165.38c-.11-.32,7.33-8.74,7.33-8.74l-1.4-6.04s-3.45-2.37-3.77-2.48-12.4-10.14-12.4-10.14l-3.02-2.48-7.76-2.48-6.69.65-3.24,3.88-1.4,3.02-1.29,2.91,1.42,7.15,19.07,14.74h13.16Z"/>
        <path class="cls-16" d="M228.89,156.05c3.17,2.64,6.34,5.29,9.51,7.93-2.17-2.15-4.34-4.3-6.52-6.45-.79-.78-1.62-1.64-1.77-2.73-.1-.71.11-1.43.35-2.11.38-1.05,3.85-7.75,2.65-8.31-.42.93-.75,1.89-1.26,2.78-.42.74-.92,1.46-1.09,2.3-.09.44-.09.89-.18,1.33-.38,1.81-.95,3.57-1.71,5.26Z"/>
        <path class="cls-4" d="M269.81,160.07c1.09-2.08,1.95-4.29,2.54-6.57.14-.54.27-1.11.14-1.65-.15-.68-.68-1.23-1.29-1.58s-1.28-.55-1.94-.77c-2.47-.84-4.77-2.18-6.74-3.9-.62-.54-1.2-1.12-1.78-1.71-.16-.17-.33-.33-.49-.5-1.1-1.12-2.2-2.23-3.3-3.35-.76-.77-1.52-1.54-2.42-2.13-.83-.55-1.76-.93-2.68-1.32-2.13-.88-4.28-1.77-6.55-2.17-.6-.11-1.23-.17-1.81,0-.85.25-1.6,1.01-2.47.84-.39-.08-.79.15-1.04.46s-.37.7-.49,1.08c-.18.59-.35,1.19-.51,1.78.69-.86,1.55-1.58,2.5-2.14.81-.47,1.74-.82,2.66-.66.82.14,1.52.65,2.32.87.78.21,1.6.14,2.4.19,2.14.15,4.1,1.21,5.91,2.35,1.12.71,2.21,1.46,3.15,2.39.69.68,1.28,1.44,1.91,2.18,2.51,2.99,5.44,5.63,8.68,7.81.86.58,1.75,1.14,2.39,1.95s.98,1.94.57,2.89c-.17.4-.46.73-.74,1.06-.68.79-1.36,1.57-2.04,2.36.07.32.33.52.64.47s.5.09.47-.24Z"/>
        <polygon class="cls-9" points="234.89 151.64 232.58 154.61 253.39 165.38 234.89 151.64"/>
        <path class="cls-4" d="M256.11,146.99l-.05.59c0,.1-.12.16-.2.1l-4.95-3.02c-2.33-1.43-4.74-2.74-7.2-3.93-.15-.07-.27.14-.13.24,1.57,1.02,3.1,2.1,4.43,3.4,1.67,1.63,3.05,3.66,3.58,5.93.03.15.24.14.27,0,.11-.72.16-1.45.15-2.18,0-.07.05-.13.12-.14,1.19-.09,2.33.66,3.02,1.64.55.79.87,1.71,1.12,2.65.04.15.26.12.26-.03.02-.54,0-1.09-.08-1.63-.02-.13.15-.2.24-.1.53.63.99,1.31,1.37,2.04.06.11.22.09.25-.03.56-2.06-.93-3.85-1.96-5.59-.07-.11-.24-.07-.25.06Z"/>
      </g>
      <g>
        <path class="cls-11" d="M166.52,174.31c.19-.56-12.68-15.11-12.68-15.11l2.42-10.44s5.97-4.1,6.53-4.29,21.45-17.53,21.45-17.53l5.22-4.29,13.43-4.29,11.56,1.12,5.59,6.71,2.42,5.22,2.24,5.04,5.41,9.88,2.05,6.15,1.49,5.59-11.19,12.12-6.53,5.04-49.42-.93Z"/>
        <path class="cls-9" d="M166.52,174.31c.19-.56-12.68-15.11-12.68-15.11l2.42-10.44s5.97-4.1,6.53-4.29,21.45-17.53,21.45-17.53l5.22-4.29,13.43-4.29,11.56,1.12,5.59,6.71,2.42,5.22,2.24,5.04-2.46,12.37-32.98,25.49h-22.75Z"/>
        <path class="cls-16" d="M232.44,158.17c-5.48,4.57-10.97,9.14-16.45,13.71,3.76-3.72,7.51-7.43,11.27-11.15,1.36-1.34,2.79-2.83,3.06-4.73.17-1.23-.19-2.47-.61-3.65-.65-1.82-6.66-13.4-4.59-14.37.73,1.61,1.29,3.26,2.17,4.81.73,1.28,1.58,2.53,1.88,3.97.16.76.15,1.55.31,2.31.65,3.13,1.64,6.18,2.95,9.09Z"/>
        <path class="cls-4" d="M161.68,165.12c-1.89-3.6-3.37-7.42-4.39-11.36-.24-.93-.46-1.91-.25-2.85.27-1.18,1.18-2.12,2.22-2.74s2.22-.95,3.36-1.34c4.27-1.46,8.26-3.76,11.65-6.74,1.07-.94,2.08-1.94,3.08-2.95.28-.29.57-.58.85-.86,1.9-1.93,3.81-3.86,5.71-5.79,1.31-1.33,2.63-2.66,4.18-3.69,1.44-.95,3.04-1.62,4.63-2.27,3.68-1.52,7.4-3.06,11.32-3.75,1.04-.18,2.12-.3,3.13,0,1.47.44,2.78,1.74,4.28,1.45.68-.13,1.37.25,1.8.79s.64,1.22.84,1.88c.31,1.02.6,2.05.88,3.08-1.2-1.48-2.67-2.74-4.32-3.7-1.4-.81-3.01-1.41-4.6-1.15-1.41.23-2.63,1.12-4.02,1.5-1.34.37-2.77.24-4.16.33-3.7.25-7.09,2.09-10.22,4.07-1.93,1.22-3.82,2.53-5.45,4.13-1.19,1.17-2.22,2.49-3.29,3.77-4.34,5.17-9.41,9.73-15.01,13.5-1.48,1-3.02,1.97-4.13,3.37s-1.7,3.36-.99,5c.3.69.79,1.27,1.28,1.83,1.18,1.36,2.35,2.72,3.53,4.08-.13.55-.56.9-1.12.81s-.87.15-.81-.41Z"/>
        <polygon class="cls-9" points="222.06 150.54 226.06 155.68 190.07 174.31 222.06 150.54"/>
        <path class="cls-4" d="M185.37,142.5l.08,1.02c.01.17.21.27.35.18l8.55-5.22c4.04-2.47,8.19-4.73,12.45-6.79.26-.13.47.25.23.41-2.72,1.76-5.35,3.63-7.66,5.89-2.9,2.83-5.27,6.34-6.19,10.26-.06.25-.42.24-.46-.01-.19-1.25-.28-2.51-.27-3.77,0-.12-.09-.23-.21-.24-2.05-.16-4.03,1.14-5.22,2.83-.96,1.37-1.5,2.96-1.94,4.58-.07.26-.45.21-.46-.05-.03-.94.02-1.88.13-2.82.03-.23-.26-.35-.41-.17-.91,1.09-1.7,2.27-2.37,3.52-.1.19-.38.16-.43-.05-.96-3.56,1.6-6.65,3.39-9.66.12-.2.41-.13.43.1Z"/>
      </g>
      <path class="cls-7" d="M51.92,202.78c.94-.05,1.85-.1,2.74-.15-.89.05-1.8.1-2.74.15Z"/>
      <g>
        <path class="cls-1" d="M130.17,126.47c6.58,1.66,13.58,2.18,20.14.43,6.56-1.75,12.63-5.95,15.71-12,3.08-6.05,2.71-13.96-1.68-19.14,5.25-.41,9.83-4.42,11.68-9.34,1.86-4.93,1.24-10.56-.88-15.38-2.12-4.82-5.62-8.92-9.49-12.48,2.57,2.37,7.51-10.19,8-11.77,4.04-12.79,3.72-27.75-7.73-36.46-4.32-3.29-9.46-5.39-14.71-6.77-3.56-.94-7.21-1.56-10.89-1.6-9.34-.1-18.32,3.57-26.57,7.95.56-.11,1.12-.21,1.67-.32-2.86.91-6.38-1.07-9.08-2.39C95.44,1.84,82.6-.3,70.93,3.15c-11.67,3.46-21.76,13.08-24.02,25.04-.03.16-8.48,2.48-9.29,2.76-6.58,2.32-15.15,7.63-15.17,15.61-.01,4.14,2.83,7.66,5.53,10.79-4.17,2.15-5.39,7.56-5.23,12.25.37,10.89,5.91,21.48,14.65,27.99,1.16.86,1.83,2.19,1.94,3.62.53,6.84,5.16,13.12,11.44,15.81,5.72,2.45,12.66,1.84,17.87-1.57,4.28,9.18,13.99,15.8,23.85,18.12,9.86,2.32,20.73-.12,28.66-6.44,1.36-1.08,2.66-2.29,4.27-2.93s3.56,1.01,4.76,2.26Z"/>
        <ellipse class="cls-13" cx="141.7" cy="36.43" rx="31.21" ry="23.33" transform="translate(-.05 .19) rotate(-.08)"/>
        <ellipse class="cls-13" cx="82.26" cy="23.33" rx="26.79" ry="20.02" transform="translate(-.03 .11) rotate(-.08)"/>
        <ellipse class="cls-13" cx="47.86" cy="46.38" rx="13.91" ry="11.78" transform="translate(-.06 .06) rotate(-.08)"/>
        <ellipse class="cls-13" cx="43.39" cy="76.61" rx="13.98" ry="18.54" transform="translate(-35.45 115.78) rotate(-86.89)"/>
        <ellipse class="cls-13" cx="59.41" cy="105.16" rx="13.98" ry="18.54" transform="translate(-48.82 158.79) rotate(-86.89)"/>
        <ellipse class="cls-3" cx="82.25" cy="20.89" rx="24.58" ry="18.37" transform="translate(-.03 .11) rotate(-.08)"/>
        <ellipse class="cls-3" cx="43.47" cy="44.55" rx="17.33" ry="12.96" transform="translate(-.06 .06) rotate(-.08)"/>
        <ellipse class="cls-3" cx="41.67" cy="73.26" rx="19.18" ry="15.75" transform="translate(-.1 .06) rotate(-.08)"/>
        <ellipse class="cls-3" cx="60.89" cy="102.98" rx="17.05" ry="14" transform="translate(-.14 .08) rotate(-.08)"/>
        <ellipse class="cls-13" cx="155.1" cy="80.84" rx="20.15" ry="17.35" transform="translate(-.11 .21) rotate(-.08)"/>
        <ellipse class="cls-13" cx="124.19" cy="90.48" rx="15.89" ry="13.58" transform="translate(-.12 .17) rotate(-.08)"/>
        <ellipse class="cls-3" cx="141.7" cy="31.47" rx="31.21" ry="23.33" transform="translate(-.04 .19) rotate(-.08)"/>
        <ellipse class="cls-3" cx="152.71" cy="77.09" rx="20.15" ry="17.35" transform="translate(-.1 .2) rotate(-.08)"/>
        <ellipse class="cls-3" cx="121.8" cy="86.73" rx="15.89" ry="13.58" transform="translate(-.12 .16) rotate(-.08)"/>
        <path class="cls-14" d="M81.41,43.76s6.22,0,6.22,0c-.35,12.19-1.07,24.38-1.12,36.57-.03,6.84,2.39,14.29,7.15,19.32,4.99,5.27,13.01,6.75,19.35,9.82,16.94,8.19,25.87,25.99,26.85,44.32.1,1.89.91,7.79-.35,9.28,0,0-5.43,6.42-21.38,1.58.11-4.18.21-8.36.32-12.54.17-6.76,1.55-14.66-.69-21.14-1.26-3.64-4.11-6.11-7.5-7.8-3.16-1.57-6.62-2.3-9.86-3.64-7.04-2.91-12.9-7.28-15.65-14.6-3.06-8.14-3.84-16.97-3.71-25.6.17-11.85.39-23.7.38-35.55Z"/>
        <path class="cls-14" d="M149.66,98.19h7.44s-7.65,12.54-33.68,19.99c0,0-4.78-3.75-7.89-6.53-3.18-2.84,25.36-.74,34.14-13.46Z"/>
        <path class="cls-14" d="M84.73,64.3s15.98,4.46,31.93-13.82l1.27.76s-12.14,20.98-32.69,18.3l-.51-5.24Z"/>
        <path class="cls-14" d="M61.28,48.39s8.46,8.35,21.01,7.26v5.73s-14.07-.47-22.96-10.37l1.95-2.63Z"/>
        <path class="cls-15" d="M49.26,85.12s-3.89-1.74,1.54-9.33c0,0,2.73,6.41-1.54,9.33Z"/>
        <path class="cls-15" d="M42.64,84.21s-4.02,1.43-5.33-7.81c0,0,6.4,2.75,5.33,7.81Z"/>
        <path class="cls-15" d="M63.5,114.7s-4.02,1.43-5.33-7.81c0,0,6.4,2.75,5.33,7.81Z"/>
        <path class="cls-15" d="M144.32,52.15s-4.02,1.43-5.33-7.81c0,0,6.4,2.75,5.33,7.81Z"/>
        <path class="cls-15" d="M148.87,48.27s-2.41-3.52,6.18-7.16c0,0-1.01,6.9-6.18,7.16Z"/>
        <path class="cls-15" d="M87.81,35.12s-2.41-3.52,6.18-7.16c0,0-1.01,6.9-6.18,7.16Z"/>
        <path class="cls-15" d="M154.15,92.44s-2.41-3.52,6.18-7.16c0,0-1.01,6.9-6.18,7.16Z"/>
        <path class="cls-15" d="M124.51,98.23s-2.41-3.52,6.18-7.16c0,0-1.01,6.9-6.18,7.16Z"/>
        <path class="cls-15" d="M45.44,54.15s-2.41-3.52,6.18-7.16c0,0-1.01,6.9-6.18,7.16Z"/>
        <path class="cls-3" d="M95.15,59.82s-2.41-3.52,6.18-7.16c0,0-1.01,6.9-6.18,7.16Z"/>
        <path class="cls-3" d="M91.12,83.98s-2.41-3.52,6.18-7.16c0,0-1.01,6.9-6.18,7.16Z"/>
        <path class="cls-3" d="M77.73,83.73s-3.54,2.38-7.1-6.25c0,0,6.89,1.08,7.1,6.25Z"/>
        <path class="cls-3" d="M76.16,69.85s-3.54,2.38-7.1-6.25c0,0,6.89,1.08,7.1,6.25Z"/>
        <path class="cls-3" d="M116.25,108.07s-3.54,2.38-7.1-6.25c0,0,6.89,1.08,7.1,6.25Z"/>
        <path class="cls-3" d="M112.63,51.3s-3.54,2.38-7.1-6.25c0,0,6.89,1.08,7.1,6.25Z"/>
        <path class="cls-3" d="M112.57,6.25s-3.54,2.38-7.1-6.25c0,0,6.89,1.08,7.1,6.25Z"/>
        <path class="cls-3" d="M43.51,26.36s-3.54,2.38-7.1-6.25c0,0,6.89,1.08,7.1,6.25Z"/>
        <path class="cls-3" d="M172.13,62.02s-.81-4.19,8.52-4.1c0,0-3.68,5.92-8.52,4.1Z"/>
        <path class="cls-8" d="M83.58,47.12c-.03-.07-.05-.14-.08-.21-1.81,3.48-.85,7.68-.32,11.57.92,6.71.42,13.53.24,20.3-.25,9.66.35,20.62,6.86,28.37,3.71,4.41,8.97,7.23,14.35,9.3,5.38,2.07,10.99,3.5,16.3,5.75.02-2.17-1.84-3.9-3.72-4.98-6.45-3.7-14.2-3.69-20.31-8.18-11.26-8.28-12.53-24.33-13.14-37.22-.2-4.33-.14-8.68.19-13,.29-3.86,1.03-7.97-.37-11.7Z"/>
        <path class="cls-8" d="M136.56,152.3c.23,1.7.36,3.42.34,5.14-.01,1.35-.13,2.74-.72,3.95-1.25,2.56-4.16,2.75-6.66,2.46-1.45-.17-2.9-.45-4.32-.79-.88-.21-1.82-.5-2.38-1.22-2.01-2.6,3.12-3.39,4.52-3.62,2.29-.36,4.1-.84,5.42-2.92,1.14-1.8,1.53-4,1.47-6.14-.08-2.61-2.22-6.81-1.35-9.23.86.18,1.23,1.19,1.45,2.04.88,3.41,1.76,6.85,2.23,10.33Z"/>
      </g>
      <path class="cls-10" d="M84.81,165.88c-2.19-1.25-4.89-2.46-4.81-5.5.05-2.04,1.94-1.21,2.68-2.41.17-.28.17-.63.14-.96-.11-1.33-1.38-3.31-1.14-4.57.3-1.58,3.94-.56,4.77-.14-1.11-.56-.48-4.11.38-4.53,1.44-.71,4.9.66,6.52.68-.42-3.11-2.22-5.56-1.47-8.91.26-1.18.84-2.28,1.71-3.11,3.17-3.03,7.38-.75,8.98,2.45,1.16,2.33.43,5.06,1.44,7.39,2.46-.6,5.19-3.17,7.64-4.28.46-.21.94-.41,1.44-.37,2.41.18,1.56,5.6,1.28,7.06.38-1.97,3.31-3.12,5.02-3.42,4.15-.73,2.89,3.78,2.62,6.59,1.16-.96,3.74-.75,5.07-.22,1.76.7,2.87,2.25,2.81,4.17-.15,4.84-6.78,6.78-10.39,8.26-6.29,2.59-12.61,5.83-19.64,4.99-2.06-.25-4.27-.83-6.14.08-1.46.71-5.73,7.16-7.61,4.38-.43-.63-.21-1.6.44-2-2.32.12-7.86.77-7.54-3.05.23-2.71,3.68-3.79,5.78-2.58Z"/>
      <path class="cls-2" d="M89.88,168.01c-1.62-.93-3.63-1.82-3.57-4.08.04-1.52,1.44-.9,1.99-1.79.13-.21.12-.47.1-.71-.08-.99-1.02-2.46-.84-3.4.22-1.17,2.93-.42,3.54-.1-.82-.42-.36-3.05.28-3.37,1.07-.53,3.64.49,4.84.5-.31-2.31-1.65-4.13-1.09-6.62.2-.87.62-1.69,1.27-2.31,2.36-2.25,5.48-.56,6.67,1.82.86,1.73.32,3.76,1.07,5.49,1.82-.44,3.85-2.35,5.68-3.18.34-.15.7-.3,1.07-.28,1.79.13,1.16,4.16.95,5.24.28-1.46,2.46-2.32,3.73-2.54,3.08-.54,2.15,2.81,1.95,4.89.86-.71,2.78-.55,3.77-.16,1.31.52,2.13,1.67,2.08,3.1-.11,3.6-5.04,5.03-7.71,6.13-4.67,1.92-9.36,4.33-14.58,3.71-1.53-.18-3.17-.61-4.56.06-1.08.53-4.26,5.31-5.65,3.25-.32-.47-.16-1.19.33-1.48-1.72.09-5.84.57-5.6-2.27.17-2.01,2.73-2.82,4.29-1.91Z"/>
      <path class="cls-10" d="M137.07,159.22c-1.63-1.92-3.76-3.97-2.66-6.8.74-1.9,2.23-.48,3.34-1.36.26-.2.37-.54.46-.85.35-1.29-.17-3.58.48-4.69.81-1.38,3.9.81,4.54,1.49-.85-.9.94-4.03,1.9-4.14,1.59-.18,4.39,2.28,5.9,2.85.66-3.07-.2-5.98,1.64-8.88.65-1.02,1.56-1.86,2.66-2.35,4.01-1.78,7.2,1.8,7.62,5.36.3,2.58-1.31,4.91-1.15,7.44,2.51.27,5.96-1.22,8.64-1.43.5-.04,1.02-.07,1.48.14,2.21.99-.44,5.8-1.2,7.08,1.02-1.72,4.17-1.81,5.88-1.51,4.15.72,1.44,4.54.23,7.09,1.42-.51,3.77.57,4.85,1.52,1.42,1.25,1.93,3.09,1.22,4.88-1.79,4.5-8.68,4.07-12.57,4.24-6.79.3-13.84,1.21-20.17-1.97-1.86-.93-3.73-2.22-5.8-2.01-1.61.17-7.82,4.79-8.64,1.53-.19-.74.34-1.58,1.09-1.73-2.22-.68-7.66-1.94-6.05-5.43,1.14-2.47,4.75-2.32,6.31-.46Z"/>
      <path class="cls-2" d="M140.62,169.74c-1.62-.93-3.63-1.82-3.57-4.08.04-1.52,1.44-.9,1.99-1.79.13-.21.12-.47.1-.71-.08-.99-1.02-2.46-.84-3.4.22-1.17,2.93-.42,3.54-.1-.82-.42-.36-3.05.28-3.37,1.07-.53,3.64.49,4.84.5-.31-2.31-1.65-4.13-1.09-6.62.2-.87.62-1.69,1.27-2.31,2.36-2.25,5.48-.56,6.67,1.82.86,1.73.32,3.76,1.07,5.49,1.82-.44,3.85-2.35,5.68-3.18.34-.15.7-.3,1.07-.28,1.79.13,1.16,4.16.95,5.24.28-1.46,2.46-2.32,3.73-2.54,3.08-.54,2.15,2.81,1.95,4.89.86-.71,2.78-.55,3.77-.16,1.31.52,2.13,1.67,2.08,3.1-.11,3.6-5.04,5.03-7.71,6.13-4.67,1.92-9.36,4.33-14.58,3.71-1.53-.18-3.17-.61-4.56.06-1.08.53-4.26,5.31-5.65,3.25-.32-.47-.16-1.19.33-1.48-1.72.09-5.84.57-5.6-2.27.17-2.01,2.73-2.82,4.29-1.91Z"/>
      <path class="cls-2" d="M265.54,164.56c-1.63-1.92-3.76-3.97-2.66-6.8.74-1.9,2.23-.48,3.34-1.36.26-.2.37-.54.46-.85.35-1.29-.17-3.58.48-4.69.81-1.38,3.9.81,4.54,1.49-.85-.9.94-4.03,1.9-4.14,1.59-.18,4.39,2.28,5.9,2.85.66-3.07-.2-5.98,1.64-8.88.65-1.02,1.56-1.86,2.66-2.35,4.01-1.78,7.2,1.8,7.62,5.36.3,2.58-1.31,4.91-1.15,7.44,2.51.27,5.96-1.22,8.64-1.43.5-.04,1.02-.07,1.48.14,2.21.99-.44,5.8-1.2,7.08,1.02-1.72,4.17-1.81,5.88-1.51,4.15.72,1.44,4.54.23,7.09,1.42-.51,3.77.57,4.85,1.52,1.42,1.25,1.93,3.09,1.22,4.88-1.79,4.5-8.68,4.07-12.57,4.24-6.79.3-13.84,1.21-20.17-1.97-1.86-.93-3.73-2.22-5.8-2.01-1.61.17-7.82,4.79-8.64,1.53-.19-.74.34-1.58,1.09-1.73-2.22-.68-7.66-1.94-6.05-5.43,1.14-2.47,4.75-2.32,6.31-.46Z"/>
      <path class="cls-17" d="M269.09,175.08c-1.62-.93-3.63-1.82-3.57-4.08.04-1.52,1.44-.9,1.99-1.79.13-.21.12-.47.1-.71-.08-.99-1.02-2.46-.84-3.4.22-1.17,2.93-.42,3.54-.1-.82-.42-.36-3.05.28-3.37,1.07-.53,3.64.49,4.84.5-.31-2.31-1.65-4.13-1.09-6.62.2-.87.62-1.69,1.27-2.31,2.36-2.25,5.48-.56,6.67,1.82.86,1.73.32,3.76,1.07,5.49,1.82-.44,3.85-2.35,5.68-3.18.34-.15.7-.3,1.07-.28,1.79.13,1.16,4.16.95,5.24.28-1.46,2.46-2.32,3.73-2.54,3.08-.54,2.15,2.81,1.95,4.89.86-.71,2.78-.55,3.77-.16,1.31.52,2.13,1.67,2.08,3.1-.11,3.6-5.04,5.03-7.71,6.13-4.67,1.92-9.36,4.33-14.58,3.71-1.53-.18-3.17-.61-4.56.06-1.08.53-4.26,5.31-5.65,3.25-.32-.47-.16-1.19.33-1.48-1.72.09-5.84.57-5.6-2.27.17-2.01,2.73-2.82,4.29-1.91Z"/>
      <g>
        <path class="cls-7" d="M323.12,202.72c1.57-.28,3.14-.57,4.69-.88-1.56.31-3.13.61-4.69.88Z"/>
        <g>
          <path class="cls-7" d="M359.03,188.08h0s-.35,2.31-.35,2.31c-5.19,3.03-11.64,5.54-18.71,7.62-.05.02-.09.03-.14.04-.46.14-.92.27-1.39.4-.31.09-.61.17-.92.26-.54.15-1.09.3-1.64.44-.35.09-.7.19-1.06.27-.5.13-1.01.26-1.52.38-1.63.4-3.28.79-4.95,1.14-.55.13-1.1.24-1.65.36-.89.19-1.77.37-2.67.54-1.56.31-3.13.61-4.69.88-.78.14-1.55.28-2.33.4-2.19.37-4.37.71-6.53,1.03-.44.07-.89.13-1.33.19-2.04.29-4.06.56-6.04.8-19.82,2.44-36.24,2.79-36.24,2.79.6,1.3-.09,2.84-1.46,3.22-28.51,8.06-106.09,6.41-106.09,6.41-18.05,1.14-102.18-5.63-107.21-8.41-3.34-1.85,3.2-4.55,7.95-6.14.55-.19.39-1.01-.19-.96-.63.04-1.32.09-2.06.14-.25.02-.51.04-.77.06-.3.02-.61.04-.92.06-.34.02-.69.04-1.05.07-.26.02-.52.03-.8.05-.27.02-.54.03-.81.05-.28.02-.56.03-.84.05-.57.03-1.15.07-1.74.1-.89.04-1.8.1-2.74.15h-.02c-15.28.75-37.01,1.07-45.33-2.5-.49-.21-.92-.43-1.27-.65-9.27-5.79,27.31-14.64,27.31-14.64l-3.32-1.78c-1.35-.72-1.06-2.73.43-3.04l54.97-11.62s69.4-9.4,119.65-9.65c50.25-.25,101.62,6.75,105.71,8.61,2.69,1.22-.88,2.29-3.65,2.87-.6.13-.6.97,0,1.12,40.9,9.77,53.09,14.43,56.41,16.58h0Z"/>
          <path class="cls-2" d="M326.38,188.12h0s-.29,1.89-.29,1.89c-4.25,2.48-9.53,4.53-15.31,6.23-.04.01-.08.02-.12.03-.38.11-.76.22-1.14.33-.25.07-.5.14-.75.21-.44.12-.89.24-1.34.36-.29.08-.58.15-.87.22-.41.11-.83.21-1.24.31-1.34.33-2.69.64-4.05.94-.45.1-.9.2-1.35.29-.72.15-1.45.3-2.18.45-1.27.25-2.56.5-3.84.72-.63.11-1.27.23-1.9.33-1.79.31-3.57.58-5.34.84-.36.05-.73.11-1.09.16-1.67.24-3.32.46-4.94.66-16.21,2-29.65,2.28-29.65,2.28.49,1.06-.07,2.32-1.2,2.64-23.32,6.59-86.8,5.25-86.8,5.25-14.77.94-83.6-4.61-87.71-6.88-2.73-1.52,2.62-3.72,6.51-5.02.45-.15.32-.82-.16-.79-.52.04-1.08.08-1.69.12-.21.01-.42.03-.63.05-.25.02-.5.03-.75.05-.28.02-.56.04-.86.05-.21.01-.43.03-.65.04-.22.01-.44.03-.67.04-.23.01-.46.03-.69.04-.47.03-.94.05-1.43.08-.72.04-1.47.08-2.24.12h-.01c-12.5.62-30.28.88-37.09-2.04-.4-.17-.75-.35-1.04-.53-7.59-4.74,22.34-11.98,22.34-11.98l-2.72-1.46c-1.1-.59-.87-2.23.35-2.49l44.98-9.51s56.78-7.69,97.89-7.89c41.11-.21,83.14,5.52,86.49,7.04,2.2,1-.72,1.87-2.98,2.35-.49.1-.49.8,0,.92,33.46,8,43.44,11.81,46.15,13.56h0Z"/>
          <path class="cls-17" d="M299.68,188.16h0s-.24,1.54-.24,1.54c-3.47,2.03-7.79,3.71-12.52,5.1-.03.01-.06.02-.1.03-.31.09-.62.18-.93.27-.2.06-.41.11-.61.17-.36.1-.73.2-1.1.29-.23.06-.47.13-.71.18-.34.09-.68.17-1.02.26-1.09.27-2.2.53-3.31.77-.37.08-.74.16-1.1.24-.59.13-1.19.25-1.79.36-1.04.21-2.09.41-3.14.59-.52.09-1.04.18-1.56.27-1.46.25-2.92.48-4.37.69-.3.04-.6.09-.89.13-1.36.2-2.71.37-4.04.54-13.27,1.64-24.26,1.87-24.26,1.87.4.87-.06,1.9-.98,2.16-19.08,5.39-71.02,4.29-71.02,4.29-12.08.77-68.4-3.77-71.77-5.63-2.24-1.24,2.14-3.04,5.32-4.11.37-.12.26-.67-.13-.64-.42.03-.89.06-1.38.1-.17.01-.34.03-.52.04-.2.01-.41.03-.61.04-.23.01-.46.03-.7.04-.18.01-.35.02-.53.03-.18.01-.36.02-.55.03-.19.01-.37.02-.56.03-.38.02-.77.04-1.17.07-.59.03-1.2.06-1.83.1h-.01c-10.23.5-24.78.72-30.35-1.67-.33-.14-.62-.29-.85-.43-6.21-3.88,18.28-9.8,18.28-9.8l-2.22-1.19c-.9-.48-.71-1.83.29-2.04l36.8-7.78s46.46-6.29,80.09-6.46c33.64-.17,68.02,4.52,70.77,5.76,1.8.82-.59,1.53-2.44,1.92-.4.08-.4.65,0,.75,27.38,6.54,35.54,9.66,37.76,11.1h0Z"/>
        </g>
        <path class="cls-5" d="M358.1,190.1l-1.56,10.18c-.35.34-.72.66-1.1.97-7.45,6.18-18.24,6.87-18.24,6.87-50.05,10.49-73.31,7.55-73.31,7.55l-1.11,5.2c-25.16,14.49-101.41,13.53-101.41,13.53-96.96-.99-105.53-12.7-105.53-12.7l-1.31-5.95c-48.2-.49-52.49-6.44-52.49-6.44l-.14-1.27-.96-8.69c.36.22.78.44,1.27.65,8.32,3.57,30.04,3.25,45.32,2.5h.01c4.73-.24,8.84-.51,11.75-.73.58-.04.74.78.19.96-4.75,1.59-11.29,4.28-7.95,6.14,5.03,2.78,89.16,9.56,107.21,8.41,0,0,77.58,1.65,106.09-6.41,1.37-.38,2.06-1.92,1.46-3.22,0,0,16.42-.35,36.24-2.79,12.01-1.48,25.26-3.73,36.86-7.14,7.07-2.08,13.52-4.59,18.71-7.62Z"/>
        <path class="cls-19" d="M69.5,181.98s.06-.04.1-.06c1.41-.68,32.22-15,118-14.18,0,0,74.52-2.29,86.2,6.89,0,0,5.24,3.46-11.63,7.05-.02,0-.04,0-.06,0-.53.06-8.64.98-4.49,1.67,4.11.68-1.84,2.03-2.34,2.14-.03,0-.04.01-.07.02-.44.16-4.84,1.82,2.18,2.2,7.38.4,18.57.38,19.05,3s-42.83,14.1-89.97,11.07c-.02,0-.03,0-.04,0-.92.02-32.43.52-37.36-1.48s3.33-2.04,3.33-2.04c-6.16,0-12.5,2.97-18.33-.5-.42-.25-.37-.88.09-1.06.3-.12.64-.27.98-.42.62-.26.4-1.19-.27-1.16-2.85.15-5.78.66-8.56.77-4.31.16-8.62.16-12.93,0-11.21-.42-21.68-2.81-32.66-4.68,0,0-19.4-3.3-11.22-9.24Z"/>
        <path class="cls-6" d="M82.42,182.41s.05-.04.08-.05c1.2-.58,27.49-12.79,100.65-12.1,0,0,63.57-1.95,73.53,5.87,0,0,4.47,2.95-9.92,6.02-.02,0-.03,0-.05,0-.45.05-7.37.84-3.83,1.42,3.5.58-1.57,1.73-2,1.82-.02,0-.04,0-.06.02-.38.14-4.13,1.55,1.86,1.88,6.3.34,15.84.32,16.25,2.56s-36.53,12.03-76.74,9.45c-.01,0-.02,0-.04,0-.78.01-27.66.44-31.87-1.26-4.27-1.73,2.84-1.74,2.84-1.74-5.25,0-10.66,2.54-15.64-.42-.36-.21-.31-.75.07-.91.25-.11.54-.23.84-.35.53-.23.34-1.02-.23-.99-2.43.13-4.93.56-7.3.65-3.67.14-7.35.14-11.03,0-9.57-.36-18.49-2.4-27.85-3.99,0,0-16.55-2.81-9.57-7.88Z"/>
        <path class="cls-12" d="M92.48,181.98s.05-.03.07-.04c1.03-.5,23.54-10.95,86.19-10.36,0,0,54.43-1.67,62.96,5.03,0,0,3.82,2.53-8.49,5.15-.01,0-.03,0-.04,0-.39.04-6.31.72-3.28,1.22s-1.35,1.48-1.71,1.56c-.02,0-.03,0-.05.01-.32.12-3.54,1.33,1.59,1.61,5.39.29,13.57.28,13.92,2.19s-31.28,10.3-65.71,8.09c-.01,0-.02,0-.03,0-.67.01-23.69.38-27.29-1.08-3.65-1.48,2.43-1.49,2.43-1.49-4.5,0-9.13,2.17-13.39-.36-.31-.18-.27-.64.06-.78.22-.09.46-.19.72-.3.45-.19.29-.87-.19-.84-2.08.11-4.22.48-6.25.56-3.15.12-6.3.12-9.44,0-8.19-.31-15.83-2.05-23.85-3.42,0,0-14.17-2.41-8.2-6.75Z"/>
        <path class="cls-18" d="M128.56,179.05s.03-.02.04-.02c.57-.27,12.97-6.04,47.51-5.71,0,0,30.01-.92,34.71,2.77,0,0,2.11,1.39-4.68,2.84,0,0-.02,0-.02,0-.21.02-3.48.4-1.81.67s-.74.82-.94.86c-.01,0-.02,0-.03,0-.18.06-1.95.73.88.89,2.97.16,7.48.15,7.67,1.21s-17.24,5.68-36.22,4.46c0,0-.01,0-.02,0-.37,0-13.06.21-15.04-.6s1.34-.82,1.34-.82c-2.48,0-5.03,1.2-7.38-.2-.17-.1-.15-.35.03-.43.12-.05.26-.11.39-.17.25-.11.16-.48-.11-.47-1.15.06-2.33.27-3.45.31-1.73.07-3.47.06-5.21,0-4.52-.17-8.73-1.13-13.15-1.88,0,0-7.81-1.33-4.52-3.72Z"/>
      </g>
    </g>
  </g>
</svg>