<?xml version="1.0" encoding="UTF-8"?>
<svg id="Capa_2" data-name="Capa 2" xmlns="http://www.w3.org/2000/svg" viewBox="0 0 551.4 90.28">
  <defs>
    <style>
      .cls-1 {
        fill: #689d2f;
      }

      .cls-2 {
        fill: #693822;
      }

      .cls-3 {
        fill: #c6e6f2;
      }

      .cls-4 {
        fill: #3f762f;
      }

      .cls-5 {
        fill: #a8dbf1;
      }

      .cls-6 {
        fill: #a7ca53;
      }

      .cls-7 {
        fill: #41b5e1;
      }

      .cls-8 {
        fill: #41b4e0;
      }
    </style>
  </defs>
  <g id="Capa_1-2" data-name="Capa 1">
    <g>
      <g>
        <path class="cls-2" d="M551.4,45.14h0s-.55,3.54-.55,3.54c-7.98,4.64-17.89,8.48-28.75,11.66-.08.03-.14.04-.22.06-.71.21-1.42.41-2.13.61-.47.13-.94.26-1.41.39-.83.23-1.67.45-2.52.67-.54.14-1.08.29-1.63.42-.77.2-1.55.39-2.33.59-2.51.61-5.05,1.2-7.61,1.75-.84.19-1.69.37-2.54.55-1.36.29-2.72.56-4.1.83-2.39.47-4.8.92-7.21,1.34-1.19.21-2.38.42-3.58.61-3.36.57-6.71,1.08-10.03,1.56-.68.1-1.37.2-2.05.29-3.13.44-6.23.85-9.28,1.22-30.44,3.71-55.66,4.21-55.66,4.21.92,2-.14,4.36-2.25,4.94-43.8,12.32-162.94,9.63-162.94,9.63-27.72,1.72-156.91-8.86-164.63-13.14-5.13-2.85,4.92-6.98,12.22-9.41.85-.29.6-1.54-.29-1.48-.97.07-2.03.14-3.17.22-.39.03-.78.06-1.18.08-.46.03-.93.06-1.41.09-.52.03-1.06.07-1.61.1-.4.03-.81.05-1.23.08-.41.03-.82.05-1.25.08-.43.03-.86.05-1.29.08-.87.05-1.76.1-2.68.15-1.36.07-2.76.14-4.21.22h-.03c-23.47,1.13-56.85,1.57-69.62-3.93-.76-.33-1.41-.66-1.96-1-14.23-8.92,41.97-22.43,41.97-22.43l-5.1-2.75c-2.07-1.11-1.62-4.19.67-4.67L124.3,14.58S230.91.29,308.08,0c77.17-.29,156.05,10.58,162.34,13.43,4.13,1.88-1.35,3.51-5.61,4.41-.92.19-.92,1.49,0,1.72,62.79,15.1,81.5,22.27,86.6,25.57h0Z"/>
        <path class="cls-4" d="M480.83,38.76h0s-.41,2.64-.41,2.64c-5.93,3.45-13.31,6.31-21.39,8.68-.06.02-.11.03-.16.04-.52.16-1.06.31-1.59.46-.35.1-.7.19-1.05.29-.62.17-1.24.34-1.87.5-.4.11-.81.21-1.21.31-.57.15-1.16.29-1.74.44-1.87.46-3.75.89-5.66,1.3-.62.14-1.26.27-1.89.41-1.01.21-2.02.42-3.05.62-1.78.35-3.57.69-5.37,1-.89.16-1.77.31-2.66.46-2.5.42-4.99.81-7.46,1.16-.51.07-1.02.15-1.52.22-2.33.33-4.63.63-6.9.91-22.65,2.76-41.41,3.14-41.41,3.14.69,1.49-.11,3.24-1.67,3.68-32.59,9.16-121.23,7.16-121.23,7.16-20.63,1.28-116.75-6.59-122.49-9.78-3.82-2.12,3.66-5.19,9.1-7,.63-.21.44-1.15-.22-1.1-.72.05-1.51.11-2.35.16-.29.02-.58.04-.88.06-.34.03-.69.04-1.05.07-.39.03-.79.05-1.2.07-.3.02-.6.04-.91.06-.31.02-.61.04-.93.06-.32.02-.64.04-.96.06-.65.04-1.31.07-1.99.11-1.01.05-2.06.11-3.13.16h-.02c-17.47.84-42.3,1.17-51.8-2.92-.56-.24-1.05-.49-1.46-.74-10.59-6.63,31.23-16.69,31.23-16.69l-3.79-2.04c-1.54-.82-1.21-3.12.5-3.47l62.83-13.2s79.32-10.63,136.73-10.84c57.42-.21,116.1,7.87,120.78,9.99,3.07,1.4-1.01,2.61-4.17,3.28-.68.14-.69,1.11,0,1.28,46.72,11.23,60.64,16.57,64.43,19.03h0Z"/>
        <path class="cls-1" d="M379.94,28.91h0s-.2,1.27-.2,1.27c-2.87,1.67-6.43,3.05-10.34,4.19-.03,0-.05.02-.08.02-.25.08-.51.15-.77.22-.17.05-.34.09-.51.14-.3.08-.6.16-.91.24-.19.05-.39.1-.59.15-.28.07-.56.14-.84.21-.9.22-1.81.43-2.74.63-.3.07-.61.13-.91.2-.49.1-.98.2-1.47.3-.86.17-1.73.33-2.59.48-.43.08-.86.15-1.29.22-1.21.21-2.41.39-3.61.56-.24.04-.49.07-.74.11-1.13.16-2.24.3-3.34.44-10.95,1.33-20.02,1.52-20.02,1.52.33.72-.05,1.57-.81,1.78-15.75,4.43-58.6,3.46-58.6,3.46-9.97.62-56.43-3.19-59.2-4.73-1.84-1.03,1.77-2.51,4.4-3.38.3-.1.21-.56-.11-.53-.35.02-.73.05-1.14.08-.14,0-.28.02-.43.03-.17.01-.34.02-.51.03-.19.01-.38.02-.58.04-.14,0-.29.02-.44.03-.15,0-.3.02-.45.03-.15,0-.31.02-.46.03-.31.02-.63.04-.96.05-.49.02-.99.05-1.51.08h0c-8.44.4-20.44.56-25.04-1.41-.27-.12-.51-.24-.7-.36-5.12-3.21,15.09-8.07,15.09-8.07l-1.83-.99c-.74-.4-.58-1.51.24-1.68l30.37-6.38s38.34-5.14,66.09-5.24c27.75-.1,56.12,3.8,58.38,4.83,1.49.68-.49,1.26-2.02,1.59-.33.07-.33.54,0,.62,22.58,5.43,29.31,8.01,31.14,9.2h0Z"/>
        <path class="cls-6" d="M361.92,28.91h0s-.16,1.04-.16,1.04c-2.35,1.37-5.26,2.5-8.46,3.43-.02,0-.04.01-.06.02-.21.06-.42.12-.63.18-.14.04-.28.08-.42.12-.24.07-.49.13-.74.2-.16.04-.32.08-.48.12-.23.06-.46.12-.69.17-.74.18-1.48.35-2.24.51-.25.06-.5.11-.75.16-.4.08-.8.17-1.21.24-.7.14-1.41.27-2.12.4-.35.06-.7.12-1.05.18-.99.17-1.97.32-2.95.46-.2.03-.4.06-.6.09-.92.13-1.83.25-2.73.36-8.96,1.09-16.38,1.24-16.38,1.24.27.59-.04,1.28-.66,1.46-12.89,3.62-47.94,2.83-47.94,2.83-8.16.51-46.17-2.61-48.44-3.87-1.51-.84,1.45-2.05,3.6-2.77.25-.08.18-.45-.09-.43-.29.02-.6.04-.93.06-.11,0-.23.02-.35.02-.14,0-.27.02-.42.03-.15,0-.31.02-.47.03-.12,0-.24.01-.36.02-.12,0-.24.01-.37.02-.13,0-.25.01-.38.02-.26.01-.52.03-.79.04-.4.02-.81.04-1.24.06h0c-6.91.33-16.73.46-20.48-1.16-.22-.1-.42-.2-.58-.29-4.19-2.62,12.35-6.6,12.35-6.6l-1.5-.81c-.61-.33-.48-1.23.2-1.37l24.85-5.22s31.37-4.2,54.07-4.29c22.71-.08,45.92,3.11,47.77,3.95,1.22.55-.4,1.03-1.65,1.3-.27.06-.27.44,0,.51,18.48,4.44,23.98,6.55,25.48,7.52h0Z"/>
        <path class="cls-2" d="M401.35,30.27l-1.06,6.87c-.24.23-.49.45-.74.65-5.03,4.17-12.32,4.62-12.32,4.62-33.8,7.04-49.5,5.03-49.5,5.03l-.75,3.51c-17,9.76-68.47,9.04-68.47,9.04-65.45-.75-71.23-8.67-71.23-8.67l-.88-4.02c-32.54-.38-35.43-4.4-35.43-4.4l-.09-.86-.64-5.86c.24.15.53.3.86.44,5.61,2.42,20.27,2.22,30.59,1.73h0c3.2-.15,5.97-.34,7.93-.48.39-.03.5.52.13.65-3.21,1.07-7.63,2.88-5.37,4.14,3.39,1.88,60.18,6.53,72.36,5.78,0,0,52.37,1.18,71.62-4.23.93-.26,1.39-1.3.99-2.17,0,0,11.09-.22,24.47-1.85,8.11-.99,17.06-2.5,24.89-4.79,4.77-1.4,9.13-3.09,12.64-5.13Z"/>
        <path class="cls-8" d="M206.53,24.53s.04-.03.07-.04c.95-.46,21.77-10.09,79.67-9.47,0,0,50.31-1.48,58.19,4.73,0,0,3.53,2.34-7.86,4.75-.01,0-.03,0-.04,0-.36.04-5.83.66-3.04,1.12,2.77.46-1.25,1.37-1.58,1.44-.02,0-.03,0-.05.01-.3.11-3.27,1.23,1.47,1.49,4.98.27,12.54.27,12.86,2.04s-28.92,9.48-60.74,7.39c-.01,0-.02,0-.03,0-.62,0-21.9.32-25.22-1.03s2.25-1.38,2.25-1.38c-4.16,0-8.44,2-12.38-.35-.28-.17-.25-.59.06-.72.2-.08.43-.18.66-.28.42-.18.27-.8-.18-.78-1.92.1-3.9.44-5.78.51-2.91.11-5.82.1-8.73-.01-7.57-.3-14.63-1.92-22.04-3.19,0,0-13.09-2.24-7.57-6.25Z"/>
        <path class="cls-3" d="M215.26,24.83s.04-.02.06-.03c.81-.39,18.57-8.61,67.96-8.07,0,0,42.91-1.26,49.63,4.03,0,0,3.01,2-6.7,4.05-.01,0-.02,0-.03,0-.31.03-4.98.56-2.59.96,2.37.39-1.06,1.17-1.35,1.23-.01,0-.03,0-.04.01-.25.09-2.79,1.05,1.25,1.27,4.25.23,10.69.23,10.97,1.74s-24.67,8.09-51.81,6.31c0,0-.02,0-.02,0-.53,0-18.68.28-21.51-.88-2.88-1.17,1.92-1.17,1.92-1.17-3.55,0-7.2,1.7-10.56-.3-.24-.14-.21-.51.05-.61.17-.07.37-.15.57-.24.36-.15.23-.69-.15-.67-1.64.09-3.33.38-4.93.43-2.48.09-4.96.08-7.44-.01-6.46-.25-12.48-1.64-18.8-2.72,0,0-11.17-1.91-6.46-5.33Z"/>
        <path class="cls-5" d="M222.05,24.55s.03-.02.05-.03c.7-.33,15.9-7.37,58.19-6.91,0,0,36.75-1.08,42.5,3.45,0,0,2.58,1.71-5.74,3.47,0,0-.02,0-.03,0-.26.03-4.26.48-2.22.82s-.91,1-1.16,1.05c-.01,0-.02,0-.03,0-.22.08-2.39.9,1.07,1.09,3.64.2,9.16.2,9.39,1.49s-21.13,6.92-44.37,5.4c0,0-.01,0-.02,0-.45,0-15.99.24-18.42-.76s1.64-1.01,1.64-1.01c-3.04,0-6.16,1.46-9.04-.26-.21-.12-.18-.43.04-.52.15-.06.31-.13.48-.2.3-.13.2-.59-.13-.57-1.4.07-2.85.32-4.22.37-2.12.08-4.25.07-6.38-.01-5.53-.22-10.69-1.4-16.1-2.33,0,0-9.56-1.64-5.53-4.56Z"/>
      </g>
      <path class="cls-7" d="M246.41,22.61s.02-.01.03-.02c.38-.18,8.76-4.06,32.08-3.81,0,0,20.26-.59,23.43,1.9,0,0,1.42.94-3.16,1.91,0,0-.01,0-.02,0-.14.02-2.35.26-1.22.45s-.5.55-.64.58c0,0-.01,0-.02,0-.12.04-1.32.49.59.6,2.01.11,5.05.11,5.18.82s-11.65,3.82-24.46,2.98c0,0,0,0-.01,0-.25,0-8.82.13-10.15-.42s.91-.55.91-.55c-1.67,0-3.4.8-4.98-.14-.11-.07-.1-.24.02-.29.08-.03.17-.07.27-.11.17-.07.11-.32-.07-.31-.77.04-1.57.18-2.33.21-1.17.04-2.34.04-3.51,0-3.05-.12-5.89-.77-8.87-1.28,0,0-5.27-.9-3.05-2.51Z"/>
    </g>
  </g>
</svg>