<?xml version="1.0" encoding="UTF-8"?>
<svg id="Capa_2" data-name="Capa 2" xmlns="http://www.w3.org/2000/svg" viewBox="0 0 2044.32 1334.78">
  <defs>
    <style>
      .cls-1 {
        fill: #599632;
      }

      .cls-2 {
        fill: #689d2f;
      }

      .cls-3 {
        fill: #6ab53b;
      }

      .cls-4 {
        fill: #c0bcaf;
      }

      .cls-5 {
        fill: #693822;
      }

      .cls-6 {
        fill: #c6e6f2;
      }

      .cls-7 {
        fill: #3f762f;
      }

      .cls-8 {
        fill: #7b4c2d;
      }

      .cls-9 {
        fill: #807c70;
      }

      .cls-10 {
        fill: #9fbc2d;
      }

      .cls-11 {
        fill: #615d52;
      }

      .cls-12 {
        fill: #a8dbf1;
      }

      .cls-13 {
        fill: #45792f;
      }

      .cls-14 {
        fill: #533115;
      }

      .cls-15 {
        fill: #559833;
      }

      .cls-16 {
        fill: #3c3d38;
      }

      .cls-17 {
        fill: #a7ca53;
      }

      .cls-18 {
        fill: #41b5e1;
      }

      .cls-19 {
        fill: #41b4e0;
      }
    </style>
  </defs>
  <g id="Capa_1-2" data-name="Capa 1">
    <g>
      <path class="cls-7" d="M1918.71,1020.93c-1.65,1.01-3.33,2.03-5.03,3.02l1.72-11.22c10.11,6.49,3.31,8.2,3.31,8.2Z"/>
      <g>
        <path class="cls-11" d="M1520.37,941.71c-.61-1.84,41.76-49.74,41.76-49.74l-7.98-34.39s-19.65-13.51-21.49-14.12-70.62-57.72-70.62-57.72l-17.19-14.12-44.21-14.12-38.07,3.68-18.42,22.11-7.98,17.19-7.37,16.58-17.81,32.55-6.75,20.26-4.91,18.42,36.84,39.92,21.49,16.58,162.73-3.07Z"/>
        <path class="cls-9" d="M1520.37,941.71c-.61-1.84,41.76-49.74,41.76-49.74l-7.98-34.39s-19.65-13.51-21.49-14.12-70.62-57.72-70.62-57.72l-17.19-14.12-44.21-14.12-38.07,3.68-18.42,22.11-7.98,17.19-7.37,16.58,8.09,40.74,108.59,83.92h74.92Z"/>
        <path class="cls-16" d="M1303.33,888.57c18.06,15.05,36.11,30.1,54.17,45.14-12.37-12.24-24.74-24.47-37.11-36.71-4.48-4.43-9.2-9.33-10.06-15.56-.56-4.06.61-8.15,2-12.01,2.15-5.99,21.94-44.13,15.11-47.33-2.41,5.3-4.24,10.74-7.16,15.85-2.4,4.21-5.21,8.33-6.19,13.08-.52,2.5-.5,5.09-1.02,7.6-2.14,10.29-5.41,20.35-9.73,29.94Z"/>
        <path class="cls-4" d="M1536.33,911.44c6.23-11.86,11.1-24.44,14.47-37.42.8-3.07,1.51-6.3.82-9.39-.88-3.88-3.89-6.99-7.32-9.01s-7.31-3.12-11.07-4.41c-14.07-4.8-27.18-12.39-38.35-22.21-3.51-3.09-6.84-6.39-10.13-9.71-.94-.95-1.87-1.89-2.81-2.84-6.27-6.36-12.54-12.71-18.82-19.07-4.31-4.36-8.65-8.76-13.76-12.14-4.73-3.13-10.01-5.32-15.25-7.49-12.12-5.02-24.36-10.07-37.28-12.33-3.42-.6-6.98-.99-10.31,0-4.84,1.44-9.14,5.74-14.09,4.78-2.23-.43-4.52.83-5.93,2.61-1.41,1.78-2.12,4-2.77,6.18-1.02,3.37-1.98,6.75-2.9,10.14,3.95-4.88,8.8-9.02,14.23-12.17,4.6-2.66,9.91-4.64,15.15-3.77,4.65.77,8.67,3.68,13.22,4.93,4.42,1.21,9.11.78,13.68,1.1,12.18.83,23.35,6.87,33.66,13.4,6.35,4.03,12.59,8.33,17.94,13.61,3.91,3.86,7.31,8.2,10.85,12.4,14.3,17.02,30.99,32.03,49.42,44.46,4.87,3.28,9.96,6.48,13.6,11.09s5.59,11.07,3.26,16.46c-.98,2.26-2.61,4.17-4.22,6.03-3.87,4.48-7.75,8.96-11.62,13.44.42,1.8,1.85,2.98,3.67,2.66s2.87.49,2.66-1.34Z"/>
        <polygon class="cls-9" points="1337.5 863.43 1324.33 880.36 1442.83 941.71 1337.5 863.43"/>
        <path class="cls-4" d="M1458.31,836.95l-.28,3.37c-.05.57-.68.89-1.17.59l-28.16-17.2c-13.29-8.12-26.98-15.59-41-22.37-.87-.42-1.55.82-.75,1.34,8.94,5.79,17.63,11.96,25.24,19.39,9.54,9.31,17.36,20.87,20.39,33.78.19.83,1.38.8,1.51-.04.63-4.1.92-8.25.88-12.4,0-.4.29-.75.69-.78,6.75-.53,13.26,3.74,17.17,9.33,3.15,4.5,4.94,9.74,6.39,15.07.23.84,1.48.7,1.51-.17.09-3.1-.06-6.2-.43-9.28-.09-.76.87-1.16,1.36-.57,3,3.57,5.61,7.46,7.79,11.59.33.62,1.25.53,1.43-.15,3.18-11.73-5.27-21.9-11.15-31.82-.38-.64-1.36-.41-1.42.33Z"/>
      </g>
      <g>
        <path class="cls-11" d="M948.19,992.54c1.06-3.19-72.21-86.02-72.21-86.02l13.81-59.47s33.98-23.36,37.17-24.42c3.19-1.06,122.12-99.82,122.12-99.82l29.73-24.42,76.46-24.42,65.84,6.37,31.86,38.23,13.81,29.73,12.74,28.67,30.8,56.28,11.68,35.04,8.5,31.86-63.72,69.03-37.17,28.67-281.41-5.31Z"/>
        <path class="cls-9" d="M948.19,992.54c1.06-3.19-72.21-86.02-72.21-86.02l13.81-59.47s33.98-23.36,37.17-24.42c3.19-1.06,122.12-99.82,122.12-99.82l29.73-24.42,76.46-24.42,65.84,6.37,31.86,38.23,13.81,29.73,12.74,28.67-13.99,70.45-187.78,145.12h-129.56Z"/>
        <path class="cls-16" d="M1323.52,900.65c-31.22,26.02-62.45,52.04-93.67,78.07,21.39-21.16,42.78-42.32,64.17-63.48,7.74-7.66,15.9-16.13,17.4-26.91.97-7.02-1.06-14.09-3.45-20.76-3.71-10.36-37.95-76.32-26.13-81.84,4.17,9.16,7.34,18.58,12.38,27.4,4.16,7.28,9.01,14.41,10.71,22.62.89,4.33.87,8.81,1.77,13.14,3.7,17.8,9.36,35.19,16.82,51.77Z"/>
        <path class="cls-4" d="M920.59,940.2c-10.78-20.51-19.19-42.27-25.02-64.7-1.38-5.31-2.62-10.89-1.41-16.25,1.51-6.71,6.73-12.09,12.66-15.58,5.93-3.49,12.63-5.4,19.15-7.62,24.33-8.3,47.01-21.43,66.32-38.4,6.08-5.34,11.82-11.05,17.52-16.8,1.62-1.64,3.24-3.27,4.86-4.91,10.85-10.99,21.69-21.98,32.54-32.98,7.45-7.54,14.96-15.15,23.8-21,8.18-5.41,17.31-9.2,26.38-12.95,20.96-8.67,42.13-17.41,64.47-21.33,5.91-1.04,12.08-1.71,17.83,0,8.36,2.49,15.8,9.92,24.37,8.26,3.86-.75,7.81,1.44,10.25,4.52,2.44,3.08,3.66,6.92,4.8,10.68,1.76,5.82,3.43,11.67,5.01,17.54-6.83-8.43-15.22-15.61-24.61-21.04-7.95-4.6-17.14-8.03-26.21-6.53-8.04,1.33-15,6.37-22.87,8.52-7.65,2.09-15.75,1.35-23.66,1.9-21.06,1.44-40.38,11.87-58.21,23.18-10.99,6.97-21.77,14.41-31.03,23.54-6.77,6.67-12.65,14.18-18.76,21.45-24.74,29.43-53.59,55.39-85.47,76.88-8.42,5.68-17.22,11.2-23.52,19.18-6.29,7.97-9.66,19.14-5.64,28.47,1.69,3.91,4.52,7.2,7.3,10.43,6.7,7.75,13.4,15.5,20.1,23.25-.73,3.11-3.21,5.14-6.35,4.6-3.14-.55-4.96.85-4.6-2.32Z"/>
        <polygon class="cls-9" points="1264.44 857.18 1287.21 886.46 1082.28 992.54 1264.44 857.18"/>
        <path class="cls-4" d="M1055.52,811.38l.48,5.83c.08.99,1.17,1.54,2.02,1.03l48.7-29.75c22.98-14.04,46.65-26.96,70.89-38.69,1.5-.72,2.69,1.41,1.29,2.32-15.46,10.01-30.48,20.68-43.64,33.52-16.49,16.1-30.02,36.09-35.26,58.41-.34,1.43-2.39,1.38-2.62-.07-1.09-7.09-1.6-14.27-1.52-21.45,0-.69-.51-1.29-1.19-1.34-11.67-.92-22.94,6.47-29.7,16.14-5.44,7.78-8.54,16.84-11.05,26.06-.4,1.46-2.56,1.22-2.6-.29-.15-5.36.1-10.73.75-16.05.16-1.31-1.5-2-2.35-.99-5.18,6.18-9.7,12.91-13.47,20.04-.57,1.07-2.16.91-2.47-.26-5.49-20.28,9.12-37.87,19.29-55.03.66-1.11,2.35-.71,2.46.57Z"/>
      </g>
      <path class="cls-7" d="M295.62,1154.63c5.35-.29,10.55-.57,15.59-.83-5.04.29-10.24.57-15.59.83Z"/>
      <g>
        <path class="cls-3" d="M980.1,353.14s-4.6-23.84,48.54-23.36c0,0-20.94,33.71-48.54,23.36Z"/>
        <g>
          <path class="cls-1" d="M741.21,720.15c37.47,9.47,77.33,12.4,114.68,2.45,37.35-9.95,71.93-33.88,89.45-68.34,17.52-34.45,15.41-79.48-9.54-109.01,29.89-2.31,55.97-25.15,66.53-53.2,10.57-28.05,7.05-60.11-4.99-87.56-12.04-27.45-32-50.76-54.06-71.05,14.66,13.47,42.74-58.03,45.58-67,23.03-72.8,21.16-158.01-44-207.62-24.62-18.74-53.85-30.69-83.77-38.55-20.26-5.33-41.08-8.88-62.03-9.1-53.2-.55-104.3,20.31-151.28,45.26,3.18-.6,6.35-1.2,9.53-1.8-16.3,5.18-36.34-6.08-51.69-13.63-62.18-30.56-135.31-42.75-201.74-23.06-66.42,19.69-123.9,74.51-136.78,142.58-.17.9-48.28,14.12-52.88,15.74-37.49,13.22-86.28,43.42-86.4,88.86-.06,23.55,16.11,43.63,31.5,61.45-23.73,12.26-30.7,43.04-29.8,69.74,2.09,61.98,33.67,122.33,83.41,159.38,6.58,4.9,10.4,12.46,11.04,20.64,3.04,38.96,29.36,74.73,65.12,90.04,32.6,13.94,72.07,10.47,101.73-8.95,24.35,52.3,79.63,89.98,135.79,103.19,56.16,13.21,118.06-.69,163.17-36.64,7.72-6.15,15.15-13.01,24.31-16.67,9.16-3.66,20.29,5.73,27.1,12.86Z"/>
          <ellipse class="cls-13" cx="806.88" cy="207.41" rx="177.71" ry="132.83" transform="translate(-.27 1.07) rotate(-.08)"/>
          <ellipse class="cls-13" cx="468.37" cy="132.85" rx="152.52" ry="114.01" transform="translate(-.18 .62) rotate(-.08)"/>
          <ellipse class="cls-13" cx="272.51" cy="264.07" rx="79.2" ry="67.09" transform="translate(-.35 .36) rotate(-.08)"/>
          <ellipse class="cls-13" cx="247.08" cy="436.21" rx="79.63" ry="105.56" transform="translate(-201.87 659.29) rotate(-86.89)"/>
          <ellipse class="cls-13" cx="338.29" cy="598.81" rx="79.63" ry="105.56" transform="translate(-277.97 904.15) rotate(-86.89)"/>
          <ellipse class="cls-3" cx="468.35" cy="118.94" rx="139.95" ry="104.61" transform="translate(-.16 .62) rotate(-.08)"/>
          <ellipse class="cls-3" cx="247.55" cy="253.7" rx="98.7" ry="73.77" transform="translate(-.34 .33) rotate(-.08)"/>
          <ellipse class="cls-3" cx="237.25" cy="417.15" rx="109.21" ry="89.66" transform="translate(-.55 .32) rotate(-.08)"/>
          <ellipse class="cls-3" cx="346.69" cy="586.37" rx="97.08" ry="79.7" transform="translate(-.78 .46) rotate(-.08)"/>
          <ellipse class="cls-13" cx="883.14" cy="460.29" rx="114.72" ry="98.8" transform="translate(-.61 1.17) rotate(-.08)"/>
          <ellipse class="cls-13" cx="707.13" cy="515.2" rx="90.49" ry="77.33" transform="translate(-.68 .94) rotate(-.08)"/>
          <ellipse class="cls-3" cx="806.84" cy="179.18" rx="177.71" ry="132.83" transform="translate(-.24 1.07) rotate(-.08)"/>
          <ellipse class="cls-3" cx="869.53" cy="438.96" rx="114.72" ry="98.8" transform="translate(-.58 1.16) rotate(-.08)"/>
          <ellipse class="cls-3" cx="693.52" cy="493.87" rx="90.49" ry="77.33" transform="translate(-.66 .92) rotate(-.08)"/>
          <path class="cls-14" d="M463.53,249.2s35.42-.05,35.42-.05c-1.99,69.42-6.1,138.8-6.39,208.21-.16,38.95,13.6,81.38,40.69,110,28.41,30.02,74.07,38.43,110.17,55.89,96.44,46.65,147.29,147.98,152.86,252.35.57,10.74,5.2,44.35-1.98,52.83,0,0-30.95,36.57-121.75,9.02.6-23.81,1.21-47.62,1.81-71.43.97-38.47,8.81-83.47-3.93-120.36-7.16-20.73-23.39-34.8-42.7-44.42-17.97-8.95-37.69-13.09-56.12-20.72-40.08-16.6-73.44-41.47-89.08-83.13-17.4-46.34-21.87-96.61-21.15-145.75.99-67.48,2.23-134.96,2.14-202.44Z"/>
          <path class="cls-14" d="M852.17,559.13l42.36-.06s-43.58,71.49-191.79,113.88c0,0-27.22-21.36-44.95-37.21-18.09-16.17,144.41-4.21,194.38-76.62Z"/>
          <path class="cls-14" d="M482.48,366.13s91,25.39,181.83-78.7l7.23,4.32s-69.15,119.46-186.13,104.21l-2.93-29.84Z"/>
          <path class="cls-14" d="M348.96,275.54s48.15,47.54,119.66,41.35l.04,32.66s-80.15-2.66-130.78-59.05l11.08-14.96Z"/>
          <path class="cls-15" d="M280.47,484.7s-22.15-9.93,8.79-53.15c0,0,15.55,36.51-8.79,53.15Z"/>
          <path class="cls-15" d="M242.8,479.49s-22.88,8.12-30.36-44.5c0,0,36.46,15.66,30.36,44.5Z"/>
          <path class="cls-15" d="M361.57,653.12s-22.88,8.12-30.36-44.5c0,0,36.46,15.66,30.36,44.5Z"/>
          <path class="cls-15" d="M821.8,296.96s-22.88,8.12-30.36-44.5c0,0,36.46,15.66,30.36,44.5Z"/>
          <path class="cls-15" d="M847.67,274.88s-13.74-20.02,35.18-40.8c0,0-5.74,39.26-35.18,40.8Z"/>
          <path class="cls-15" d="M499.98,199.96s-13.74-20.02,35.18-40.8c0,0-5.74,39.26-35.18,40.8Z"/>
          <path class="cls-15" d="M877.76,526.33s-13.74-20.02,35.18-40.8c0,0-5.74,39.26-35.18,40.8Z"/>
          <path class="cls-15" d="M708.96,559.32s-13.74-20.02,35.18-40.8c0,0-5.74,39.26-35.18,40.8Z"/>
          <path class="cls-15" d="M258.72,308.35s-13.74-20.02,35.18-40.8c0,0-5.74,39.26-35.18,40.8Z"/>
          <path class="cls-3" d="M541.8,340.59s-13.74-20.02,35.18-40.8c0,0-5.74,39.26-35.18,40.8Z"/>
          <path class="cls-3" d="M518.85,478.19s-13.74-20.02,35.18-40.8c0,0-5.74,39.26-35.18,40.8Z"/>
          <path class="cls-3" d="M442.61,476.78s-20.15,13.54-40.44-35.58c0,0,39.2,6.14,40.44,35.58Z"/>
          <path class="cls-3" d="M433.64,397.73s-20.15,13.54-40.44-35.58c0,0,39.2,6.14,40.44,35.58Z"/>
          <path class="cls-3" d="M661.93,615.35s-20.15,13.54-40.44-35.58c0,0,39.2,6.14,40.44,35.58Z"/>
          <path class="cls-3" d="M641.3,292.12s-20.15,13.54-40.44-35.58c0,0,39.2,6.14,40.44,35.58Z"/>
          <path class="cls-3" d="M640.96,35.58s-20.15,13.54-40.44-35.58c0,0,39.2,6.14,40.44,35.58Z"/>
          <path class="cls-3" d="M247.76,150.11s-20.15,13.54-40.44-35.58c0,0,39.2,6.14,40.44,35.58Z"/>
          <path class="cls-8" d="M475.88,268.32c-.15-.39-.3-.78-.45-1.17-10.33,19.83-4.84,43.72-1.8,65.87,5.25,38.23,2.39,77.03,1.37,115.6-1.45,55.02,2,117.42,39.05,161.54,21.1,25.13,51.09,41.17,81.71,52.96,30.62,11.79,62.58,19.95,92.81,32.73.09-12.38-10.46-22.18-21.2-28.35-36.71-21.08-80.85-21.01-115.63-46.58-64.12-47.15-71.35-138.56-74.81-211.96-1.16-24.68-.81-49.41,1.06-74.04,1.67-21.98,5.86-45.36-2.11-66.6Z"/>
        </g>
      </g>
      <path class="cls-8" d="M777.57,867.21c1.31,9.7,2.06,19.46,1.96,29.28-.08,7.68-.72,15.57-4.09,22.48-7.1,14.57-23.69,15.67-37.93,14-8.28-.98-16.49-2.54-24.6-4.51-5.03-1.22-10.39-2.84-13.56-6.93-11.44-14.79,17.74-19.33,25.73-20.59,13.02-2.06,23.32-4.79,30.85-16.65,6.52-10.27,8.73-22.8,8.37-34.95-.43-14.88-12.62-38.78-7.7-52.57,4.91,1.04,7.01,6.75,8.26,11.62,5,19.41,10.03,39.01,12.7,58.83Z"/>
      <path class="cls-10" d="M482.94,944.51c-12.45-7.13-27.83-13.98-27.38-31.31.3-11.63,11.04-6.89,15.26-13.74.98-1.59.95-3.59.79-5.45-.64-7.59-7.83-18.84-6.47-26.05,1.69-8.97,22.43-3.19,27.17-.78-6.29-3.2-2.73-23.4,2.15-25.82,8.18-4.05,27.9,3.75,37.12,3.86-2.38-17.71-12.65-31.64-8.36-50.74,1.5-6.7,4.78-12.97,9.74-17.71,18.07-17.27,42.04-4.26,51.16,13.96,6.63,13.25,2.44,28.82,8.23,42.06,13.99-3.39,29.55-18.03,43.52-24.35,2.59-1.18,5.34-2.33,8.18-2.11,13.74,1.03,8.87,31.89,7.28,40.21,2.15-11.21,18.86-17.76,28.59-19.47,23.61-4.15,16.48,21.52,14.92,37.5,6.62-5.46,21.32-4.25,28.89-1.24,10.01,3.98,16.32,12.8,15.98,23.75-.86,27.57-38.62,38.58-59.14,47.02-35.81,14.73-71.8,33.21-111.82,28.44-11.75-1.4-24.3-4.7-34.94.47-8.29,4.03-32.63,40.75-43.34,24.91-2.43-3.59-1.21-9.12,2.5-11.36-13.21.66-44.78,4.39-42.92-17.38,1.31-15.43,20.94-21.61,32.89-14.68Z"/>
      <path class="cls-2" d="M511.77,956.67c-9.25-5.29-20.66-10.38-20.33-23.25.22-8.64,8.2-5.11,11.33-10.2.73-1.18.7-2.66.59-4.05-.47-5.63-5.81-13.99-4.81-19.34,1.26-6.66,16.66-2.37,20.18-.58-4.67-2.37-2.03-17.38,1.6-19.17,6.08-3.01,20.72,2.78,27.57,2.86-1.77-13.15-9.39-23.5-6.21-37.68,1.11-4.97,3.55-9.63,7.23-13.15,13.42-12.82,31.22-3.16,37.99,10.37,4.92,9.84,1.81,21.4,6.11,31.23,10.39-2.52,21.95-13.39,32.32-18.09,1.93-.87,3.97-1.73,6.08-1.57,10.2.76,6.59,23.68,5.4,29.86,1.59-8.32,14-13.19,21.23-14.45,17.53-3.08,12.24,15.98,11.08,27.85,4.91-4.05,15.83-3.15,21.45-.92,7.44,2.96,12.12,9.5,11.87,17.64-.64,20.47-28.68,28.65-43.92,34.92-26.59,10.94-53.32,24.66-83.04,21.12-8.73-1.04-18.04-3.49-25.95.35-6.16,2.99-24.23,30.26-32.18,18.5-1.81-2.67-.9-6.77,1.86-8.44-9.81.49-33.25,3.26-31.87-12.91.98-11.46,15.55-16.04,24.42-10.9Z"/>
      <path class="cls-10" d="M780.47,906.62c-9.29-10.93-21.43-22.6-15.12-38.74,4.23-10.84,12.72-2.73,19.02-7.74,1.46-1.16,2.11-3.05,2.59-4.86,1.98-7.35-.97-20.38,2.75-26.7,4.64-7.87,22.18,4.61,25.83,8.49-4.84-5.14,5.37-22.94,10.79-23.56,9.07-1.04,24.97,13,33.61,16.23,3.78-17.47-1.16-34.05,9.36-50.57,3.68-5.79,8.9-10.58,15.17-13.35,22.86-10.11,40.99,10.26,43.38,30.5,1.74,14.71-7.49,27.94-6.54,42.36,14.31,1.56,33.92-6.92,49.2-8.13,2.84-.22,5.82-.37,8.42.79,12.58,5.63-2.48,33.01-6.81,40.3,5.82-9.81,23.77-10.3,33.5-8.6,23.61,4.11,8.2,25.84,1.31,40.34,8.08-2.89,21.49,3.24,27.59,8.65,8.07,7.14,11.01,17.58,6.97,27.77-10.17,25.64-49.42,23.18-71.59,24.15-38.68,1.7-78.81,6.86-114.83-11.21-10.58-5.31-21.26-12.67-33.03-11.42-9.17.97-44.53,27.25-49.22,8.72-1.07-4.21,1.95-8.99,6.21-9.84-12.65-3.86-43.61-11.07-34.47-30.92,6.48-14.07,27.03-13.22,35.92-2.64Z"/>
      <path class="cls-2" d="M800.69,966.49c-9.25-5.29-20.66-10.38-20.33-23.25.22-8.64,8.2-5.11,11.33-10.2.73-1.18.7-2.66.59-4.05-.47-5.63-5.81-13.99-4.81-19.34,1.26-6.66,16.66-2.37,20.18-.58-4.67-2.37-2.03-17.38,1.6-19.17,6.08-3.01,20.72,2.78,27.57,2.86-1.77-13.15-9.39-23.5-6.21-37.68,1.11-4.97,3.55-9.63,7.23-13.15,13.42-12.82,31.22-3.16,37.99,10.37,4.92,9.84,1.81,21.4,6.11,31.23,10.39-2.52,21.95-13.39,32.32-18.09,1.93-.87,3.97-1.73,6.08-1.57,10.2.76,6.59,23.68,5.4,29.86,1.59-8.32,14-13.19,21.23-14.45,17.53-3.08,12.24,15.98,11.08,27.85,4.91-4.05,15.83-3.15,21.45-.92,7.44,2.96,12.12,9.5,11.87,17.64-.64,20.47-28.68,28.65-43.92,34.92-26.59,10.94-53.32,24.66-83.04,21.12-8.73-1.04-18.04-3.49-25.95.35-6.16,2.99-24.23,30.26-32.18,18.5-1.81-2.67-.9-6.77,1.86-8.44-9.81.49-33.25,3.26-31.87-12.91.98-11.46,15.55-16.04,24.42-10.9Z"/>
      <path class="cls-2" d="M1511.99,937.04c-9.29-10.93-21.43-22.6-15.12-38.74,4.23-10.84,12.72-2.73,19.02-7.74,1.46-1.16,2.11-3.05,2.59-4.86,1.98-7.35-.97-20.38,2.75-26.7,4.64-7.87,22.18,4.61,25.83,8.49-4.84-5.14,5.37-22.94,10.79-23.56,9.07-1.04,24.97,13,33.61,16.23,3.78-17.47-1.16-34.05,9.36-50.57,3.68-5.79,8.9-10.58,15.17-13.35,22.86-10.11,40.99,10.26,43.38,30.5,1.74,14.71-7.49,27.94-6.54,42.36,14.31,1.56,33.92-6.92,49.2-8.13,2.84-.22,5.82-.37,8.42.79,12.58,5.63-2.48,33.01-6.81,40.3,5.82-9.81,23.77-10.3,33.5-8.6,23.61,4.11,8.2,25.84,1.31,40.34,8.08-2.89,21.49,3.24,27.59,8.65,8.07,7.14,11.01,17.58,6.97,27.77-10.17,25.64-49.42,23.18-71.59,24.15-38.68,1.7-78.81,6.86-114.83-11.21-10.58-5.31-21.26-12.67-33.03-11.42-9.17.97-44.53,27.25-49.22,8.72-1.07-4.21,1.95-8.99,6.21-9.84-12.65-3.86-43.61-11.07-34.47-30.92,6.48-14.07,27.03-13.22,35.92-2.64Z"/>
      <path class="cls-17" d="M1532.21,996.91c-9.25-5.29-20.66-10.38-20.33-23.25.22-8.64,8.2-5.11,11.33-10.2.73-1.18.7-2.66.59-4.05-.47-5.63-5.81-13.99-4.81-19.34,1.26-6.66,16.66-2.37,20.18-.58-4.67-2.37-2.03-17.38,1.6-19.17,6.08-3.01,20.72,2.78,27.57,2.86-1.77-13.15-9.39-23.5-6.21-37.68,1.11-4.97,3.55-9.63,7.23-13.15,13.42-12.82,31.22-3.16,37.99,10.37,4.92,9.84,1.81,21.4,6.11,31.23,10.39-2.52,21.95-13.39,32.32-18.09,1.93-.87,3.97-1.73,6.08-1.57,10.2.76,6.59,23.68,5.4,29.86,1.59-8.32,14-13.19,21.23-14.45,17.53-3.08,12.24,15.98,11.08,27.85,4.91-4.05,15.83-3.15,21.45-.92,7.44,2.96,12.12,9.5,11.87,17.64-.64,20.47-28.68,28.65-43.92,34.92-26.59,10.94-53.32,24.66-83.04,21.12-8.73-1.04-18.04-3.49-25.95.35-6.16,2.99-24.23,30.26-32.18,18.5-1.81-2.67-.9-6.77,1.86-8.44-9.81.49-33.25,3.26-31.87-12.91.98-11.46,15.55-16.04,24.42-10.9Z"/>
      <g>
        <path class="cls-7" d="M1839.88,1154.29c8.93-1.57,17.86-3.26,26.73-5.02-8.9,1.79-17.8,3.45-26.73,5.02Z"/>
        <g>
          <path class="cls-7" d="M2044.32,1070.94v.03s-2.01,13.11-2.01,13.11c-29.55,17.25-66.29,31.53-106.52,43.38-.28.09-.53.16-.81.22-2.61.78-5.26,1.53-7.9,2.28-1.74.5-3.48.97-5.23,1.47-3.08.84-6.19,1.69-9.33,2.5-1.99.53-4.01,1.06-6.04,1.56-2.86.75-5.76,1.47-8.65,2.19-9.3,2.28-18.7,4.48-28.19,6.51-3.11.72-6.25,1.38-9.4,2.04-5.04,1.06-10.08,2.1-15.19,3.1-8.87,1.75-17.8,3.45-26.73,5.02-4.42.78-8.84,1.57-13.26,2.29-12.45,2.13-24.87,4.05-37.19,5.84-2.52.38-5.07.75-7.59,1.1-11.61,1.67-23.09,3.17-34.39,4.56-112.85,13.91-206.35,15.9-206.35,15.9,3.43,7.4-.51,16.16-8.32,18.35-162.33,45.88-604.07,36.51-604.07,36.51-102.77,6.52-581.82-32.07-610.44-47.9-19.03-10.56,18.21-25.89,45.28-34.95,3.14-1.06,2.2-5.73-1.1-5.48-3.61.25-7.53.54-11.73.82-1.43.09-2.89.22-4.39.32-1.71.13-3.45.22-5.23.35-1.93.13-3.92.25-5.98.38-1.49.1-2.99.19-4.54.29-1.53.1-3.05.19-4.64.29-1.59.1-3.17.19-4.79.29-3.24.19-6.54.38-9.93.57-5.04.26-10.24.54-15.59.83h-.09c-87.03,4.29-210.76,6.1-258.13-14.22-2.8-1.21-5.23-2.45-7.26-3.69-52.8-32.99,155.5-83.38,155.5-83.38l-18.91-10.15c-7.66-4.1-6.03-15.52,2.47-17.31l313.02-66.19s395.19-53.5,681.28-54.94c286.12-1.44,578.62,38.45,601.95,49,15.32,6.95-4.99,13.02-20.77,16.37-3.39.72-3.42,5.55-.02,6.38,232.88,55.66,302.29,82.18,321.21,94.39h.03Z"/>
          <path class="cls-2" d="M1858.44,1071.19v.03s-1.64,10.72-1.64,10.72c-24.17,14.12-54.24,25.79-87.15,35.49-.23.08-.43.13-.66.18-2.14.64-4.3,1.25-6.47,1.87-1.43.41-2.85.79-4.28,1.2-2.52.69-5.07,1.38-7.64,2.05-1.63.44-3.28.87-4.94,1.28-2.34.61-4.71,1.2-7.08,1.79-7.61,1.87-15.3,3.66-23.07,5.33-2.55.59-5.12,1.13-7.69,1.67-4.12.87-8.25,1.72-12.42,2.54-7.26,1.44-14.56,2.82-21.87,4.1-3.62.64-7.23,1.28-10.85,1.87-10.18,1.75-20.34,3.31-30.43,4.78-2.06.31-4.15.62-6.21.9-9.5,1.36-18.89,2.6-28.14,3.73-92.33,11.38-168.83,13.01-168.83,13.01,2.81,6.06-.42,13.22-6.81,15.01-132.81,37.54-494.22,29.87-494.22,29.87-84.09,5.33-476.01-26.24-499.44-39.19-15.57-8.64,14.9-21.18,37.04-28.6,2.57-.87,1.8-4.69-.9-4.48-2.95.21-6.16.44-9.6.67-1.17.08-2.37.18-3.59.26-1.4.1-2.83.18-4.28.29-1.58.1-3.21.21-4.89.31-1.22.08-2.44.16-3.72.23-1.25.08-2.5.16-3.79.23-1.3.08-2.6.16-3.92.23-2.65.16-5.35.31-8.12.47-4.13.21-8.38.44-12.76.68h-.08c-71.2,3.51-172.43,4.99-211.19-11.64-2.29-.99-4.28-2.01-5.94-3.02-43.2-26.99,127.22-68.22,127.22-68.22l-15.47-8.31c-6.27-3.35-4.93-12.7,2.02-14.16l256.1-54.15s323.32-43.77,557.39-44.95c234.09-1.18,473.4,31.46,492.48,40.09,12.54,5.69-4.09,10.65-16.99,13.39-2.78.59-2.8,4.54-.02,5.22,190.53,45.54,247.32,67.24,262.79,77.22h.03Z"/>
          <path class="cls-17" d="M1706.4,1071.39v.02s-1.34,8.77-1.34,8.77c-19.78,11.55-44.38,21.1-71.31,29.04-.19.06-.35.1-.54.15-1.75.52-3.52,1.03-5.29,1.53-1.17.34-2.33.65-3.5.98-2.06.57-4.15,1.13-6.25,1.68-1.33.36-2.69.71-4.04,1.05-1.92.5-3.85.98-5.79,1.47-6.23,1.53-12.52,3-18.87,4.36-2.08.48-4.19.92-6.29,1.36-3.37.71-6.75,1.41-10.17,2.08-5.94,1.17-11.92,2.31-17.89,3.36-2.96.52-5.92,1.05-8.87,1.53-8.33,1.43-16.65,2.71-24.9,3.91-1.69.25-3.4.5-5.08.74-7.77,1.11-15.46,2.13-23.02,3.05-75.54,9.31-138.14,10.64-138.14,10.64,2.3,4.96-.34,10.82-5.57,12.28-108.67,30.71-404.38,24.44-404.38,24.44-68.8,4.36-389.48-21.47-408.64-32.07-12.74-7.07,12.19-17.33,30.31-23.4,2.1-.71,1.47-3.84-.73-3.67-2.42.17-5.04.36-7.85.55-.96.06-1.94.15-2.94.21-1.15.08-2.31.15-3.5.23-1.29.09-2.63.17-4,.26-1,.06-2,.13-3.04.19-1.02.06-2.04.13-3.1.19-1.06.06-2.13.13-3.21.19-2.17.13-4.38.26-6.65.38-3.38.17-6.86.36-10.44.56h-.06c-58.26,2.87-141.08,4.08-172.8-9.52-1.88-.81-3.5-1.64-4.86-2.47-35.35-22.08,104.09-55.82,104.09-55.82l-12.66-6.8c-5.13-2.74-4.04-10.39,1.65-11.59l209.54-44.31s264.54-35.82,456.06-36.78c191.53-.96,387.34,25.74,402.95,32.8,10.26,4.65-3.34,8.71-13.9,10.96-2.27.48-2.29,3.71-.02,4.27,155.89,37.26,202.36,55.01,215.02,63.18h.02Z"/>
        </g>
        <path class="cls-5" d="M2039.04,1082.42l-8.89,57.97c-2.02,1.93-4.1,3.77-6.25,5.52-42.41,35.2-103.88,39.11-103.88,39.11-284.99,59.74-417.46,43.01-417.46,43.01l-6.31,29.61c-143.26,82.52-577.44,77.06-577.44,77.06-552.09-5.62-600.92-72.32-600.92-72.32l-7.45-33.89c-274.45-2.81-298.87-36.68-298.87-36.68l-.79-7.25-5.48-49.45c2.03,1.24,4.45,2.48,7.26,3.69,47.37,20.33,171.04,18.51,258.07,14.22h.06c26.96-1.34,50.36-2.93,66.92-4.14,3.3-.25,4.24,4.41,1.1,5.48-27.07,9.06-64.31,24.4-45.28,34.95,28.63,15.84,507.67,54.42,610.44,47.9,0,0,441.74,9.37,604.07-36.51,7.81-2.19,11.75-10.94,8.32-18.35,0,0,93.5-1.99,206.35-15.9,68.38-8.43,143.84-21.26,209.9-40.68,40.23-11.85,76.97-26.12,106.52-43.38Z"/>
        <path class="cls-19" d="M395.71,1036.18c.18-.13.37-.24.56-.34,8.04-3.87,183.48-85.39,671.92-80.74,0,0,424.34-13.01,490.84,39.22,0,0,29.82,19.72-66.2,40.17-.11.02-.21.04-.33.05-3.02.34-49.21,5.6-25.59,9.51,23.39,3.87-10.49,11.55-13.35,12.18-.14.03-.25.06-.39.11-2.52.91-27.58,10.38,12.42,12.52,42.03,2.25,105.75,2.17,108.49,17.08,2.73,14.91-243.85,80.29-512.27,63.06-.09,0-.16,0-.25,0-5.23.09-184.68,2.97-212.75-8.44-28.48-11.57,18.96-11.64,18.97-11.64-35.06.02-71.15,16.92-104.39-2.83-2.39-1.42-2.08-5,.49-6.06,1.7-.7,3.62-1.52,5.58-2.36,3.51-1.51,2.3-6.79-1.52-6.59-16.2.87-32.91,3.77-48.74,4.36-24.53.92-49.09.91-73.62-.02-63.85-2.41-123.43-16.02-185.94-26.63-.02,0-110.47-18.76-63.91-52.59Z"/>
        <path class="cls-6" d="M469.3,1038.67c.15-.11.31-.21.48-.29,6.86-3.3,156.5-72.83,573.12-68.87,0,0,361.95-11.1,418.67,33.45,0,0,25.43,16.82-56.47,34.26-.1.02-.18.04-.28.05-2.58.29-41.97,4.78-21.83,8.11,19.95,3.3-8.95,9.85-11.39,10.39-.12.03-.21.05-.33.1-2.15.78-23.53,8.85,10.59,10.68,35.85,1.92,90.2,1.85,92.53,14.57,2.33,12.72-208,68.49-436.95,53.78-.07,0-.14,0-.21,0-4.46.07-157.53,2.53-181.47-7.2-24.3-9.87,16.17-9.93,16.18-9.93-29.9.01-60.69,14.43-89.04-2.41-2.04-1.21-1.78-4.26.41-5.17,1.45-.6,3.08-1.3,4.76-2.02,3-1.29,1.96-5.79-1.29-5.62-13.82.74-28.07,3.21-41.57,3.72-20.92.78-41.88.77-62.8-.02-54.46-2.05-105.28-13.66-158.6-22.72-.02,0-94.22-16-54.52-44.86Z"/>
        <path class="cls-12" d="M526.56,1036.18c.13-.09.27-.18.41-.25,5.87-2.82,134.02-62.37,490.77-58.97,0,0,309.94-9.51,358.51,28.65,0,0,21.78,14.4-48.36,29.34-.08.02-.16.03-.24.04-2.21.25-35.94,4.09-18.69,6.94,17.09,2.82-7.66,8.43-9.75,8.9-.11.02-.18.05-.28.08-1.84.67-20.15,7.58,9.07,9.14,30.7,1.64,77.24,1.58,79.24,12.47,1.99,10.89-178.11,58.65-374.16,46.06-.06,0-.12,0-.18,0-3.82.06-134.89,2.17-155.39-6.17-20.8-8.45,13.84-8.5,13.85-8.5-25.61.01-51.97,12.36-76.25-2.07-1.75-1.04-1.52-3.65.36-4.43,1.24-.51,2.64-1.11,4.08-1.73,2.57-1.1,1.68-4.96-1.11-4.81-11.83.63-24.03,2.75-35.6,3.18-17.92.67-35.86.66-53.77-.01-46.64-1.76-90.15-11.7-135.81-19.45-.01,0-80.69-13.71-46.68-38.41Z"/>
        <path class="cls-18" d="M732,1019.54c.07-.05.15-.1.23-.14,3.24-1.56,73.88-34.38,270.54-32.51,0,0,170.85-5.24,197.63,15.79,0,0,12.01,7.94-26.66,16.17-.05,0-.09.02-.13.02-1.22.14-19.81,2.26-10.3,3.83,9.42,1.56-4.22,4.65-5.38,4.9-.06.01-.1.02-.16.05-1.01.37-11.11,4.18,5,5.04,16.92.91,42.58.87,43.68,6.88,1.1,6-98.18,32.33-206.26,25.39-.03,0-.06,0-.1,0-2.11.03-74.36,1.19-85.66-3.4-11.47-4.66,7.63-4.69,7.64-4.69-14.12,0-28.65,6.81-42.03-1.14-.96-.57-.84-2.01.2-2.44.68-.28,1.46-.61,2.25-.95,1.41-.61.93-2.73-.61-2.65-6.52.35-13.25,1.52-19.62,1.76-9.88.37-19.77.36-29.64,0-25.71-.97-49.7-6.45-74.87-10.72,0,0-44.48-7.55-25.73-21.18Z"/>
      </g>
    </g>
  </g>
</svg>