<?xml version="1.0" encoding="UTF-8"?>
<svg id="Capa_2" data-name="Capa 2" xmlns="http://www.w3.org/2000/svg" viewBox="0 0 135.23 117.88">
  <defs>
    <style>
      .cls-1 {
        fill: #689d2f;
      }

      .cls-2 {
        fill: #532f14;
        stroke-width: .21px;
      }

      .cls-2, .cls-3 {
        stroke: #bb882a;
        stroke-miterlimit: 10;
      }

      .cls-4 {
        fill: #f7a524;
        opacity: .7;
      }

      .cls-5 {
        fill: #9fbc2d;
      }

      .cls-3 {
        fill: #ba872a;
        stroke-width: .28px;
      }
    </style>
  </defs>
  <g id="Capa_1-2" data-name="Capa 1">
    <g>
      <path class="cls-5" d="M109.43,10.5c.27-1.92.35-4.19,2.55-5.01,1.47-.55,1.42,1.04,2.49,1.22.25.04.5-.06.72-.18.92-.46,1.97-1.93,2.94-2.12,1.21-.24,1.53,2.65,1.47,3.37.08-.95,2.8-1.52,3.35-1.03.92.82.93,3.69,1.38,4.85,2.1-1.19,3.33-3.18,5.94-3.6.91-.15,1.87-.05,2.71.33,3.07,1.4,2.65,5.06.82,7.12-1.33,1.5-3.49,1.76-4.86,3.15,1.13,1.58,3.75,2.8,5.24,4.23.28.27.56.55.68.92.56,1.77-3.55,2.72-4.68,2.93,1.51-.29,3.17,1.47,3.88,2.6,1.71,2.75-1.87,3.15-3.95,3.76,1.02.55,1.6,2.46,1.61,3.56,0,1.46-.78,2.69-2.17,3.2-3.5,1.28-6.78-2.9-8.87-5.05-3.65-3.75-7.77-7.33-9.19-12.59-.42-1.54-.63-3.28-1.82-4.36-.92-.84-6.75-2.04-5.3-4.18.33-.49,1.08-.61,1.55-.26-.75-1.62-2.8-5.39.02-6.25,2-.61,3.76,1.54,3.49,3.38Z"/>
      <path class="cls-1" d="M105.21,17.92c-.3-1.41-.81-3.02.52-4.14.89-.75,1.25.37,2.05.23.18-.03.33-.17.46-.3.53-.55.89-1.84,1.52-2.22.78-.47,1.74,1.47,1.87,1.98-.18-.68,1.57-1.77,2.08-1.56.85.34,1.58,2.34,2.19,3.04,1.17-1.36,1.53-3.06,3.24-4.01.6-.33,1.29-.51,1.98-.45,2.5.2,3.12,2.86,2.37,4.76-.55,1.38-2,2.11-2.6,3.42,1.19.82,3.32,1.01,4.73,1.63.26.12.53.24.7.47.84,1.1-1.8,2.79-2.53,3.23.98-.59,2.59.23,3.37.84,1.89,1.49-.51,2.67-1.81,3.62.85.13,1.74,1.31,2.02,2.08.37,1.02.13,2.08-.71,2.78-2.12,1.78-5.47-.32-7.47-1.29-3.49-1.7-7.28-3.16-9.59-6.48-.68-.97-1.27-2.13-2.37-2.59-.86-.35-5.23.28-4.76-1.58.11-.42.6-.7,1.02-.57-.93-.94-3.32-3.06-1.56-4.37,1.24-.93,3.02.13,3.29,1.48Z"/>
      <path class="cls-1" d="M19.46,66.47c-1.47,1.26-3.04,2.91-5.22,2.07-1.47-.56-.38-1.72-1.06-2.56-.16-.2-.41-.28-.66-.35-.99-.26-2.75.14-3.61-.35-1.07-.62.61-3,1.13-3.49-.69.66-3.1-.71-3.19-1.44-.15-1.22,1.74-3.38,2.17-4.55-2.36-.5-4.6.18-6.84-1.23-.78-.49-1.44-1.19-1.81-2.04-1.38-3.08,1.36-5.54,4.09-5.88,1.99-.24,3.78.99,5.73.85.2-1.93-.96-4.58-1.13-6.64-.03-.38-.05-.79.1-1.14.75-1.7,4.46.31,5.45.89-1.33-.78-1.41-3.2-1.19-4.52.54-3.19,3.48-1.12,5.45-.2-.4-1.09.42-2.91,1.15-3.73.96-1.09,2.37-1.5,3.75-.96,3.47,1.36,3.16,6.66,3.31,9.65.26,5.22.98,10.64-1.44,15.52-.71,1.43-1.7,2.88-1.52,4.47.14,1.24,3.71,6,1.21,6.64-.57.15-1.22-.26-1.33-.83-.51,1.71-1.47,5.9-4.15,4.68-1.91-.87-1.8-3.64-.38-4.85Z"/>
      <path class="cls-5" d="M27.53,63.7c-.71,1.25-1.39,2.8-3.13,2.76-1.17-.02-.7-1.1-1.39-1.52-.16-.1-.36-.09-.55-.08-.76.07-1.89.8-2.61.66-.9-.17-.33-2.25-.09-2.73-.32.63-2.35.29-2.59-.2-.41-.82.36-2.8.37-3.73-1.78.25-3.17,1.28-5.09.86-.67-.15-1.3-.47-1.78-.97-1.74-1.8-.45-4.21,1.37-5.14,1.33-.67,2.89-.26,4.21-.85-.35-1.4-1.82-2.96-2.46-4.35-.12-.26-.24-.53-.22-.82.1-1.38,3.19-.91,4.03-.75-1.13-.21-1.79-1.88-1.97-2.86-.43-2.37,2.15-1.66,3.75-1.52-.55-.66-.44-2.14-.14-2.9.39-1.01,1.28-1.64,2.37-1.62,2.77.07,3.89,3.85,4.75,5.91,1.5,3.58,3.37,7.19,2.91,11.2-.13,1.18-.46,2.44.07,3.5.41.83,4.1,3.25,2.52,4.33-.36.25-.91.13-1.14-.25.07,1.32.46,4.49-1.72,4.31-1.55-.12-2.18-2.09-1.49-3.29Z"/>
      <path class="cls-1" d="M116.55,92.18c1.9.36,4.17.57,4.87,2.8.47,1.5-1.11,1.36-1.35,2.42-.06.25.04.5.14.73.41.94,1.83,2.06,1.97,3.04.18,1.22-2.73,1.39-3.44,1.29.94.13,1.38,2.87.86,3.39-.87.88-3.73.75-4.91,1.13,1.08,2.16,3,3.49,3.29,6.12.1.92-.04,1.87-.47,2.69-1.55,3-5.18,2.39-7.15.46-1.43-1.4-1.58-3.57-2.9-5.01-1.64,1.05-2.99,3.6-4.49,5.02-.28.26-.58.53-.95.63-1.8.47-2.53-3.69-2.69-4.82.22,1.53-1.63,3.1-2.8,3.74-2.83,1.57-3.05-2.03-3.55-4.14-.61.99-2.54,1.48-3.64,1.42-1.45-.07-2.65-.92-3.08-2.33-1.1-3.56,3.24-6.62,5.49-8.6,3.93-3.45,7.72-7.39,13.04-8.54,1.56-.34,3.31-.46,4.44-1.59.88-.88,2.38-6.64,4.44-5.08.47.35.56,1.11.18,1.56,1.66-.66,5.53-2.52,6.25.34.51,2.03-1.73,3.68-3.56,3.32Z"/>
      <path class="cls-5" d="M109.35,87.58c1.42-.22,3.05-.66,4.11.73.71.93-.43,1.23-.33,2.03.02.19.15.34.28.48.53.55,1.8.98,2.14,1.63.43.81-1.55,1.66-2.08,1.77.69-.15,1.68,1.66,1.45,2.15-.38.83-2.42,1.46-3.14,2.03,1.3,1.24,2.98,1.68,3.84,3.44.3.62.44,1.31.35,2-.33,2.49-3.02,2.97-4.88,2.12-1.35-.62-2-2.1-3.29-2.77-.88,1.14-1.18,3.27-1.87,4.64-.13.25-.27.52-.51.68-1.14.78-2.7-1.94-3.1-2.69.54,1.01-.36,2.57-1.01,3.32-1.59,1.81-2.64-.65-3.52-1.99-.17.84-1.4,1.67-2.18,1.91-1.03.32-2.08.02-2.74-.85-1.67-2.21.6-5.44,1.67-7.39,1.87-3.4,3.53-7.11,6.96-9.25,1.01-.63,2.19-1.16,2.7-2.23.4-.84,0-5.24,1.82-4.67.42.13.67.64.52,1.05.99-.88,3.23-3.16,4.45-1.34.87,1.29-.28,3-1.65,3.21Z"/>
      <path class="cls-3" d="M129.19,54.43c0,29.42-24.87,60.95-53.27,53.27-26.84-7.25-53.27-23.85-53.27-53.27S47.35-5.88,75.92,1.15s53.27,23.85,53.27,53.27Z"/>
      <circle class="cls-2" cx="75.92" cy="54.43" r="40.29"/>
      <path class="cls-4" d="M45.07,47.9c4.27-18.44,25.32-32.05,43.31-25.69,7.91,1.77,22.02,17.81,4.92,16.11-12.74-2.16-29.58-5.13-39.24,6.14-4.8,5.45-6.69,15.56-8.31,18.64-3.28,5.71-1.86-13.18-.81-14.69l.14-.51Z"/>
      <path class="cls-4" d="M98.79,70.86c-6.68,11.46-23.6,16.21-34.33,8.21-4.93-2.83-11.05-16.49.05-11.81,8.09,4.09,18.74,9.57,27.54,4.03,4.34-2.66,7.71-9.03,9.43-10.76,3.38-3.14-1.49,9.21-2.5,10l-.2.32Z"/>
    </g>
  </g>
</svg>