<?xml version="1.0" encoding="UTF-8"?>
<svg xmlns="http://www.w3.org/2000/svg" viewBox="0 0 580.61 224.56">
  <defs>
    <style>
      .cls-1 {
        fill: #7a4b27;
      }

      .cls-2 {
        fill: #689d2f;
      }

      .cls-3 {
        fill: #c0bcaf;
      }

      .cls-4 {
        fill: #693822;
      }

      .cls-5 {
        fill: #935a38;
      }

      .cls-6 {
        fill: #c6e6f2;
      }

      .cls-7 {
        fill: #3f762f;
      }

      .cls-8 {
        fill: #807c70;
      }

      .cls-9 {
        fill: #615d52;
      }

      .cls-10 {
        fill: #a8dbf1;
      }

      .cls-11 {
        fill: #422412;
      }

      .cls-12 {
        fill: #3c3d38;
      }

      .cls-13 {
        fill: #a7ca53;
      }

      .cls-14 {
        fill: #f7a524;
      }

      .cls-15 {
        fill: #41b5e1;
      }

      .cls-16 {
        fill: #f18819;
      }

      .cls-17 {
        fill: #41b4e0;
      }
    </style>
  </defs>
  <g>
    <g>
      <g>
        <path class="cls-9" d="M410.46,118.07c-.17-.5,11.27-13.42,11.27-13.42l-2.15-9.28s-5.3-3.65-5.8-3.81-19.06-15.58-19.06-15.58l-4.64-3.81-11.93-3.81-10.27.99-4.97,5.97-2.15,4.64-1.99,4.47-4.81,8.78-1.82,5.47-1.33,4.97,9.94,10.77,5.8,4.47,43.91-.83Z"/>
        <path class="cls-8" d="M410.46,118.07c-.17-.5,11.27-13.42,11.27-13.42l-2.15-9.28s-5.3-3.65-5.8-3.81-19.06-15.58-19.06-15.58l-4.64-3.81-11.93-3.81-10.27.99-4.97,5.97-2.15,4.64-1.99,4.47,2.18,10.99,29.3,22.65h20.22Z"/>
        <path class="cls-12" d="M351.89,103.74c4.87,4.06,9.74,8.12,14.62,12.18-3.34-3.3-6.68-6.6-10.01-9.91-1.21-1.19-2.48-2.52-2.72-4.2-.15-1.1.17-2.2.54-3.24.58-1.62,5.92-11.91,4.08-12.77-.65,1.43-1.15,2.9-1.93,4.28-.65,1.14-1.41,2.25-1.67,3.53-.14.68-.14,1.37-.28,2.05-.58,2.78-1.46,5.49-2.62,8.08Z"/>
        <path class="cls-3" d="M414.76,109.91c1.68-3.2,2.99-6.6,3.9-10.1.22-.83.41-1.7.22-2.54-.24-1.05-1.05-1.89-1.98-2.43s-1.97-.84-2.99-1.19c-3.8-1.3-7.34-3.34-10.35-5.99-.95-.83-1.84-1.72-2.73-2.62-.25-.26-.51-.51-.76-.77-1.69-1.72-3.39-3.43-5.08-5.15-1.16-1.18-2.33-2.36-3.71-3.28-1.28-.84-2.7-1.44-4.12-2.02-3.27-1.35-6.57-2.72-10.06-3.33-.92-.16-1.88-.27-2.78,0-1.31.39-2.47,1.55-3.8,1.29-.6-.12-1.22.23-1.6.71s-.57,1.08-.75,1.67c-.27.91-.54,1.82-.78,2.74,1.07-1.32,2.37-2.44,3.84-3.28,1.24-.72,2.68-1.25,4.09-1.02,1.26.21,2.34.99,3.57,1.33,1.19.33,2.46.21,3.69.3,3.29.22,6.3,1.85,9.08,3.62,1.71,1.09,3.4,2.25,4.84,3.67,1.06,1.04,1.97,2.21,2.93,3.35,3.86,4.59,8.36,8.64,13.34,12,1.31.89,2.69,1.75,3.67,2.99s1.51,2.99.88,4.44c-.26.61-.7,1.12-1.14,1.63-1.05,1.21-2.09,2.42-3.14,3.63.11.48.5.8.99.72s.77.13.72-.36Z"/>
        <polygon class="cls-8" points="361.11 96.95 357.56 101.52 389.53 118.07 361.11 96.95"/>
        <path class="cls-3" d="M393.71,89.81l-.07.91c-.01.15-.18.24-.31.16l-7.6-4.64c-3.59-2.19-7.28-4.21-11.06-6.04-.23-.11-.42.22-.2.36,2.41,1.56,4.76,3.23,6.81,5.23,2.57,2.51,4.69,5.63,5.5,9.11.05.22.37.22.41-.01.17-1.11.25-2.23.24-3.35,0-.11.08-.2.19-.21,1.82-.14,3.58,1.01,4.63,2.52.85,1.21,1.33,2.63,1.72,4.07.06.23.4.19.41-.05.02-.84-.02-1.67-.12-2.5-.03-.2.23-.31.37-.15.81.96,1.51,2.01,2.1,3.13.09.17.34.14.39-.04.86-3.16-1.42-5.91-3.01-8.59-.1-.17-.37-.11-.38.09Z"/>
      </g>
      <g>
        <g>
          <path class="cls-9" d="M264.96,124.38c-.37-1.1,24.87-29.62,24.87-29.62l-4.75-20.48s-11.7-8.04-12.8-8.41-42.05-34.37-42.05-34.37l-10.24-8.41-26.33-8.41-22.67,2.19-10.97,13.16-4.75,10.24-4.39,9.87-10.6,19.38-4.02,12.07-2.93,10.97,21.94,23.77,12.8,9.87,96.9-1.83Z"/>
          <path class="cls-8" d="M264.96,124.38c-.37-1.1,24.87-29.62,24.87-29.62l-4.75-20.48s-11.7-8.04-12.8-8.41-42.05-34.37-42.05-34.37l-10.24-8.41-26.33-8.41-22.67,2.19-10.97,13.16-4.75,10.24-4.39,9.87,4.82,24.26,64.66,49.97h44.61Z"/>
          <path class="cls-12" d="M135.71,92.74c10.75,8.96,21.5,17.92,32.25,26.88-7.37-7.29-14.73-14.57-22.1-21.86-2.67-2.64-5.48-5.55-5.99-9.27-.34-2.42.37-4.85,1.19-7.15,1.28-3.57,13.07-26.28,9-28.18-1.44,3.15-2.53,6.4-4.26,9.44-1.43,2.51-3.1,4.96-3.69,7.79-.31,1.49-.3,3.03-.61,4.52-1.28,6.13-3.22,12.12-5.79,17.83Z"/>
          <path class="cls-3" d="M274.46,106.35c3.71-7.06,6.61-14.56,8.61-22.28.48-1.83.9-3.75.49-5.59-.52-2.31-2.32-4.16-4.36-5.36-2.04-1.2-4.35-1.86-6.59-2.62-8.38-2.86-16.19-7.38-22.84-13.22-2.09-1.84-4.07-3.81-6.03-5.78-.56-.56-1.11-1.13-1.67-1.69-3.73-3.79-7.47-7.57-11.2-11.36-2.56-2.6-5.15-5.22-8.2-7.23-2.82-1.86-5.96-3.17-9.08-4.46-7.22-2.99-14.51-6-22.2-7.34-2.03-.36-4.16-.59-6.14,0-2.88.86-5.44,3.42-8.39,2.85-1.33-.26-2.69.5-3.53,1.56-.84,1.06-1.26,2.38-1.65,3.68-.61,2-1.18,4.02-1.73,6.04,2.35-2.9,5.24-5.37,8.47-7.25,2.74-1.58,5.9-2.76,9.02-2.25,2.77.46,5.17,2.19,7.87,2.93,2.63.72,5.42.47,8.15.65,7.25.5,13.9,4.09,20.04,7.98,3.78,2.4,7.5,4.96,10.68,8.11,2.33,2.3,4.35,4.88,6.46,7.39,8.52,10.13,18.45,19.07,29.43,26.47,2.9,1.96,5.93,3.86,8.1,6.6,2.17,2.75,3.33,6.59,1.94,9.8-.58,1.35-1.56,2.48-2.51,3.59-2.31,2.67-4.61,5.34-6.92,8.01.25,1.07,1.1,1.77,2.19,1.58s1.71.29,1.58-.8Z"/>
          <polygon class="cls-8" points="156.06 77.77 148.22 87.85 218.79 124.38 156.06 77.77"/>
          <path class="cls-3" d="M228,62l-.16,2.01c-.03.34-.4.53-.69.35l-16.77-10.24c-7.91-4.83-16.06-9.28-24.41-13.32-.52-.25-.93.49-.44.8,5.32,3.45,10.5,7.12,15.03,11.54,5.68,5.54,10.34,12.43,12.14,20.11.12.49.82.48.9-.02.37-2.44.55-4.91.52-7.39,0-.24.17-.44.41-.46,4.02-.32,7.9,2.23,10.23,5.56,1.87,2.68,2.94,5.8,3.81,8.97.14.5.88.42.9-.1.05-1.84-.03-3.69-.26-5.53-.06-.45.52-.69.81-.34,1.78,2.13,3.34,4.45,4.64,6.9.2.37.74.31.85-.09,1.89-6.98-3.14-13.04-6.64-18.95-.23-.38-.81-.25-.85.2Z"/>
        </g>
        <path class="cls-2" d="M122.08,106.99c-1.76-3.67-4.25-7.76-1.35-11.73,1.95-2.67,3.69.17,5.78-.75.49-.21.8-.69,1.06-1.15,1.08-1.88,1.21-5.67,2.69-7.13,1.84-1.82,5.76,2.87,6.48,4.2-.96-1.76,3.14-5.91,4.67-5.69,2.57.37,5.92,5.38,8.05,6.89,2.3-4.52,2.15-9.44,6.23-13.21,1.43-1.32,3.21-2.26,5.13-2.57,7.01-1.12,10.51,5.79,9.7,11.52-.59,4.16-4.08,7.13-4.86,11.16,3.82,1.47,9.82.55,14.1,1.33.8.14,1.62.32,2.25.83,3.05,2.46-3.07,8.88-4.79,10.57,2.31-2.27,7.27-1.11,9.82.06,6.19,2.84.38,7.69-2.56,11.17,2.43-.21,5.67,2.45,6.95,4.37,1.7,2.55,1.75,5.63-.1,8.13-4.65,6.31-15.25,2.79-21.41,1.45-10.75-2.34-22.14-3.82-30.72-11.4-2.52-2.22-4.92-5.02-8.24-5.53-2.59-.4-14.2,4.26-14.15-1.17.01-1.23,1.19-2.33,2.42-2.25-3.19-1.98-11.17-6.2-7.23-10.99,2.8-3.4,8.38-1.67,10.06,1.87Z"/>
        <path class="cls-13" d="M124.63,126.29c-2.63-1.49-5.88-2.93-5.8-6.58.05-2.45,2.32-1.46,3.21-2.91.21-.34.2-.76.16-1.15-.14-1.6-1.67-3.97-1.39-5.49.35-1.89,4.73-.69,5.73-.19-1.33-.67-.59-4.93.43-5.45,1.72-.86,5.89.77,7.83.79-.51-3.73-2.69-6.66-1.8-10.7.31-1.41,1-2.74,2.04-3.74,3.8-3.66,8.86-.93,10.8,2.91,1.41,2.79.54,6.08,1.77,8.86,2.95-.73,6.22-3.82,9.16-5.17.55-.25,1.13-.49,1.72-.45,2.9.21,1.89,6.72,1.57,8.48.44-2.37,3.96-3.76,6.01-4.13,4.98-.89,3.49,4.53,3.18,7.9,1.39-1.16,4.49-.91,6.09-.28,2.11.83,3.45,2.69,3.39,5-.16,5.82-8.12,8.17-12.44,9.96-7.54,3.13-15.12,7.06-23.56,6.08-2.48-.29-5.13-.97-7.37.13-1.75.86-6.85,8.62-9.12,5.29-.52-.76-.26-1.92.52-2.4-2.79.15-9.44.96-9.07-3.63.27-3.26,4.4-4.57,6.92-3.12Z"/>
        <g>
          <path class="cls-7" d="M580.61,149.04h0s-.57,3.73-.57,3.73c-8.39,4.9-18.83,8.95-30.25,12.32-.08.03-.15.04-.23.06-.74.22-1.49.44-2.24.65-.49.14-.99.28-1.48.42-.87.24-1.76.48-2.65.71-.57.15-1.14.3-1.71.44-.81.21-1.63.42-2.46.62-2.64.65-5.31,1.27-8.01,1.85-.88.2-1.78.39-2.67.58-1.43.3-2.86.6-4.31.88-2.52.5-5.06.98-7.59,1.42-1.26.22-2.51.45-3.77.65-3.54.61-7.06,1.15-10.56,1.66-.72.11-1.44.21-2.16.31-3.3.47-6.56.9-9.77,1.29-32.05,3.95-58.61,4.52-58.61,4.52.98,2.1-.14,4.59-2.36,5.21-46.1,13.03-171.56,10.37-171.56,10.37-29.19,1.85-165.24-9.11-173.37-13.61-5.41-3,5.17-7.35,12.86-9.93.89-.3.63-1.63-.31-1.56-1.03.07-2.14.15-3.33.23-.41.03-.82.06-1.25.09-.49.04-.98.06-1.49.1-.55.04-1.11.07-1.7.11-.42.03-.85.05-1.29.08-.43.03-.87.05-1.32.08-.45.03-.9.05-1.36.08-.92.05-1.86.11-2.82.16-1.43.07-2.91.15-4.43.24h-.03c-24.72,1.22-59.86,1.73-73.31-4.04-.8-.34-1.49-.7-2.06-1.05-15-9.37,44.16-23.68,44.16-23.68l-5.37-2.88c-2.18-1.16-1.71-4.41.7-4.92l88.9-18.8s112.24-15.2,193.49-15.6c81.26-.41,164.33,10.92,170.96,13.92,4.35,1.97-1.42,3.7-5.9,4.65-.96.2-.97,1.57,0,1.81,66.14,15.81,85.85,23.34,91.23,26.81h0Z"/>
          <path class="cls-2" d="M527.82,149.11h0s-.47,3.05-.47,3.05c-6.87,4.01-15.4,7.33-24.75,10.08-.07.02-.12.04-.19.05-.61.18-1.22.36-1.84.53-.4.12-.81.23-1.21.34-.72.2-1.44.39-2.17.58-.46.12-.93.25-1.4.36-.67.17-1.34.34-2.01.51-2.16.53-4.35,1.04-6.55,1.51-.72.17-1.45.32-2.18.47-1.17.25-2.34.49-3.53.72-2.06.41-4.14.8-6.21,1.17-1.03.18-2.05.36-3.08.53-2.89.5-5.78.94-8.64,1.36-.59.09-1.18.18-1.76.26-2.7.39-5.37.74-7.99,1.06-26.22,3.23-47.95,3.69-47.95,3.69.8,1.72-.12,3.75-1.93,4.26-37.72,10.66-140.36,8.48-140.36,8.48-23.88,1.51-135.19-7.45-141.84-11.13-4.42-2.45,4.23-6.02,10.52-8.12.73-.25.51-1.33-.25-1.27-.84.06-1.75.13-2.73.19-.33.02-.67.05-1.02.07-.4.03-.8.05-1.21.08-.45.03-.91.06-1.39.09-.35.02-.69.04-1.06.07-.35.02-.71.04-1.08.07-.37.02-.74.04-1.11.07-.75.04-1.52.09-2.31.13-1.17.06-2.38.13-3.62.19h-.02c-20.22,1-48.97,1.42-59.98-3.31-.65-.28-1.22-.57-1.69-.86-12.27-7.67,36.13-19.37,36.13-19.37l-4.39-2.36c-1.78-.95-1.4-3.61.57-4.02l72.74-15.38s91.83-12.43,158.3-12.77c66.48-.33,134.45,8.93,139.87,11.39,3.56,1.62-1.16,3.02-4.83,3.8-.79.17-.79,1.29,0,1.48,54.11,12.93,70.24,19.1,74.64,21.93h0Z"/>
          <path class="cls-13" d="M484.64,149.17h0s-.38,2.5-.38,2.5c-5.62,3.28-12.6,5.99-20.25,8.25-.05.02-.1.03-.15.04-.5.15-1,.29-1.5.43-.33.1-.66.18-.99.28-.59.16-1.18.32-1.77.48-.38.1-.76.2-1.15.3-.54.14-1.09.28-1.64.42-1.77.43-3.56.85-5.36,1.24-.59.14-1.19.26-1.79.39-.96.2-1.92.4-2.89.59-1.69.33-3.38.66-5.08.95-.84.15-1.68.3-2.52.44-2.37.41-4.73.77-7.07,1.11-.48.07-.96.14-1.44.21-2.21.32-4.39.6-6.54.87-21.46,2.64-39.23,3.02-39.23,3.02.65,1.41-.1,3.07-1.58,3.49-30.86,8.72-114.85,6.94-114.85,6.94-19.54,1.24-110.62-6.1-116.06-9.11-3.62-2.01,3.46-4.92,8.61-6.65.6-.2.42-1.09-.21-1.04-.69.05-1.43.1-2.23.16-.27.02-.55.04-.83.06-.33.02-.66.04-.99.07-.37.02-.75.05-1.14.07-.28.02-.57.04-.86.05-.29.02-.58.04-.88.05-.3.02-.6.04-.91.05-.62.04-1.24.07-1.89.11-.96.05-1.95.1-2.96.16h-.02c-16.55.82-40.07,1.16-49.08-2.7-.53-.23-.99-.47-1.38-.7-10.04-6.27,29.56-15.85,29.56-15.85l-3.59-1.93c-1.46-.78-1.15-2.95.47-3.29l59.51-12.58s75.13-10.17,129.53-10.45c54.4-.27,110.01,7.31,114.44,9.32,2.91,1.32-.95,2.47-3.95,3.11-.64.14-.65,1.05,0,1.21,44.27,10.58,57.47,15.62,61.07,17.95h0Z"/>
        </g>
        <path class="cls-4" d="M580.48,152.89l-2.52,16.46c-.57.55-1.17,1.07-1.77,1.57-12.05,10-29.5,11.11-29.5,11.11-80.94,16.97-118.56,12.22-118.56,12.22l-1.79,8.41c-40.69,23.44-164,21.89-164,21.89-156.8-1.6-170.67-20.54-170.67-20.54l-2.12-9.62c-77.95-.8-84.88-10.42-84.88-10.42l-.22-2.06-1.56-14.05c.58.35,1.27.71,2.06,1.05,13.45,5.77,48.58,5.26,73.29,4.04h.02c7.66-.38,14.3-.83,19.01-1.17.94-.07,1.2,1.25.31,1.56-7.69,2.57-18.26,6.93-12.86,9.93,8.13,4.5,144.18,15.46,173.37,13.61,0,0,125.46,2.66,171.56-10.37,2.22-.62,3.34-3.11,2.36-5.21,0,0,26.56-.57,58.61-4.52,19.42-2.4,40.85-6.04,59.61-11.55,11.43-3.37,21.86-7.42,30.25-12.32Z"/>
        <path class="cls-17" d="M112.39,139.17c.05-.04.1-.07.16-.1,2.28-1.1,52.11-24.25,190.83-22.93,0,0,120.52-3.7,139.41,11.14,0,0,8.47,5.6-18.8,11.41-.03,0-.06.01-.09.02-.86.1-13.98,1.59-7.27,2.7,6.64,1.1-2.98,3.28-3.79,3.46-.04,0-.07.02-.11.03-.72.26-7.83,2.95,3.53,3.56,11.94.64,30.04.62,30.81,4.85s-69.26,22.8-145.49,17.91c-.02,0-.05,0-.07,0-1.49.02-52.45.84-60.42-2.4-8.09-3.29,5.38-3.31,5.39-3.31-9.96,0-20.21,4.81-29.65-.8-.68-.4-.59-1.42.14-1.72.48-.2,1.03-.43,1.59-.67,1-.43.65-1.93-.43-1.87-4.6.25-9.35,1.07-13.84,1.24-6.97.26-13.94.26-20.91,0-18.13-.68-35.05-4.55-52.81-7.56,0,0-31.37-5.33-18.15-14.94Z"/>
        <path class="cls-6" d="M133.28,139.88s.09-.06.14-.08c1.95-.94,44.45-20.69,162.77-19.56,0,0,102.8-3.15,118.91,9.5,0,0,7.22,4.78-16.04,9.73-.03,0-.05.01-.08.01-.73.08-11.92,1.36-6.2,2.3,5.67.94-2.54,2.8-3.23,2.95-.03,0-.06.01-.09.03-.61.22-6.68,2.51,3.01,3.03,10.18.55,25.62.52,26.28,4.14.66,3.61-59.07,19.45-124.1,15.28-.02,0-.04,0-.06,0-1.27.02-44.74.72-51.54-2.05-6.9-2.8,4.59-2.82,4.59-2.82-8.49,0-17.24,4.1-25.29-.68-.58-.34-.5-1.21.12-1.47.41-.17.88-.37,1.35-.57.85-.36.56-1.64-.37-1.6-3.92.21-7.97.91-11.81,1.06-5.94.22-11.89.22-17.83,0-15.47-.58-29.9-3.88-45.05-6.45,0,0-26.76-4.55-15.48-12.74Z"/>
        <path class="cls-10" d="M149.55,139.17s.08-.05.12-.07c1.67-.8,38.06-17.71,139.38-16.75,0,0,88.03-2.7,101.82,8.14,0,0,6.19,4.09-13.73,8.33-.02,0-.04,0-.07.01-.63.07-10.21,1.16-5.31,1.97,4.85.8-2.18,2.4-2.77,2.53-.03,0-.05.01-.08.02-.52.19-5.72,2.15,2.58,2.6,8.72.47,21.94.45,22.5,3.54.57,3.09-50.59,16.66-106.27,13.08-.02,0-.03,0-.05,0-1.09.02-38.31.62-44.13-1.75-5.91-2.4,3.93-2.41,3.93-2.41-7.27,0-14.76,3.51-21.66-.59-.5-.29-.43-1.04.1-1.26.35-.15.75-.32,1.16-.49.73-.31.48-1.41-.31-1.37-3.36.18-6.83.78-10.11.9-5.09.19-10.18.19-15.27,0-13.25-.5-25.6-3.32-38.57-5.52,0,0-22.92-3.89-13.26-10.91Z"/>
        <path class="cls-15" d="M207.9,134.44s.04-.03.06-.04c.92-.44,20.98-9.76,76.84-9.23,0,0,48.52-1.49,56.13,4.48,0,0,3.41,2.25-7.57,4.59-.01,0-.02,0-.04,0-.35.04-5.63.64-2.93,1.09s-1.2,1.32-1.53,1.39c-.02,0-.03,0-.04.01-.29.1-3.15,1.19,1.42,1.43,4.81.26,12.09.25,12.41,1.95s-27.89,9.18-58.58,7.21c0,0-.02,0-.03,0-.6,0-21.12.34-24.33-.97-3.26-1.32,2.17-1.33,2.17-1.33-4.01,0-8.14,1.94-11.94-.32-.27-.16-.24-.57.06-.69.19-.08.41-.17.64-.27.4-.17.26-.78-.17-.75-1.85.1-3.76.43-5.57.5-2.8.11-5.61.1-8.42,0-7.3-.28-14.11-1.83-21.26-3.05,0,0-12.63-2.15-7.31-6.01Z"/>
        <g>
          <g>
            <path class="cls-16" d="M227.03,0l129.93.1s11.78,19.58,11.78,38.05h5.15v13.93h-165.03v-13.32l6.66-.3s-1.21-16.35,11.51-38.46Z"/>
            <path class="cls-1" d="M242.17,0h98.72s11.51,17.26,13.02,39.37h-125.06s1.82-23.62,13.32-39.37Z"/>
          </g>
          <g>
            <polygon class="cls-16" points="356.33 137.98 228.55 137.98 217.64 52.28 365.11 52.28 356.33 137.98"/>
            <polygon class="cls-1" points="225.82 57.88 275.48 57.88 275.48 79.69 304.85 79.69 304.85 57.88 356.94 57.88 350.27 132.37 234 132.37 225.82 57.88"/>
            <path class="cls-11" d="M292.13,69.35l3.19,6.24h-9.99l2.72-6.45c-1.61-.83-2.72-2.51-2.72-4.45,0-2.76,2.24-5,5-5s5,2.24,5,5c0,2.12-1.32,3.93-3.19,4.66Z"/>
          </g>
          <polygon class="cls-11" points="235.44 12.29 233.28 18.19 348.4 15.24 235.44 12.29"/>
          <polygon class="cls-11" points="350.77 22.26 352.19 27.72 231.34 24.99 350.77 22.26"/>
          <polygon class="cls-11" points="241.01 1.67 343.49 4.46 342.72 3.06 241.01 1.67"/>
          <polygon class="cls-11" points="229.25 89.15 230.11 98.08 353.82 95.13 229.25 89.15"/>
          <polygon class="cls-11" points="352.88 103.27 352.19 109.28 231.34 106.55 352.88 103.27"/>
          <polygon class="cls-11" points="304.57 67.65 355.8 70.44 355.94 69.06 304.57 67.65"/>
          <polygon class="cls-11" points="232.71 119.1 350.5 122.69 350.8 120.92 232.71 119.1"/>
          <polygon class="cls-11" points="227.48 71.57 275.38 74.36 275.51 72.98 227.48 71.57"/>
          <path class="cls-14" d="M353.34,8.18l6.81.76s11.36,33.31,1.97,38.31c-9.39,5-147.32,0-147.32,0v-5.9l4.69.15s2.42-28.62,7.57-33.31l4.69-.91s-8.33,28.46-6.51,33.01,132.93-.76,132.93-.76c0,0-.61-27.56-4.84-31.34Z"/>
          <polygon class="cls-14" points="356.94 53.6 363.12 54.61 356.94 109.28 353.82 108.51 360.09 56.42 353.82 55.41 356.94 53.6"/>
          <polygon class="cls-14" points="226.14 53.6 219.96 54.61 226.14 109.28 229.25 108.51 222.98 56.42 229.25 55.41 226.14 53.6"/>
          <polygon class="cls-5" points="237.35 62.88 270.06 62.88 268.84 70.44 238.77 66.66 237.35 62.88"/>
          <path class="cls-5" d="M242.2,6.02c3.16-.12,79.84.89,79.84.89l-3.95,3.84-75.89-1.21v-3.51Z"/>
          <path class="cls-5" d="M252.69,29.37c7.82,0,91.5,1.96,91.5,1.96l-4.69,2.93-78.18-1.79-8.63-3.1Z"/>
          <path class="cls-5" d="M251.49,87.15c7.82.14,91.45,3.62,91.45,3.62l-4.74,2.85-78.13-3.22-8.57-3.25Z"/>
          <path class="cls-5" d="M240.54,117.65c7.82.01,91.5,1.11,91.5,1.11l-4.69,1.49-78.17-1.01-8.63-1.59Z"/>
        </g>
      </g>
    </g>
  </g>
</svg>