<?xml version="1.0" encoding="UTF-8"?>
<svg id="Capa_2" data-name="Capa 2" xmlns="http://www.w3.org/2000/svg" viewBox="0 0 211.66 95.5">
  <defs>
    <style>
      .cls-1 {
        fill: #7a4b27;
      }

      .cls-2 {
        fill: #693822;
      }

      .cls-3 {
        fill: #935a38;
      }

      .cls-4 {
        fill: #422412;
      }

      .cls-5 {
        fill: #f7a524;
      }

      .cls-6 {
        fill: #f18819;
      }
    </style>
  </defs>
  <g id="Capa_1-2" data-name="Capa 1">
    <g>
      <path class="cls-2" d="M211.66,78.18h0s-.21,1.36-.21,1.36c-3.06,1.78-6.87,3.25-11.03,4.48-.03,0-.05.02-.08.02-.27.08-.54.16-.82.24-.18.05-.36.1-.54.15-.32.09-.64.17-.97.26-.21.05-.42.11-.63.16-.3.08-.6.15-.9.23-.96.24-1.94.46-2.92.67-.32.07-.65.14-.97.21-.52.11-1.04.22-1.57.32-.92.18-1.84.35-2.77.52-.46.08-.92.16-1.37.24-1.29.22-2.57.42-3.85.6-.26.04-.53.08-.79.11-1.2.17-2.39.33-3.56.47-11.69,1.42-21.37,1.62-21.37,1.62.35.77-.05,1.67-.86,1.9-16.81,4.73-62.54,3.7-62.54,3.7-10.64.66-60.23-3.4-63.19-5.04-1.97-1.1,1.89-2.68,4.69-3.61.33-.11.23-.59-.11-.57-.37.03-.78.05-1.21.08-.15,0-.3.02-.45.03-.18.01-.36.02-.54.04-.2.01-.41.03-.62.04-.15,0-.31.02-.47.03-.16,0-.32.02-.48.03-.16,0-.33.02-.5.03-.34.02-.68.04-1.03.06-.52.03-1.06.05-1.61.08h0c-9.01.43-21.82.6-26.72-1.51-.29-.13-.54-.25-.75-.38-5.46-3.42,16.11-8.61,16.11-8.61l-1.96-1.05c-.79-.43-.62-1.61.26-1.79l32.42-6.81s40.92-5.48,70.54-5.59c29.62-.11,59.9,4.06,62.31,5.16,1.59.72-.52,1.35-2.15,1.69-.35.07-.35.57,0,.66,24.1,5.79,31.29,8.55,33.24,9.82h0Z"/>
      <path class="cls-5" d="M192.09,78.18h0s-.16,1.07-.16,1.07c-2.41,1.4-5.41,2.56-8.69,3.52-.02,0-.04.01-.07.02-.21.06-.43.12-.64.19-.14.04-.28.08-.43.12-.25.07-.5.14-.76.2-.16.04-.33.09-.49.13-.23.06-.47.12-.71.18-.76.19-1.52.36-2.3.53-.25.06-.51.11-.77.16-.41.09-.82.17-1.24.25-.72.14-1.45.28-2.18.41-.36.06-.72.13-1.08.19-1.01.17-2.03.33-3.03.47-.21.03-.41.06-.62.09-.95.13-1.88.26-2.8.37-9.2,1.12-16.82,1.27-16.82,1.27.28.6-.04,1.32-.68,1.49-13.24,3.72-49.24,2.91-49.24,2.91-8.38.52-47.42-2.68-49.75-3.97-1.55-.86,1.49-2.11,3.69-2.84.26-.09.18-.47-.09-.45-.29.02-.61.04-.96.07-.12,0-.24.02-.36.03-.14.01-.28.02-.43.03-.16.01-.32.02-.49.03-.12,0-.24.02-.37.02-.12,0-.25.02-.38.02-.13,0-.26.02-.39.02-.26.02-.53.03-.81.05-.41.02-.83.04-1.27.07h0c-7.09.34-17.18.47-21.04-1.19-.23-.1-.43-.2-.59-.3-4.3-2.69,12.68-6.78,12.68-6.78l-1.54-.83c-.62-.33-.49-1.27.2-1.41l25.52-5.36s32.22-4.32,55.53-4.4c23.32-.09,47.16,3.2,49.06,4.06,1.25.57-.41,1.06-1.69,1.33-.28.06-.28.45,0,.52,18.97,4.56,24.63,6.73,26.17,7.73h0Z"/>
      <g>
        <g>
          <path class="cls-6" d="M68.45,0l76.73.06s6.96,11.56,6.96,22.47h3.04v8.23H57.72v-7.87l3.93-.18s-.72-9.66,6.8-22.71Z"/>
          <path class="cls-1" d="M77.39,0h58.3s6.8,10.19,7.69,23.25h-73.86s1.07-13.95,7.87-23.25Z"/>
        </g>
        <g>
          <polygon class="cls-6" points="144.81 81.48 69.35 81.48 62.91 30.88 150 30.88 144.81 81.48"/>
          <polygon class="cls-1" points="67.74 34.18 97.06 34.18 97.06 47.06 114.41 47.06 114.41 34.18 145.17 34.18 141.24 78.17 72.57 78.17 67.74 34.18"/>
          <path class="cls-4" d="M106.9,40.96l1.88,3.69h-5.9l1.61-3.81c-.95-.49-1.61-1.48-1.61-2.63,0-1.63,1.32-2.95,2.95-2.95s2.95,1.32,2.95,2.95c0,1.25-.78,2.32-1.88,2.75Z"/>
        </g>
        <polygon class="cls-4" points="73.42 7.26 72.14 10.74 140.13 9 73.42 7.26"/>
        <polygon class="cls-4" points="141.53 13.14 142.36 16.37 71 14.76 141.53 13.14"/>
        <polygon class="cls-4" points="76.71 .98 137.23 2.63 136.77 1.81 76.71 .98"/>
        <polygon class="cls-4" points="69.76 52.65 70.27 57.92 143.33 56.18 69.76 52.65"/>
        <polygon class="cls-4" points="142.77 60.99 142.36 64.53 71 62.92 142.77 60.99"/>
        <polygon class="cls-4" points="114.24 39.95 144.5 41.6 144.58 40.78 114.24 39.95"/>
        <polygon class="cls-4" points="71.81 70.34 141.37 72.46 141.55 71.41 71.81 70.34"/>
        <polygon class="cls-4" points="68.71 42.27 97.01 43.92 97.08 43.1 68.71 42.27"/>
        <path class="cls-5" d="M143.04,4.83l4.02.45s6.71,19.67,1.16,22.62-87,0-87,0v-3.49l2.77.09s1.43-16.9,4.47-19.67l2.77-.54s-4.92,16.81-3.84,19.49c1.07,2.68,78.51-.45,78.51-.45,0,0-.36-16.27-2.86-18.51Z"/>
        <polygon class="cls-5" points="145.17 31.65 148.82 32.25 145.17 64.53 143.33 64.08 147.03 33.32 143.33 32.73 145.17 31.65"/>
        <polygon class="cls-5" points="67.93 31.65 64.27 32.25 67.93 64.53 69.76 64.08 66.06 33.32 69.76 32.73 67.93 31.65"/>
        <polygon class="cls-3" points="74.55 37.14 93.86 37.14 93.15 41.6 75.38 39.37 74.55 37.14"/>
        <path class="cls-3" d="M77.41,3.56c1.87-.07,47.15.52,47.15.52l-2.33,2.27-44.82-.72v-2.07Z"/>
        <path class="cls-3" d="M83.61,17.35c4.62,0,54.04,1.16,54.04,1.16l-2.77,1.73-46.17-1.06-5.1-1.83Z"/>
        <path class="cls-3" d="M82.9,51.46c4.62.08,54.01,2.14,54.01,2.14l-2.8,1.68-46.14-1.9-5.06-1.92Z"/>
        <path class="cls-3" d="M76.43,69.48c4.62,0,54.03.66,54.03.66l-2.77.88-46.17-.6-5.1-.94Z"/>
      </g>
    </g>
  </g>
</svg>