<?xml version="1.0" encoding="UTF-8"?>
<svg id="Capa_2" data-name="Capa 2" xmlns="http://www.w3.org/2000/svg" viewBox="0 0 165.56 167.78">
  <defs>
    <style>
      .cls-1 {
        fill: #ec6721;
      }

      .cls-2 {
        fill: #23a737;
      }

      .cls-3 {
        fill: #884292;
      }

      .cls-4 {
        fill: #d54391;
        opacity: .59;
      }

      .cls-5, .cls-6 {
        fill: #f8ad19;
      }

      .cls-6 {
        opacity: .72;
      }
    </style>
  </defs>
  <g id="Capa_1-2" data-name="Capa 1">
    <g>
      <path class="cls-5" d="M54.68,33.44c-1.49-2.29-3.42-4.7-2.55-8.37.58-2.46,1.93-.78,2.87-1.98.22-.28.3-.71.37-1.11.26-1.66-.27-4.5.26-5.95.66-1.81,3.43.71,4.01,1.52-.77-1.07.69-5.16,1.51-5.37,1.39-.36,3.91,2.53,5.25,3.12.47-3.92-.38-7.53,1.13-11.34.53-1.33,1.3-2.47,2.25-3.17,3.44-2.56,6.35,1.69,6.84,6.15.35,3.23-.98,6.3-.75,9.48,2.2.14,5.16-2.01,7.5-2.5.43-.09.89-.16,1.3.06,1.96,1.07-.18,7.35-.8,9.02.83-2.26,3.58-2.62,5.09-2.38,3.65.58,1.41,5.61.44,8.92,1.22-.75,3.32.41,4.28,1.53,1.28,1.47,1.79,3.74,1.24,6.05-1.41,5.82-7.44,5.83-10.83,6.36-5.92.92-12.05,2.63-17.68-.86-1.65-1.03-3.34-2.51-5.13-2.06-1.4.35-6.66,6.67-7.5,2.63-.19-.92.25-2.02.89-2.27-1.96-.68-6.75-1.84-5.47-6.36.91-3.21,4.07-3.31,5.49-1.09Z"/>
      <path class="cls-1" d="M60.7,39.26c-1.53-.95-3.39-1.86-3.56-4.18-.11-1.56,1.19-.93,1.59-1.85.09-.21.06-.48.02-.73-.17-1.02-1.15-2.52-1.08-3.49.08-1.21,2.55-.44,3.13-.12-.77-.42-.61-3.14-.08-3.47.89-.55,3.27.48,4.34.49-.5-2.38-1.86-4.24-1.61-6.81.09-.9.39-1.74.9-2.38,1.87-2.33,4.8-.6,6.09,1.84.93,1.77.65,3.87,1.49,5.64,1.57-.46,3.18-2.44,4.72-3.3.28-.16.59-.32.92-.29,1.6.13,1.43,4.28,1.35,5.39.1-1.51,1.95-2.4,3.05-2.63,2.67-.57,2.18,2.88,2.2,5.02.69-.74,2.41-.58,3.32-.18,1.21.53,2.05,1.71,2.15,3.18.25,3.7-3.97,5.2-6.23,6.35-3.95,2-7.87,4.5-12.55,3.89-1.38-.18-2.87-.61-4.03.09-.91.55-3.25,5.49-4.69,3.37-.33-.48-.26-1.22.14-1.53-1.52.1-5.12.62-5.18-2.3-.05-2.07,2.14-2.91,3.61-1.99Z"/>
      <path class="cls-3" d="M37.95,151.22c-.53,2.84-.81,6.08-4.11,8.48-2.21,1.61-2.02-.64-3.59-.28-.36.08-.74.37-1.08.66-1.39,1.17-3.04,3.83-4.48,4.66-1.8,1.03-2.07-2.84-1.93-3.88-.19,1.38-4.23,3.73-5,3.36-1.3-.62-1.12-4.63-1.7-6-3.18,2.87-5.13,6.36-9.01,8.46-1.36.73-2.76,1.15-3.97,1.09-4.43-.19-3.55-5.56-.72-9.5,2.06-2.86,5.27-4.46,7.38-7.2-1.55-1.57-5.33-1.77-7.43-2.92-.39-.21-.79-.45-.93-.9-.71-2.16,5.43-5.85,7.1-6.8-2.25,1.28-4.58-.24-5.54-1.42-2.33-2.87,2.98-5.49,6.09-7.53-1.46-.19-2.19-2.52-2.12-4.06.1-2.04,1.34-4.22,3.43-5.73,5.25-3.8,9.79.17,12.72,1.98,5.12,3.16,10.95,5.81,12.67,12.36.5,1.92.7,4.24,2.37,5.06,1.3.64,9.81-1.02,7.53,2.81-.52.87-1.64,1.48-2.3,1.25.99,1.84,3.76,5.95-.47,8.78-2.99,2.01-5.44,0-4.92-2.73Z"/>
      <path class="cls-5" d="M42.12,141.97c.52,1.71,1.32,3.62-.08,5.46-.94,1.24-1.51-.09-2.41.33-.21.1-.37.32-.5.53-.54.87-.8,2.63-1.49,3.31-.85.84-2.21-1.35-2.43-1.97.3.82-1.61,2.74-2.22,2.63-1.03-.18-2.14-2.52-2.93-3.23-1.19,2.1-1.39,4.38-3.27,6.12-.66.61-1.44,1.04-2.24,1.18-2.94.5-4-2.72-3.36-5.38.47-1.93,2.06-3.3,2.6-5.17-1.49-.69-4-.29-5.71-.66-.32-.07-.65-.15-.88-.39-1.12-1.15,1.74-4.12,2.54-4.9-1.07,1.05-3.04.49-4.03-.06-2.38-1.34.26-3.58,1.66-5.19-1.01.09-2.19-1.15-2.62-2.05-.56-1.19-.41-2.62.48-3.78,2.25-2.92,6.41-1.25,8.86-.61,4.28,1.12,8.88,1.84,11.99,5.39.91,1.04,1.75,2.35,3.08,2.59,1.04.19,6.06-1.94,5.74.58-.07.57-.61,1.08-1.11,1.04,1.2.93,4.25,2.91,2.37,5.13-1.33,1.57-3.53.75-4.02-.9Z"/>
      <path class="cls-1" d="M133.64,80.69c2.32-1.38,4.79-3.18,8.34-2.13,2.38.7.67,1.97,1.8,2.96.26.23.68.34,1.07.42,1.61.34,4.43-.05,5.83.56,1.74.75-.87,3.39-1.69,3.93,1.09-.72,5.02.94,5.19,1.78.28,1.4-2.68,3.78-3.33,5.09,3.82.67,7.41,0,11.06,1.69,1.28.6,2.36,1.42,3,2.4,2.34,3.57-1.99,6.26-6.38,6.52-3.19.19-6.13-1.29-9.26-1.22-.25,2.19,1.71,5.25,2.06,7.61.07.44.12.9-.12,1.29-1.15,1.91-7.2-.55-8.81-1.25,2.17.94,2.38,3.71,2.07,5.2-.75,3.61-5.58,1.13-8.77,0,.68,1.26-.58,3.29-1.72,4.2-1.51,1.21-3.76,1.61-6,.93-5.64-1.69-5.34-7.72-5.68-11.13-.6-5.96-1.96-12.16,1.76-17.61,1.09-1.6,2.63-3.21,2.29-5.02-.27-1.42-6.2-6.99-2.19-7.62.91-.14,1.97.35,2.18,1,.76-1.93,2.15-6.65,6.52-5.15,3.1,1.07,3.04,4.22.79,5.54Z"/>
      <path class="cls-5" d="M123.1,84.99c1.08-1.49,2.15-3.33,4.58-3.4,1.63-.05.89,1.23,1.83,1.67.22.1.5.08.76.05,1.07-.13,2.7-1.05,3.7-.94,1.25.13.3,2.57-.07,3.14.49-.75,3.3-.49,3.61.06.51.92-.71,3.26-.79,4.33,2.5-.41,4.53-1.7,7.18-1.35.93.12,1.79.46,2.42,1,2.3,1.96.31,4.84-2.3,6.03-1.9.87-4.06.5-5.96,1.27.38,1.59,2.33,3.29,3.13,4.86.15.29.29.6.24.93-.24,1.6-4.54,1.26-5.69,1.14,1.56.17,2.37,2.05,2.54,3.17.42,2.7-3.13,2.07-5.36,2.01.72.73.45,2.44-.02,3.34-.63,1.19-1.91,1.99-3.44,2.03-3.86.11-5.15-4.19-6.2-6.5-1.83-4.04-4.18-8.07-3.24-12.74.28-1.37.82-2.85.17-4.04-.51-.93-5.5-3.48-3.2-4.83.52-.31,1.29-.21,1.58.21,0-1.52-.31-5.15,2.73-5.1,2.16.04,2.89,2.26,1.84,3.7Z"/>
      <path class="cls-2" d="M106.39,44.25c26.1,20.86,36.44,65.27,9.49,85.03-25.46,18.67-58.93,30.35-85.03,9.49C4.75,117.91-5.13,74.09,21.37,53.74c26.83-20.61,58.93-30.35,85.03-9.49Z"/>
      <circle class="cls-3" cx="68.62" cy="91.51" r="45.76"/>
      <path class="cls-4" d="M40.96,114.24c-13.33-16.86-10.48-45.18,7.92-56.63,7.18-5.77,31.41-6.91,17.78,7.06-10.95,9.78-25.52,22.61-22.37,39.16,1.44,8.12,9.06,16.97,10.64,20.59,2.74,6.96-13.01-7.7-13.61-9.69l-.36-.49Z"/>
      <path class="cls-4" d="M99.41,82.88c5.43,14.05-2.36,32.43-17.05,36.27-6,2.37-22.47-1.89-10.44-8.42,9.36-4.28,21.78-9.84,23.1-21.58.72-5.73-2.55-13.24-2.85-15.99-.39-5.23,7.11,7.85,7.1,9.31l.14.4Z"/>
      <path class="cls-6" d="M14.34,101.11c-1.19-2.88-2.17-5.86-2.91-8.88-.72-2.92-1.23-5.94-.85-8.92.86-6.91,6.17-12.3,11.18-17.13.66-.64,1.86-.34,2.38.42s.47,1.78.16,2.64c-.74,2.09-2.71,3.44-4.38,4.9s-3.24,3.52-2.77,5.69c.43,1.97.04,4.11-1.05,5.81-.38.59-.85,1.13-1.16,1.77-.32.64-.46,1.36-.42,2.08.08,1.44.88,2.73,1.21,4.13.58,2.49-.54,5.28-1.37,7.51Z"/>
      <path class="cls-6" d="M123.3,86.16c1.19,2.88,2.17,5.86,2.91,8.88.72,2.92,1.23,5.94.85,8.92-.86,6.91-6.17,12.3-11.18,17.13-.66.64-1.86.34-2.38-.42s-.47-1.78-.16-2.64c.74-2.09,2.71-3.44,4.38-4.9s3.24-3.52,2.77-5.69c-.43-1.97-.04-4.11,1.05-5.81.38-.59.85-1.13,1.16-1.77.32-.64.46-1.36.42-2.08-.08-1.44-.88-2.73-1.21-4.13-.58-2.49.54-5.28,1.37-7.51Z"/>
    </g>
  </g>
</svg>