<?xml version="1.0" encoding="UTF-8"?>
<svg xmlns="http://www.w3.org/2000/svg" viewBox="0 0 402.9 664.08">
  <defs>
    <style>
      .cls-1 {
        fill: #eb6128;
      }

      .cls-2 {
        fill: #6d270f;
      }

      .cls-3 {
        fill: #ef9e5e;
      }

      .cls-4 {
        fill: none;
        stroke: #6d2711;
        stroke-linecap: round;
        stroke-miterlimit: 10;
        stroke-width: 8.73px;
      }

      .cls-5 {
        fill: #f7dad2;
        opacity: .64;
      }

      .cls-6 {
        fill: #6d2710;
      }
    </style>
  </defs>
  <g>
    <g>
      <g>
        <g>
          <path class="cls-3" d="M65.88,5.1v232.6c0-2.82-12.18-5.11-27.19-5.11s-27.2,2.29-27.2,5.11V5.1c0,2.82,12.18,5.11,27.2,5.11s27.19-2.29,27.19-5.11Z"/>
          <path class="cls-3" d="M120.26,5.1v291.58c0-2.82-12.17-5.11-27.19-5.11s-27.19,2.29-27.19,5.11V5.1c0,2.82,12.17,5.11,27.19,5.11s27.19-2.29,27.19-5.11Z"/>
          <path class="cls-3" d="M174.64,5.1v345.96c0-2.82-12.17-5.11-27.19-5.11s-27.19,2.29-27.19,5.11V5.1c0,2.82,12.17,5.11,27.19,5.11s27.19-2.29,27.19-5.11Z"/>
          <path class="cls-2" d="M174.64,351.06c0,1.68-4.29,3.16-10.92,4.09-1.05.15-2.15.29-3.31.4-3.85.39-8.27.61-12.96.61-15.02,0-27.19-2.27-27.19-5.1,0-1.67,4.29-3.16,10.92-4.09,1.05-.15,2.15-.29,3.31-.4,3.85-.4,8.27-.62,12.96-.62s9.11.22,12.96.62c1.16.11,2.26.25,3.31.4,6.63.93,10.92,2.42,10.92,4.09Z"/>
          <path class="cls-3" d="M229.03,5.1v394.21c0-2.82-12.18-5.1-27.2-5.1s-27.19,2.28-27.19,5.1V5.1c0,2.82,12.18,5.11,27.19,5.11s27.2-2.29,27.2-5.11Z"/>
          <path class="cls-1" d="M229.03,399.31s0,.07-.02.11c0,.03,0,.06-.01.09,0,.04-.02.07-.03.11-.02.05-.04.11-.06.16-.03.05-.05.1-.09.15-.05.1-.13.2-.24.3-.58.6-1.71,1.16-3.28,1.66-.27.09-.54.17-.83.25-.29.08-.59.16-.9.24-.5.12-1.04.25-1.61.36-.16.04-.33.07-.5.1-.66.13-1.35.26-2.08.37-.42.07-.84.13-1.28.19-.26.04-.53.07-.8.11-.27.03-.54.07-.81.1-.55.07-1.12.13-1.7.19-.48.05-.97.09-1.47.14-.5.04-1.01.08-1.52.12-2.06.16-4.24.26-6.51.31-.56.01-1.14.02-1.71.03-.58.01-1.16.01-1.75.01-15.02,0-27.19-2.26-27.19-5.1,0-.09.01-.18.04-.26.02-.08.05-.16.09-.23.02-.04.04-.08.07-.12.06-.1.14-.2.24-.3.05-.05.1-.1.15-.15.01-.01.02-.01.02-.01.07-.07.16-.14.25-.2.1-.08.22-.15.34-.23.06-.03.12-.07.19-.11.1-.06.21-.11.31-.17.14-.07.28-.14.44-.2.37-.17.78-.33,1.23-.48.18-.06.37-.12.57-.18.22-.07.46-.14.7-.21.26-.07.53-.14.81-.21.31-.08.63-.16.97-.23.66-.15,1.38-.29,2.13-.42.31-.06.63-.11.96-.17.46-.07.93-.14,1.41-.21.26-.03.53-.07.8-.1.27-.04.54-.07.81-.1.28-.03.56-.07.84-.1.28-.03.57-.06.86-.09.48-.05.97-.1,1.47-.14.5-.05,1.01-.09,1.52-.12.51-.04,1.02-.08,1.55-.11.53-.03,1.07-.06,1.63-.09,1.08-.05,2.19-.08,3.33-.11.56-.01,1.14-.02,1.71-.03.58-.02,1.16-.02,1.75-.02s1.17,0,1.75.02c.57.01,1.15.02,1.71.03,1.14.03,2.25.06,3.33.11.55.03,1.08.06,1.61.09.53.03,1.06.07,1.57.11.51.03,1.02.07,1.52.12.5.04.99.09,1.47.14.29.03.58.06.86.09.28.03.56.07.84.1.27.03.54.06.81.1.27.03.54.07.8.1.44.06.86.12,1.28.19.73.12,1.42.24,2.08.37.4.08.78.16,1.14.24.34.07.66.15.97.23.28.07.55.14.81.21.25.07.48.14.71.21.19.05.37.11.54.18.77.26,1.43.53,1.95.82.17.1.33.19.47.29.14.09.26.19.38.29.23.19.39.39.48.6.02.05.04.1.06.15,0,.04.02.08.03.11.01.03.01.06.01.09.02.04.02.07.02.11Z"/>
          <path class="cls-3" d="M283.41,5.1v446.3c0-2.82-12.18-5.11-27.19-5.11s-27.19,2.29-27.19,5.11V5.1c0,2.82,12.17,5.11,27.19,5.11s27.19-2.29,27.19-5.11Z"/>
          <path class="cls-3" d="M337.79,5.1v546.64c0-2.82-12.17-5.11-27.19-5.11s-27.19,2.29-27.19,5.11V5.1c0,2.82,12.17,5.11,27.19,5.11s27.19-2.29,27.19-5.11Z"/>
          <path class="cls-3" d="M392.17,5.1v653.87c0-2.82-12.17-5.1-27.19-5.1s-27.19,2.28-27.19,5.1V5.1c0,2.82,12.18,5.11,27.19,5.11s27.19-2.29,27.19-5.11Z"/>
          <path class="cls-2" d="M65.88,5.1c0,2.82-12.18,5.11-27.19,5.11S11.49,7.92,11.49,5.1,23.67,0,38.69,0s27.19,2.28,27.19,5.1Z"/>
          <path class="cls-2" d="M120.26,5.1c0,2.82-12.17,5.11-27.19,5.11s-27.19-2.29-27.19-5.11S78.05,0,93.07,0s27.19,2.28,27.19,5.1Z"/>
          <path class="cls-2" d="M174.64,5.1c0,2.82-12.17,5.11-27.19,5.11s-27.19-2.29-27.19-5.11,12.17-5.1,27.19-5.1,27.19,2.28,27.19,5.1Z"/>
          <path class="cls-2" d="M229.03,5.1c0,2.82-12.18,5.11-27.2,5.11s-27.19-2.29-27.19-5.11,12.18-5.1,27.19-5.1,27.2,2.28,27.2,5.1Z"/>
          <path class="cls-2" d="M283.41,5.1c0,2.82-12.18,5.11-27.19,5.11s-27.19-2.29-27.19-5.11,12.17-5.1,27.19-5.1,27.19,2.28,27.19,5.1Z"/>
          <path class="cls-2" d="M337.79,5.1c0,2.82-12.17,5.11-27.19,5.11s-27.19-2.29-27.19-5.11,12.17-5.1,27.19-5.1,27.19,2.28,27.19,5.1Z"/>
          <path class="cls-2" d="M392.17,5.1c0,2.82-12.17,5.11-27.19,5.11s-27.19-2.29-27.19-5.11,12.18-5.1,27.19-5.1,27.19,2.28,27.19,5.1Z"/>
          <path class="cls-2" d="M120.26,296.68c0,2.82-12.17,5.1-27.19,5.1s-27.19-2.28-27.19-5.1,12.17-5.11,27.19-5.11,27.19,2.29,27.19,5.11Z"/>
          <path class="cls-2" d="M229.02,399.31s0,.07-.01.11c0,.03,0,.06-.01.09,0,.04-.02.07-.03.11-.02.05-.04.11-.06.16-.03.05-.05.1-.09.15-.06.1-.14.2-.24.3-.58.6-1.71,1.16-3.28,1.66-.27.09-.54.17-.83.25-.29.08-.59.16-.9.24-.51.12-1.04.24-1.61.36-.16.04-.33.07-.5.1-.66.13-1.35.25-2.08.37-.42.07-.84.13-1.28.19-.26.04-.53.07-.8.11-.27.03-.54.07-.81.1-.55.07-1.12.13-1.7.19-.48.05-.97.09-1.47.14-.5.04-1.01.08-1.52.12-2.06.15-4.24.26-6.51.31-.56.01-1.14.02-1.71.03-.58.01-1.16.01-1.75.01-15.02,0-27.19-2.26-27.19-5.1,0-.09.01-.18.04-.26.02-.08.05-.16.09-.23.02-.04.04-.08.07-.12.06-.11.14-.21.24-.3.05-.05.1-.1.15-.15.01-.01.02-.01.02-.01.07-.07.16-.14.25-.2.1-.08.22-.15.34-.23.06-.03.12-.07.19-.11.1-.06.21-.11.31-.17.14-.07.28-.14.44-.2.37-.17.78-.33,1.23-.48.18-.06.37-.12.57-.18.22-.07.46-.14.7-.21.26-.07.53-.14.81-.21.31-.08.63-.16.97-.23.66-.15,1.38-.29,2.13-.42.31-.06.63-.11.96-.17.46-.07.93-.14,1.41-.21.26-.03.53-.07.8-.1.27-.04.54-.07.81-.1.28-.03.56-.07.84-.1.28-.03.57-.06.86-.09.48-.05.97-.1,1.47-.14.5-.05,1.01-.09,1.52-.12.51-.04,1.02-.08,1.55-.11.53-.03,1.07-.06,1.63-.09,1.08-.05,2.19-.08,3.33-.11.56-.01,1.14-.02,1.71-.03.58-.01,1.16-.01,1.75-.01s1.17,0,1.75.01c.57.01,1.15.02,1.71.03,1.14.03,2.25.06,3.33.11.55.03,1.08.06,1.61.09.53.03,1.06.07,1.57.11.51.03,1.02.07,1.52.12.5.04.99.09,1.47.14.29.03.58.06.86.09.28.03.56.07.84.1.27.03.54.06.81.1.27.03.54.07.8.1.44.06.86.12,1.28.19.73.12,1.42.24,2.08.37.4.08.78.16,1.14.24.34.07.66.15.97.23.28.07.55.14.81.21.25.07.48.14.71.21.19.05.37.11.54.18.77.26,1.43.53,1.95.82.17.1.33.19.47.29.14.09.26.19.38.29.22.19.38.39.48.6.02.05.04.1.06.15,0,.04.02.08.03.11.01.03.01.06.01.09.01.04.01.07.01.11Z"/>
          <ellipse class="cls-2" cx="256.22" cy="451.4" rx="27.19" ry="5.11"/>
          <ellipse class="cls-2" cx="310.6" cy="551.74" rx="27.19" ry="5.11"/>
          <path class="cls-2" d="M392.17,658.97c0,2.82-12.17,5.11-27.19,5.11s-27.19-2.29-27.19-5.11,12.18-5.1,27.19-5.1,27.19,2.28,27.19,5.1Z"/>
          <path class="cls-2" d="M65.88,237.7c0,2.82-12.18,5.1-27.19,5.1s-27.2-2.28-27.2-5.1,12.18-5.11,27.2-5.11,27.19,2.29,27.19,5.11Z"/>
          <line class="cls-4" x1="65.88" y1="8.1" x2="65.88" y2="211.4"/>
          <line class="cls-4" x1="120.26" y1="8.1" x2="118.53" y2="270.37"/>
          <line class="cls-4" x1="174.64" y1="8.1" x2="174.64" y2="324.76"/>
          <line class="cls-4" x1="229.02" y1="8.1" x2="226.32" y2="373.79"/>
          <line class="cls-4" x1="283.41" y1="8.1" x2="285.87" y2="427.4"/>
          <line class="cls-4" x1="337.78" y1="8.1" x2="340.97" y2="526.22"/>
        </g>
        <path class="cls-6" d="M398.18,99.57H4.72c2.61,0,4.73-11.32,4.73-25.28s-2.12-25.27-4.73-25.27h393.46c-2.61,0-4.72,11.31-4.72,25.27s2.11,25.28,4.72,25.28Z"/>
        <path class="cls-3" d="M402.9,74.29c0,13.96-2.12,25.28-4.72,25.28s-4.72-11.32-4.72-25.28,2.11-25.27,4.72-25.27,4.72,11.31,4.72,25.27Z"/>
        <path class="cls-3" d="M9.45,74.29c0,13.96-2.12,25.28-4.73,25.28S0,88.25,0,74.29s2.11-25.27,4.72-25.27,4.73,11.31,4.73,25.27Z"/>
        <path class="cls-5" d="M381.17,145.77c3.27,7.24,2.95,52.89,2.92,68.09-.14,61.51-.28,123.02-.43,184.54-.07,31.77-.15,63.55-.22,95.32-.05,21.93,1.24,63.44-.93,80.88-2.9-6.29-4.59-26.13-5.73-41.33-6.78-89.72-4.85-199.6-3.62-294.02.24-18.67.97-109.08,8.01-93.48Z"/>
        <path class="cls-5" d="M318.88,169.36c2.28,2.92,2.06,21.34,2.03,27.47-.1,24.82-.2,49.63-.3,74.45-.05,12.82-.1,25.64-.15,38.46-.04,8.85.87,25.59-.65,32.63-2.02-2.54-3.2-10.54-4-16.67-4.72-36.2-3.38-80.53-2.52-118.62.17-7.53.68-44.01,5.58-37.72Z"/>
        <path class="cls-5" d="M260.48,185.77c1.51,1.93,1.36,14.13,1.35,18.19-.07,16.43-.13,32.86-.2,49.29-.03,8.49-.07,16.98-.1,25.46-.02,5.86.57,16.95-.43,21.6-1.34-1.68-2.12-6.98-2.65-11.04-3.13-23.97-2.24-53.32-1.67-78.54.11-4.99.45-29.14,3.7-24.97Z"/>
        <path class="cls-5" d="M202.9,185.77c1.51,1.93,1.36,14.13,1.35,18.19-.07,16.43-.13,32.86-.2,49.29-.03,8.49-.07,16.98-.1,25.46-.02,5.86.57,16.95-.43,21.6-1.34-1.68-2.12-6.98-2.65-11.04-3.13-23.97-2.24-53.32-1.67-78.54.11-4.99.45-29.14,3.7-24.97Z"/>
        <path class="cls-5" d="M148.9,178.56c1.51,1.93,1.36,14.13,1.35,18.19-.07,16.43-.13,32.86-.2,49.29-.03,8.49-.07,16.98-.1,25.46-.02,5.86.57,16.95-.43,21.6-1.34-1.68-2.12-6.98-2.65-11.04-3.13-23.97-2.24-53.32-1.67-78.54.11-4.99.45-29.14,3.7-24.97Z"/>
        <path class="cls-5" d="M91.71,145.17c1.51,1.93,1.36,14.13,1.35,18.19-.07,16.43-.13,32.86-.2,49.29-.03,8.49-.07,16.98-.1,25.46-.02,5.86.57,16.95-.43,21.6-1.34-1.68-2.12-6.98-2.65-11.04-3.13-23.97-2.24-53.32-1.67-78.54.11-4.99.45-29.14,3.7-24.97Z"/>
        <path class="cls-5" d="M39.97,116.08c1.33,1.71,1.2,12.47,1.19,16.06-.06,14.51-.12,29.01-.17,43.52-.03,7.49-.06,14.99-.09,22.48-.02,5.17.51,14.96-.38,19.07-1.18-1.48-1.87-6.16-2.34-9.75-2.76-21.16-1.97-47.07-1.47-69.34.1-4.4.4-25.72,3.26-22.05Z"/>
        <path class="cls-5" d="M387.59,90.8c-.84.85-6.19.81-7.97.81-7.21,0-14.41.02-21.62.02-3.72,0-7.44,0-11.17.01-2.57,0-7.43.37-9.47-.18.73-.76,3.05-1.21,4.83-1.52,10.5-1.83,23.37-1.4,34.43-1.15,2.19.05,12.78.17,10.96,2.01Z"/>
        <path class="cls-5" d="M76.65,85.72c-.84.85-6.19.81-7.97.81-7.21,0-14.41.02-21.62.02-3.72,0-7.44,0-11.17.01-2.57,0-7.43.37-9.47-.18.73-.76,3.05-1.21,4.83-1.52,10.5-1.83,23.37-1.4,34.43-1.15,2.19.05,12.78.17,10.96,2.01Z"/>
      </g>
      <rect class="cls-6" x="167.75" y="366.12" width="229.79" height="16.09" rx="7.79" ry="7.79"/>
    </g>
  </g>
</svg>